M48
INCH,TZ
T1C0.0150
T2C0.0250
T3C0.0394
T4C0.0472
T5C0.0787
T6C0.0827
%
G90
G05
T1
X56378Y-24429
X58031Y-23031
X60295Y-23622
X61870Y-25000
X62874Y-20689
X64685Y-23366
X64777Y-27211
X64867Y-26624
X65433Y-23691
X66654Y-26299
T2
X56161Y-27913
X56634Y-26831
X57598Y-23563
X57992Y-24803
X58740Y-22283
X62146Y-22283
X63091Y-21772
X67461Y-27362
X68071Y-27638
T3
X54193Y-20748
X55193Y-20748
X56193Y-20748
X57193Y-20748
X58193Y-20748
T4
X64685Y-21098
X64685Y-22598
X66063Y-21098
X66063Y-22598
X67441Y-21098
X67441Y-22598
T5
X62230Y-27580
X63520Y-26910
T6
X54587Y-24370
X68110Y-24350
M30
