<?xml version="1.0" standalone="no"?>
 <!DOCTYPE svg PUBLIC "-//W3C//DTD SVG 1.1//EN" 
 "http://www.w3.org/Graphics/SVG/1.1/DTD/svg11.dtd"> 
<svg
  xmlns:svg="http://www.w3.org/2000/svg"
  xmlns="http://www.w3.org/2000/svg"
  xmlns:xlink="http://www.w3.org/1999/xlink"
  version="1.1"
  width="297.0022mm" height="210.0072mm" viewBox="0.0000 0.0000 297.0022 210.0072">
<title>SVG Image created as ParaMETEO-reset-adapter-NPTH-drl_map.svg date 2025/11/28 20:59:15 </title>
  <desc>Image generated by PCBNEW </desc>
<g style="fill:#000000; fill-opacity:1.0000;stroke:#000000; stroke-opacity:1.0000;
stroke-linecap:round; stroke-linejoin:round;"
 transform="translate(0 0) scale(1 1)">
</g>
<g style="fill:#000000; fill-opacity:0.0; 
stroke:#000000; stroke-width:0.0000; stroke-opacity:1; 
stroke-linecap:round; stroke-linejoin:round;">
</g>
<g style="fill:#000000; fill-opacity:0.0; 
stroke:#000000; stroke-width:0.1500; stroke-opacity:1; 
stroke-linecap:round; stroke-linejoin:round;">
<path d="M87.9821 95.2372
L209.1401 95.2372
" />
<path d="M209.1401 95.2372
L209.1401 33.5152
" />
<path d="M87.8621 30.7672
L87.9821 95.2372
" />
<path d="M209.1401 33.5152
L209.1371 30.7672
" />
<path d="M209.1371 30.7672
L87.8621 30.7672
" />
</g>
<g style="fill:#000000; fill-opacity:0.0; 
stroke:#000000; stroke-width:0.6000; stroke-opacity:1; 
stroke-linecap:round; stroke-linejoin:round;">
</g>
<g style="fill:#000000; fill-opacity:0.0; 
stroke:#000000; stroke-width:0.2000; stroke-opacity:1; 
stroke-linecap:round; stroke-linejoin:round;">
<text x="89.7871" y="98.5122"
textLength="14.8667" font-size="2.6667" lengthAdjust="spacingAndGlyphs"
text-anchor="start" opacity="0">Drill Map:</text>
<g class="stroked-text"><desc>Drill Map:</desc>
<path d="M90.3949 98.4270
L90.3949 96.4270
" />
<path d="M90.3949 96.4270
L90.8711 96.4270
" />
<path d="M90.8711 96.4270
L91.1568 96.5222
" />
<path d="M91.1568 96.5222
L91.3472 96.7127
" />
<path d="M91.3472 96.7127
L91.4425 96.9032
" />
<path d="M91.4425 96.9032
L91.5377 97.2841
" />
<path d="M91.5377 97.2841
L91.5377 97.5699
" />
<path d="M91.5377 97.5699
L91.4425 97.9508
" />
<path d="M91.4425 97.9508
L91.3472 98.1413
" />
<path d="M91.3472 98.1413
L91.1568 98.3318
" />
<path d="M91.1568 98.3318
L90.8711 98.4270
" />
<path d="M90.8711 98.4270
L90.3949 98.4270
" />
<path d="M92.3949 98.4270
L92.3949 97.0937
" />
<path d="M92.3949 97.4746
L92.4901 97.2841
" />
<path d="M92.4901 97.2841
L92.5853 97.1889
" />
<path d="M92.5853 97.1889
L92.7758 97.0937
" />
<path d="M92.7758 97.0937
L92.9663 97.0937
" />
<path d="M93.6330 98.4270
L93.6330 97.0937
" />
<path d="M93.6330 96.4270
L93.5377 96.5222
" />
<path d="M93.5377 96.5222
L93.6330 96.6175
" />
<path d="M93.6330 96.6175
L93.7282 96.5222
" />
<path d="M93.7282 96.5222
L93.6330 96.4270
" />
<path d="M93.6330 96.4270
L93.6330 96.6175
" />
<path d="M94.8711 98.4270
L94.6806 98.3318
" />
<path d="M94.6806 98.3318
L94.5853 98.1413
" />
<path d="M94.5853 98.1413
L94.5853 96.4270
" />
<path d="M95.9187 98.4270
L95.7282 98.3318
" />
<path d="M95.7282 98.3318
L95.6330 98.1413
" />
<path d="M95.6330 98.1413
L95.6330 96.4270
" />
<path d="M98.2044 98.4270
L98.2044 96.4270
" />
<path d="M98.2044 96.4270
L98.8711 97.8556
" />
<path d="M98.8711 97.8556
L99.5377 96.4270
" />
<path d="M99.5377 96.4270
L99.5377 98.4270
" />
<path d="M101.3473 98.4270
L101.3473 97.3794
" />
<path d="M101.3473 97.3794
L101.2520 97.1889
" />
<path d="M101.2520 97.1889
L101.0615 97.0937
" />
<path d="M101.0615 97.0937
L100.6806 97.0937
" />
<path d="M100.6806 97.0937
L100.4901 97.1889
" />
<path d="M101.3473 98.3318
L101.1568 98.4270
" />
<path d="M101.1568 98.4270
L100.6806 98.4270
" />
<path d="M100.6806 98.4270
L100.4901 98.3318
" />
<path d="M100.4901 98.3318
L100.3949 98.1413
" />
<path d="M100.3949 98.1413
L100.3949 97.9508
" />
<path d="M100.3949 97.9508
L100.4901 97.7603
" />
<path d="M100.4901 97.7603
L100.6806 97.6651
" />
<path d="M100.6806 97.6651
L101.1568 97.6651
" />
<path d="M101.1568 97.6651
L101.3473 97.5699
" />
<path d="M102.2996 97.0937
L102.2996 99.0937
" />
<path d="M102.2996 97.1889
L102.4901 97.0937
" />
<path d="M102.4901 97.0937
L102.8711 97.0937
" />
<path d="M102.8711 97.0937
L103.0615 97.1889
" />
<path d="M103.0615 97.1889
L103.1568 97.2841
" />
<path d="M103.1568 97.2841
L103.2520 97.4746
" />
<path d="M103.2520 97.4746
L103.2520 98.0460
" />
<path d="M103.2520 98.0460
L103.1568 98.2365
" />
<path d="M103.1568 98.2365
L103.0615 98.3318
" />
<path d="M103.0615 98.3318
L102.8711 98.4270
" />
<path d="M102.8711 98.4270
L102.4901 98.4270
" />
<path d="M102.4901 98.4270
L102.2996 98.3318
" />
<path d="M104.1092 98.2365
L104.2044 98.3318
" />
<path d="M104.2044 98.3318
L104.1092 98.4270
" />
<path d="M104.1092 98.4270
L104.0139 98.3318
" />
<path d="M104.0139 98.3318
L104.1092 98.2365
" />
<path d="M104.1092 98.2365
L104.1092 98.4270
" />
<path d="M104.1092 97.1889
L104.2044 97.2841
" />
<path d="M104.2044 97.2841
L104.1092 97.3794
" />
<path d="M104.1092 97.3794
L104.0139 97.2841
" />
<path d="M104.0139 97.2841
L104.1092 97.1889
" />
<path d="M104.1092 97.1889
L104.1092 97.3794
" />
</g></g> 
</svg>
