%TF.GenerationSoftware,KiCad,Pcbnew,7.0.11+dfsg-1build4*%
%TF.CreationDate,2025-11-28T20:59:08+01:00*%
%TF.ProjectId,ParaMETEO-reset-adapter,50617261-4d45-4544-954f-2d7265736574,rev?*%
%TF.SameCoordinates,Original*%
%TF.FileFunction,Legend,Top*%
%TF.FilePolarity,Positive*%
%FSLAX46Y46*%
G04 Gerber Fmt 4.6, Leading zero omitted, Abs format (unit mm)*
G04 Created by KiCad (PCBNEW 7.0.11+dfsg-1build4) date 2025-11-28 20:59:08*
%MOMM*%
%LPD*%
G01*
G04 APERTURE LIST*
%ADD10C,0.100000*%
%ADD11C,0.150000*%
%ADD12C,0.250000*%
%ADD13C,0.254000*%
%ADD14C,0.073152*%
%ADD15C,0.120000*%
%ADD16C,0.200000*%
%ADD17C,0.101600*%
G04 APERTURE END LIST*
D10*
X137438609Y-69157142D02*
X137486228Y-69014285D01*
X137486228Y-69014285D02*
X137533847Y-68966666D01*
X137533847Y-68966666D02*
X137629085Y-68919047D01*
X137629085Y-68919047D02*
X137771942Y-68919047D01*
X137771942Y-68919047D02*
X137867180Y-68966666D01*
X137867180Y-68966666D02*
X137914800Y-69014285D01*
X137914800Y-69014285D02*
X137962419Y-69109523D01*
X137962419Y-69109523D02*
X137962419Y-69490475D01*
X137962419Y-69490475D02*
X136962419Y-69490475D01*
X136962419Y-69490475D02*
X136962419Y-69157142D01*
X136962419Y-69157142D02*
X137010038Y-69061904D01*
X137010038Y-69061904D02*
X137057657Y-69014285D01*
X137057657Y-69014285D02*
X137152895Y-68966666D01*
X137152895Y-68966666D02*
X137248133Y-68966666D01*
X137248133Y-68966666D02*
X137343371Y-69014285D01*
X137343371Y-69014285D02*
X137390990Y-69061904D01*
X137390990Y-69061904D02*
X137438609Y-69157142D01*
X137438609Y-69157142D02*
X137438609Y-69490475D01*
X136962419Y-68299999D02*
X136962419Y-68109523D01*
X136962419Y-68109523D02*
X137010038Y-68014285D01*
X137010038Y-68014285D02*
X137105276Y-67919047D01*
X137105276Y-67919047D02*
X137295752Y-67871428D01*
X137295752Y-67871428D02*
X137629085Y-67871428D01*
X137629085Y-67871428D02*
X137819561Y-67919047D01*
X137819561Y-67919047D02*
X137914800Y-68014285D01*
X137914800Y-68014285D02*
X137962419Y-68109523D01*
X137962419Y-68109523D02*
X137962419Y-68299999D01*
X137962419Y-68299999D02*
X137914800Y-68395237D01*
X137914800Y-68395237D02*
X137819561Y-68490475D01*
X137819561Y-68490475D02*
X137629085Y-68538094D01*
X137629085Y-68538094D02*
X137295752Y-68538094D01*
X137295752Y-68538094D02*
X137105276Y-68490475D01*
X137105276Y-68490475D02*
X137010038Y-68395237D01*
X137010038Y-68395237D02*
X136962419Y-68299999D01*
X136962419Y-67252380D02*
X136962419Y-67061904D01*
X136962419Y-67061904D02*
X137010038Y-66966666D01*
X137010038Y-66966666D02*
X137105276Y-66871428D01*
X137105276Y-66871428D02*
X137295752Y-66823809D01*
X137295752Y-66823809D02*
X137629085Y-66823809D01*
X137629085Y-66823809D02*
X137819561Y-66871428D01*
X137819561Y-66871428D02*
X137914800Y-66966666D01*
X137914800Y-66966666D02*
X137962419Y-67061904D01*
X137962419Y-67061904D02*
X137962419Y-67252380D01*
X137962419Y-67252380D02*
X137914800Y-67347618D01*
X137914800Y-67347618D02*
X137819561Y-67442856D01*
X137819561Y-67442856D02*
X137629085Y-67490475D01*
X137629085Y-67490475D02*
X137295752Y-67490475D01*
X137295752Y-67490475D02*
X137105276Y-67442856D01*
X137105276Y-67442856D02*
X137010038Y-67347618D01*
X137010038Y-67347618D02*
X136962419Y-67252380D01*
X136962419Y-66538094D02*
X136962419Y-65966666D01*
X137962419Y-66252380D02*
X136962419Y-66252380D01*
X139477180Y-68538095D02*
X139524800Y-68585714D01*
X139524800Y-68585714D02*
X139572419Y-68728571D01*
X139572419Y-68728571D02*
X139572419Y-68823809D01*
X139572419Y-68823809D02*
X139524800Y-68966666D01*
X139524800Y-68966666D02*
X139429561Y-69061904D01*
X139429561Y-69061904D02*
X139334323Y-69109523D01*
X139334323Y-69109523D02*
X139143847Y-69157142D01*
X139143847Y-69157142D02*
X139000990Y-69157142D01*
X139000990Y-69157142D02*
X138810514Y-69109523D01*
X138810514Y-69109523D02*
X138715276Y-69061904D01*
X138715276Y-69061904D02*
X138620038Y-68966666D01*
X138620038Y-68966666D02*
X138572419Y-68823809D01*
X138572419Y-68823809D02*
X138572419Y-68728571D01*
X138572419Y-68728571D02*
X138620038Y-68585714D01*
X138620038Y-68585714D02*
X138667657Y-68538095D01*
X138572419Y-67919047D02*
X138572419Y-67728571D01*
X138572419Y-67728571D02*
X138620038Y-67633333D01*
X138620038Y-67633333D02*
X138715276Y-67538095D01*
X138715276Y-67538095D02*
X138905752Y-67490476D01*
X138905752Y-67490476D02*
X139239085Y-67490476D01*
X139239085Y-67490476D02*
X139429561Y-67538095D01*
X139429561Y-67538095D02*
X139524800Y-67633333D01*
X139524800Y-67633333D02*
X139572419Y-67728571D01*
X139572419Y-67728571D02*
X139572419Y-67919047D01*
X139572419Y-67919047D02*
X139524800Y-68014285D01*
X139524800Y-68014285D02*
X139429561Y-68109523D01*
X139429561Y-68109523D02*
X139239085Y-68157142D01*
X139239085Y-68157142D02*
X138905752Y-68157142D01*
X138905752Y-68157142D02*
X138715276Y-68109523D01*
X138715276Y-68109523D02*
X138620038Y-68014285D01*
X138620038Y-68014285D02*
X138572419Y-67919047D01*
X139572419Y-67061904D02*
X138572419Y-67061904D01*
X138572419Y-67061904D02*
X139572419Y-66490476D01*
X139572419Y-66490476D02*
X138572419Y-66490476D01*
X152137217Y-52348609D02*
X152280074Y-52396228D01*
X152280074Y-52396228D02*
X152327693Y-52443847D01*
X152327693Y-52443847D02*
X152375312Y-52539085D01*
X152375312Y-52539085D02*
X152375312Y-52681942D01*
X152375312Y-52681942D02*
X152327693Y-52777180D01*
X152327693Y-52777180D02*
X152280074Y-52824800D01*
X152280074Y-52824800D02*
X152184836Y-52872419D01*
X152184836Y-52872419D02*
X151803884Y-52872419D01*
X151803884Y-52872419D02*
X151803884Y-51872419D01*
X151803884Y-51872419D02*
X152137217Y-51872419D01*
X152137217Y-51872419D02*
X152232455Y-51920038D01*
X152232455Y-51920038D02*
X152280074Y-51967657D01*
X152280074Y-51967657D02*
X152327693Y-52062895D01*
X152327693Y-52062895D02*
X152327693Y-52158133D01*
X152327693Y-52158133D02*
X152280074Y-52253371D01*
X152280074Y-52253371D02*
X152232455Y-52300990D01*
X152232455Y-52300990D02*
X152137217Y-52348609D01*
X152137217Y-52348609D02*
X151803884Y-52348609D01*
X152994360Y-51872419D02*
X153184836Y-51872419D01*
X153184836Y-51872419D02*
X153280074Y-51920038D01*
X153280074Y-51920038D02*
X153375312Y-52015276D01*
X153375312Y-52015276D02*
X153422931Y-52205752D01*
X153422931Y-52205752D02*
X153422931Y-52539085D01*
X153422931Y-52539085D02*
X153375312Y-52729561D01*
X153375312Y-52729561D02*
X153280074Y-52824800D01*
X153280074Y-52824800D02*
X153184836Y-52872419D01*
X153184836Y-52872419D02*
X152994360Y-52872419D01*
X152994360Y-52872419D02*
X152899122Y-52824800D01*
X152899122Y-52824800D02*
X152803884Y-52729561D01*
X152803884Y-52729561D02*
X152756265Y-52539085D01*
X152756265Y-52539085D02*
X152756265Y-52205752D01*
X152756265Y-52205752D02*
X152803884Y-52015276D01*
X152803884Y-52015276D02*
X152899122Y-51920038D01*
X152899122Y-51920038D02*
X152994360Y-51872419D01*
X154041979Y-51872419D02*
X154232455Y-51872419D01*
X154232455Y-51872419D02*
X154327693Y-51920038D01*
X154327693Y-51920038D02*
X154422931Y-52015276D01*
X154422931Y-52015276D02*
X154470550Y-52205752D01*
X154470550Y-52205752D02*
X154470550Y-52539085D01*
X154470550Y-52539085D02*
X154422931Y-52729561D01*
X154422931Y-52729561D02*
X154327693Y-52824800D01*
X154327693Y-52824800D02*
X154232455Y-52872419D01*
X154232455Y-52872419D02*
X154041979Y-52872419D01*
X154041979Y-52872419D02*
X153946741Y-52824800D01*
X153946741Y-52824800D02*
X153851503Y-52729561D01*
X153851503Y-52729561D02*
X153803884Y-52539085D01*
X153803884Y-52539085D02*
X153803884Y-52205752D01*
X153803884Y-52205752D02*
X153851503Y-52015276D01*
X153851503Y-52015276D02*
X153946741Y-51920038D01*
X153946741Y-51920038D02*
X154041979Y-51872419D01*
X154756265Y-51872419D02*
X155327693Y-51872419D01*
X155041979Y-52872419D02*
X155041979Y-51872419D01*
X155661027Y-52491466D02*
X156422932Y-52491466D01*
X157232455Y-52348609D02*
X157375312Y-52396228D01*
X157375312Y-52396228D02*
X157422931Y-52443847D01*
X157422931Y-52443847D02*
X157470550Y-52539085D01*
X157470550Y-52539085D02*
X157470550Y-52681942D01*
X157470550Y-52681942D02*
X157422931Y-52777180D01*
X157422931Y-52777180D02*
X157375312Y-52824800D01*
X157375312Y-52824800D02*
X157280074Y-52872419D01*
X157280074Y-52872419D02*
X156899122Y-52872419D01*
X156899122Y-52872419D02*
X156899122Y-51872419D01*
X156899122Y-51872419D02*
X157232455Y-51872419D01*
X157232455Y-51872419D02*
X157327693Y-51920038D01*
X157327693Y-51920038D02*
X157375312Y-51967657D01*
X157375312Y-51967657D02*
X157422931Y-52062895D01*
X157422931Y-52062895D02*
X157422931Y-52158133D01*
X157422931Y-52158133D02*
X157375312Y-52253371D01*
X157375312Y-52253371D02*
X157327693Y-52300990D01*
X157327693Y-52300990D02*
X157232455Y-52348609D01*
X157232455Y-52348609D02*
X156899122Y-52348609D01*
X157899122Y-52491466D02*
X158661027Y-52491466D01*
X158280074Y-52872419D02*
X158280074Y-52110514D01*
X152137217Y-55548609D02*
X152280074Y-55596228D01*
X152280074Y-55596228D02*
X152327693Y-55643847D01*
X152327693Y-55643847D02*
X152375312Y-55739085D01*
X152375312Y-55739085D02*
X152375312Y-55881942D01*
X152375312Y-55881942D02*
X152327693Y-55977180D01*
X152327693Y-55977180D02*
X152280074Y-56024800D01*
X152280074Y-56024800D02*
X152184836Y-56072419D01*
X152184836Y-56072419D02*
X151803884Y-56072419D01*
X151803884Y-56072419D02*
X151803884Y-55072419D01*
X151803884Y-55072419D02*
X152137217Y-55072419D01*
X152137217Y-55072419D02*
X152232455Y-55120038D01*
X152232455Y-55120038D02*
X152280074Y-55167657D01*
X152280074Y-55167657D02*
X152327693Y-55262895D01*
X152327693Y-55262895D02*
X152327693Y-55358133D01*
X152327693Y-55358133D02*
X152280074Y-55453371D01*
X152280074Y-55453371D02*
X152232455Y-55500990D01*
X152232455Y-55500990D02*
X152137217Y-55548609D01*
X152137217Y-55548609D02*
X151803884Y-55548609D01*
X152994360Y-55072419D02*
X153184836Y-55072419D01*
X153184836Y-55072419D02*
X153280074Y-55120038D01*
X153280074Y-55120038D02*
X153375312Y-55215276D01*
X153375312Y-55215276D02*
X153422931Y-55405752D01*
X153422931Y-55405752D02*
X153422931Y-55739085D01*
X153422931Y-55739085D02*
X153375312Y-55929561D01*
X153375312Y-55929561D02*
X153280074Y-56024800D01*
X153280074Y-56024800D02*
X153184836Y-56072419D01*
X153184836Y-56072419D02*
X152994360Y-56072419D01*
X152994360Y-56072419D02*
X152899122Y-56024800D01*
X152899122Y-56024800D02*
X152803884Y-55929561D01*
X152803884Y-55929561D02*
X152756265Y-55739085D01*
X152756265Y-55739085D02*
X152756265Y-55405752D01*
X152756265Y-55405752D02*
X152803884Y-55215276D01*
X152803884Y-55215276D02*
X152899122Y-55120038D01*
X152899122Y-55120038D02*
X152994360Y-55072419D01*
X154041979Y-55072419D02*
X154232455Y-55072419D01*
X154232455Y-55072419D02*
X154327693Y-55120038D01*
X154327693Y-55120038D02*
X154422931Y-55215276D01*
X154422931Y-55215276D02*
X154470550Y-55405752D01*
X154470550Y-55405752D02*
X154470550Y-55739085D01*
X154470550Y-55739085D02*
X154422931Y-55929561D01*
X154422931Y-55929561D02*
X154327693Y-56024800D01*
X154327693Y-56024800D02*
X154232455Y-56072419D01*
X154232455Y-56072419D02*
X154041979Y-56072419D01*
X154041979Y-56072419D02*
X153946741Y-56024800D01*
X153946741Y-56024800D02*
X153851503Y-55929561D01*
X153851503Y-55929561D02*
X153803884Y-55739085D01*
X153803884Y-55739085D02*
X153803884Y-55405752D01*
X153803884Y-55405752D02*
X153851503Y-55215276D01*
X153851503Y-55215276D02*
X153946741Y-55120038D01*
X153946741Y-55120038D02*
X154041979Y-55072419D01*
X154756265Y-55072419D02*
X155327693Y-55072419D01*
X155041979Y-56072419D02*
X155041979Y-55072419D01*
X155661027Y-55691466D02*
X156422932Y-55691466D01*
X156803884Y-55072419D02*
X157422931Y-55072419D01*
X157422931Y-55072419D02*
X157089598Y-55453371D01*
X157089598Y-55453371D02*
X157232455Y-55453371D01*
X157232455Y-55453371D02*
X157327693Y-55500990D01*
X157327693Y-55500990D02*
X157375312Y-55548609D01*
X157375312Y-55548609D02*
X157422931Y-55643847D01*
X157422931Y-55643847D02*
X157422931Y-55881942D01*
X157422931Y-55881942D02*
X157375312Y-55977180D01*
X157375312Y-55977180D02*
X157327693Y-56024800D01*
X157327693Y-56024800D02*
X157232455Y-56072419D01*
X157232455Y-56072419D02*
X156946741Y-56072419D01*
X156946741Y-56072419D02*
X156851503Y-56024800D01*
X156851503Y-56024800D02*
X156803884Y-55977180D01*
X157851503Y-55977180D02*
X157899122Y-56024800D01*
X157899122Y-56024800D02*
X157851503Y-56072419D01*
X157851503Y-56072419D02*
X157803884Y-56024800D01*
X157803884Y-56024800D02*
X157851503Y-55977180D01*
X157851503Y-55977180D02*
X157851503Y-56072419D01*
X158232455Y-55072419D02*
X158851502Y-55072419D01*
X158851502Y-55072419D02*
X158518169Y-55453371D01*
X158518169Y-55453371D02*
X158661026Y-55453371D01*
X158661026Y-55453371D02*
X158756264Y-55500990D01*
X158756264Y-55500990D02*
X158803883Y-55548609D01*
X158803883Y-55548609D02*
X158851502Y-55643847D01*
X158851502Y-55643847D02*
X158851502Y-55881942D01*
X158851502Y-55881942D02*
X158803883Y-55977180D01*
X158803883Y-55977180D02*
X158756264Y-56024800D01*
X158756264Y-56024800D02*
X158661026Y-56072419D01*
X158661026Y-56072419D02*
X158375312Y-56072419D01*
X158375312Y-56072419D02*
X158280074Y-56024800D01*
X158280074Y-56024800D02*
X158232455Y-55977180D01*
D11*
X156420112Y-67346009D02*
X156562969Y-67393628D01*
X156562969Y-67393628D02*
X156610588Y-67441247D01*
X156610588Y-67441247D02*
X156658207Y-67536485D01*
X156658207Y-67536485D02*
X156658207Y-67679342D01*
X156658207Y-67679342D02*
X156610588Y-67774580D01*
X156610588Y-67774580D02*
X156562969Y-67822200D01*
X156562969Y-67822200D02*
X156467731Y-67869819D01*
X156467731Y-67869819D02*
X156086779Y-67869819D01*
X156086779Y-67869819D02*
X156086779Y-66869819D01*
X156086779Y-66869819D02*
X156420112Y-66869819D01*
X156420112Y-66869819D02*
X156515350Y-66917438D01*
X156515350Y-66917438D02*
X156562969Y-66965057D01*
X156562969Y-66965057D02*
X156610588Y-67060295D01*
X156610588Y-67060295D02*
X156610588Y-67155533D01*
X156610588Y-67155533D02*
X156562969Y-67250771D01*
X156562969Y-67250771D02*
X156515350Y-67298390D01*
X156515350Y-67298390D02*
X156420112Y-67346009D01*
X156420112Y-67346009D02*
X156086779Y-67346009D01*
X157277255Y-66869819D02*
X157467731Y-66869819D01*
X157467731Y-66869819D02*
X157562969Y-66917438D01*
X157562969Y-66917438D02*
X157658207Y-67012676D01*
X157658207Y-67012676D02*
X157705826Y-67203152D01*
X157705826Y-67203152D02*
X157705826Y-67536485D01*
X157705826Y-67536485D02*
X157658207Y-67726961D01*
X157658207Y-67726961D02*
X157562969Y-67822200D01*
X157562969Y-67822200D02*
X157467731Y-67869819D01*
X157467731Y-67869819D02*
X157277255Y-67869819D01*
X157277255Y-67869819D02*
X157182017Y-67822200D01*
X157182017Y-67822200D02*
X157086779Y-67726961D01*
X157086779Y-67726961D02*
X157039160Y-67536485D01*
X157039160Y-67536485D02*
X157039160Y-67203152D01*
X157039160Y-67203152D02*
X157086779Y-67012676D01*
X157086779Y-67012676D02*
X157182017Y-66917438D01*
X157182017Y-66917438D02*
X157277255Y-66869819D01*
X158324874Y-66869819D02*
X158515350Y-66869819D01*
X158515350Y-66869819D02*
X158610588Y-66917438D01*
X158610588Y-66917438D02*
X158705826Y-67012676D01*
X158705826Y-67012676D02*
X158753445Y-67203152D01*
X158753445Y-67203152D02*
X158753445Y-67536485D01*
X158753445Y-67536485D02*
X158705826Y-67726961D01*
X158705826Y-67726961D02*
X158610588Y-67822200D01*
X158610588Y-67822200D02*
X158515350Y-67869819D01*
X158515350Y-67869819D02*
X158324874Y-67869819D01*
X158324874Y-67869819D02*
X158229636Y-67822200D01*
X158229636Y-67822200D02*
X158134398Y-67726961D01*
X158134398Y-67726961D02*
X158086779Y-67536485D01*
X158086779Y-67536485D02*
X158086779Y-67203152D01*
X158086779Y-67203152D02*
X158134398Y-67012676D01*
X158134398Y-67012676D02*
X158229636Y-66917438D01*
X158229636Y-66917438D02*
X158324874Y-66869819D01*
X159039160Y-66869819D02*
X159610588Y-66869819D01*
X159324874Y-67869819D02*
X159324874Y-66869819D01*
D12*
X163273996Y-70914619D02*
X162940663Y-70438428D01*
X162702568Y-70914619D02*
X162702568Y-69914619D01*
X162702568Y-69914619D02*
X163083520Y-69914619D01*
X163083520Y-69914619D02*
X163178758Y-69962238D01*
X163178758Y-69962238D02*
X163226377Y-70009857D01*
X163226377Y-70009857D02*
X163273996Y-70105095D01*
X163273996Y-70105095D02*
X163273996Y-70247952D01*
X163273996Y-70247952D02*
X163226377Y-70343190D01*
X163226377Y-70343190D02*
X163178758Y-70390809D01*
X163178758Y-70390809D02*
X163083520Y-70438428D01*
X163083520Y-70438428D02*
X162702568Y-70438428D01*
X163702568Y-70390809D02*
X164035901Y-70390809D01*
X164178758Y-70914619D02*
X163702568Y-70914619D01*
X163702568Y-70914619D02*
X163702568Y-69914619D01*
X163702568Y-69914619D02*
X164178758Y-69914619D01*
X164559711Y-70867000D02*
X164702568Y-70914619D01*
X164702568Y-70914619D02*
X164940663Y-70914619D01*
X164940663Y-70914619D02*
X165035901Y-70867000D01*
X165035901Y-70867000D02*
X165083520Y-70819380D01*
X165083520Y-70819380D02*
X165131139Y-70724142D01*
X165131139Y-70724142D02*
X165131139Y-70628904D01*
X165131139Y-70628904D02*
X165083520Y-70533666D01*
X165083520Y-70533666D02*
X165035901Y-70486047D01*
X165035901Y-70486047D02*
X164940663Y-70438428D01*
X164940663Y-70438428D02*
X164750187Y-70390809D01*
X164750187Y-70390809D02*
X164654949Y-70343190D01*
X164654949Y-70343190D02*
X164607330Y-70295571D01*
X164607330Y-70295571D02*
X164559711Y-70200333D01*
X164559711Y-70200333D02*
X164559711Y-70105095D01*
X164559711Y-70105095D02*
X164607330Y-70009857D01*
X164607330Y-70009857D02*
X164654949Y-69962238D01*
X164654949Y-69962238D02*
X164750187Y-69914619D01*
X164750187Y-69914619D02*
X164988282Y-69914619D01*
X164988282Y-69914619D02*
X165131139Y-69962238D01*
X165559711Y-70390809D02*
X165893044Y-70390809D01*
X166035901Y-70914619D02*
X165559711Y-70914619D01*
X165559711Y-70914619D02*
X165559711Y-69914619D01*
X165559711Y-69914619D02*
X166035901Y-69914619D01*
X166321616Y-69914619D02*
X166893044Y-69914619D01*
X166607330Y-70914619D02*
X166607330Y-69914619D01*
D11*
X140160588Y-58167438D02*
X140065350Y-58119819D01*
X140065350Y-58119819D02*
X139922493Y-58119819D01*
X139922493Y-58119819D02*
X139779636Y-58167438D01*
X139779636Y-58167438D02*
X139684398Y-58262676D01*
X139684398Y-58262676D02*
X139636779Y-58357914D01*
X139636779Y-58357914D02*
X139589160Y-58548390D01*
X139589160Y-58548390D02*
X139589160Y-58691247D01*
X139589160Y-58691247D02*
X139636779Y-58881723D01*
X139636779Y-58881723D02*
X139684398Y-58976961D01*
X139684398Y-58976961D02*
X139779636Y-59072200D01*
X139779636Y-59072200D02*
X139922493Y-59119819D01*
X139922493Y-59119819D02*
X140017731Y-59119819D01*
X140017731Y-59119819D02*
X140160588Y-59072200D01*
X140160588Y-59072200D02*
X140208207Y-59024580D01*
X140208207Y-59024580D02*
X140208207Y-58691247D01*
X140208207Y-58691247D02*
X140017731Y-58691247D01*
X140636779Y-59119819D02*
X140636779Y-58119819D01*
X140636779Y-58119819D02*
X141208207Y-59119819D01*
X141208207Y-59119819D02*
X141208207Y-58119819D01*
X141684398Y-59119819D02*
X141684398Y-58119819D01*
X141684398Y-58119819D02*
X141922493Y-58119819D01*
X141922493Y-58119819D02*
X142065350Y-58167438D01*
X142065350Y-58167438D02*
X142160588Y-58262676D01*
X142160588Y-58262676D02*
X142208207Y-58357914D01*
X142208207Y-58357914D02*
X142255826Y-58548390D01*
X142255826Y-58548390D02*
X142255826Y-58691247D01*
X142255826Y-58691247D02*
X142208207Y-58881723D01*
X142208207Y-58881723D02*
X142160588Y-58976961D01*
X142160588Y-58976961D02*
X142065350Y-59072200D01*
X142065350Y-59072200D02*
X141922493Y-59119819D01*
X141922493Y-59119819D02*
X141684398Y-59119819D01*
X142684398Y-59119819D02*
X142684398Y-58119819D01*
X142684398Y-58119819D02*
X142922493Y-58119819D01*
X142922493Y-58119819D02*
X143065350Y-58167438D01*
X143065350Y-58167438D02*
X143160588Y-58262676D01*
X143160588Y-58262676D02*
X143208207Y-58357914D01*
X143208207Y-58357914D02*
X143255826Y-58548390D01*
X143255826Y-58548390D02*
X143255826Y-58691247D01*
X143255826Y-58691247D02*
X143208207Y-58881723D01*
X143208207Y-58881723D02*
X143160588Y-58976961D01*
X143160588Y-58976961D02*
X143065350Y-59072200D01*
X143065350Y-59072200D02*
X142922493Y-59119819D01*
X142922493Y-59119819D02*
X142684398Y-59119819D01*
X136317438Y-57189411D02*
X136269819Y-57284649D01*
X136269819Y-57284649D02*
X136269819Y-57427506D01*
X136269819Y-57427506D02*
X136317438Y-57570363D01*
X136317438Y-57570363D02*
X136412676Y-57665601D01*
X136412676Y-57665601D02*
X136507914Y-57713220D01*
X136507914Y-57713220D02*
X136698390Y-57760839D01*
X136698390Y-57760839D02*
X136841247Y-57760839D01*
X136841247Y-57760839D02*
X137031723Y-57713220D01*
X137031723Y-57713220D02*
X137126961Y-57665601D01*
X137126961Y-57665601D02*
X137222200Y-57570363D01*
X137222200Y-57570363D02*
X137269819Y-57427506D01*
X137269819Y-57427506D02*
X137269819Y-57332268D01*
X137269819Y-57332268D02*
X137222200Y-57189411D01*
X137222200Y-57189411D02*
X137174580Y-57141792D01*
X137174580Y-57141792D02*
X136841247Y-57141792D01*
X136841247Y-57141792D02*
X136841247Y-57332268D01*
X137269819Y-56713220D02*
X136269819Y-56713220D01*
X136269819Y-56713220D02*
X137269819Y-56141792D01*
X137269819Y-56141792D02*
X136269819Y-56141792D01*
X137269819Y-55665601D02*
X136269819Y-55665601D01*
X136269819Y-55665601D02*
X136269819Y-55427506D01*
X136269819Y-55427506D02*
X136317438Y-55284649D01*
X136317438Y-55284649D02*
X136412676Y-55189411D01*
X136412676Y-55189411D02*
X136507914Y-55141792D01*
X136507914Y-55141792D02*
X136698390Y-55094173D01*
X136698390Y-55094173D02*
X136841247Y-55094173D01*
X136841247Y-55094173D02*
X137031723Y-55141792D01*
X137031723Y-55141792D02*
X137126961Y-55189411D01*
X137126961Y-55189411D02*
X137222200Y-55284649D01*
X137222200Y-55284649D02*
X137269819Y-55427506D01*
X137269819Y-55427506D02*
X137269819Y-55665601D01*
D12*
X140785901Y-55264619D02*
X140385901Y-54788428D01*
X140100187Y-55264619D02*
X140100187Y-54264619D01*
X140100187Y-54264619D02*
X140557330Y-54264619D01*
X140557330Y-54264619D02*
X140671615Y-54312238D01*
X140671615Y-54312238D02*
X140728758Y-54359857D01*
X140728758Y-54359857D02*
X140785901Y-54455095D01*
X140785901Y-54455095D02*
X140785901Y-54597952D01*
X140785901Y-54597952D02*
X140728758Y-54693190D01*
X140728758Y-54693190D02*
X140671615Y-54740809D01*
X140671615Y-54740809D02*
X140557330Y-54788428D01*
X140557330Y-54788428D02*
X140100187Y-54788428D01*
X141243044Y-55217000D02*
X141414473Y-55264619D01*
X141414473Y-55264619D02*
X141700187Y-55264619D01*
X141700187Y-55264619D02*
X141814473Y-55217000D01*
X141814473Y-55217000D02*
X141871615Y-55169380D01*
X141871615Y-55169380D02*
X141928758Y-55074142D01*
X141928758Y-55074142D02*
X141928758Y-54978904D01*
X141928758Y-54978904D02*
X141871615Y-54883666D01*
X141871615Y-54883666D02*
X141814473Y-54836047D01*
X141814473Y-54836047D02*
X141700187Y-54788428D01*
X141700187Y-54788428D02*
X141471615Y-54740809D01*
X141471615Y-54740809D02*
X141357330Y-54693190D01*
X141357330Y-54693190D02*
X141300187Y-54645571D01*
X141300187Y-54645571D02*
X141243044Y-54550333D01*
X141243044Y-54550333D02*
X141243044Y-54455095D01*
X141243044Y-54455095D02*
X141300187Y-54359857D01*
X141300187Y-54359857D02*
X141357330Y-54312238D01*
X141357330Y-54312238D02*
X141471615Y-54264619D01*
X141471615Y-54264619D02*
X141757330Y-54264619D01*
X141757330Y-54264619D02*
X141928758Y-54312238D01*
X142271615Y-54264619D02*
X142957330Y-54264619D01*
X142614472Y-55264619D02*
X142614472Y-54264619D01*
X144950187Y-54740809D02*
X145121615Y-54788428D01*
X145121615Y-54788428D02*
X145178758Y-54836047D01*
X145178758Y-54836047D02*
X145235901Y-54931285D01*
X145235901Y-54931285D02*
X145235901Y-55074142D01*
X145235901Y-55074142D02*
X145178758Y-55169380D01*
X145178758Y-55169380D02*
X145121615Y-55217000D01*
X145121615Y-55217000D02*
X145007330Y-55264619D01*
X145007330Y-55264619D02*
X144550187Y-55264619D01*
X144550187Y-55264619D02*
X144550187Y-54264619D01*
X144550187Y-54264619D02*
X144950187Y-54264619D01*
X144950187Y-54264619D02*
X145064473Y-54312238D01*
X145064473Y-54312238D02*
X145121615Y-54359857D01*
X145121615Y-54359857D02*
X145178758Y-54455095D01*
X145178758Y-54455095D02*
X145178758Y-54550333D01*
X145178758Y-54550333D02*
X145121615Y-54645571D01*
X145121615Y-54645571D02*
X145064473Y-54693190D01*
X145064473Y-54693190D02*
X144950187Y-54740809D01*
X144950187Y-54740809D02*
X144550187Y-54740809D01*
X145978758Y-54264619D02*
X146207330Y-54264619D01*
X146207330Y-54264619D02*
X146321615Y-54312238D01*
X146321615Y-54312238D02*
X146435901Y-54407476D01*
X146435901Y-54407476D02*
X146493044Y-54597952D01*
X146493044Y-54597952D02*
X146493044Y-54931285D01*
X146493044Y-54931285D02*
X146435901Y-55121761D01*
X146435901Y-55121761D02*
X146321615Y-55217000D01*
X146321615Y-55217000D02*
X146207330Y-55264619D01*
X146207330Y-55264619D02*
X145978758Y-55264619D01*
X145978758Y-55264619D02*
X145864473Y-55217000D01*
X145864473Y-55217000D02*
X145750187Y-55121761D01*
X145750187Y-55121761D02*
X145693044Y-54931285D01*
X145693044Y-54931285D02*
X145693044Y-54597952D01*
X145693044Y-54597952D02*
X145750187Y-54407476D01*
X145750187Y-54407476D02*
X145864473Y-54312238D01*
X145864473Y-54312238D02*
X145978758Y-54264619D01*
X147235901Y-54264619D02*
X147464473Y-54264619D01*
X147464473Y-54264619D02*
X147578758Y-54312238D01*
X147578758Y-54312238D02*
X147693044Y-54407476D01*
X147693044Y-54407476D02*
X147750187Y-54597952D01*
X147750187Y-54597952D02*
X147750187Y-54931285D01*
X147750187Y-54931285D02*
X147693044Y-55121761D01*
X147693044Y-55121761D02*
X147578758Y-55217000D01*
X147578758Y-55217000D02*
X147464473Y-55264619D01*
X147464473Y-55264619D02*
X147235901Y-55264619D01*
X147235901Y-55264619D02*
X147121616Y-55217000D01*
X147121616Y-55217000D02*
X147007330Y-55121761D01*
X147007330Y-55121761D02*
X146950187Y-54931285D01*
X146950187Y-54931285D02*
X146950187Y-54597952D01*
X146950187Y-54597952D02*
X147007330Y-54407476D01*
X147007330Y-54407476D02*
X147121616Y-54312238D01*
X147121616Y-54312238D02*
X147235901Y-54264619D01*
X148093044Y-54264619D02*
X148778759Y-54264619D01*
X148435901Y-55264619D02*
X148435901Y-54264619D01*
D11*
X141481009Y-63257142D02*
X141528628Y-63114285D01*
X141528628Y-63114285D02*
X141576247Y-63066666D01*
X141576247Y-63066666D02*
X141671485Y-63019047D01*
X141671485Y-63019047D02*
X141814342Y-63019047D01*
X141814342Y-63019047D02*
X141909580Y-63066666D01*
X141909580Y-63066666D02*
X141957200Y-63114285D01*
X141957200Y-63114285D02*
X142004819Y-63209523D01*
X142004819Y-63209523D02*
X142004819Y-63590475D01*
X142004819Y-63590475D02*
X141004819Y-63590475D01*
X141004819Y-63590475D02*
X141004819Y-63257142D01*
X141004819Y-63257142D02*
X141052438Y-63161904D01*
X141052438Y-63161904D02*
X141100057Y-63114285D01*
X141100057Y-63114285D02*
X141195295Y-63066666D01*
X141195295Y-63066666D02*
X141290533Y-63066666D01*
X141290533Y-63066666D02*
X141385771Y-63114285D01*
X141385771Y-63114285D02*
X141433390Y-63161904D01*
X141433390Y-63161904D02*
X141481009Y-63257142D01*
X141481009Y-63257142D02*
X141481009Y-63590475D01*
X141719104Y-62638094D02*
X141719104Y-62161904D01*
X142004819Y-62733332D02*
X141004819Y-62399999D01*
X141004819Y-62399999D02*
X142004819Y-62066666D01*
X141004819Y-61876189D02*
X141004819Y-61304761D01*
X142004819Y-61590475D02*
X141004819Y-61590475D01*
X141623866Y-60971427D02*
X141623866Y-60209523D01*
X142004819Y-60590475D02*
X141242914Y-60590475D01*
X169631009Y-63207142D02*
X169678628Y-63064285D01*
X169678628Y-63064285D02*
X169726247Y-63016666D01*
X169726247Y-63016666D02*
X169821485Y-62969047D01*
X169821485Y-62969047D02*
X169964342Y-62969047D01*
X169964342Y-62969047D02*
X170059580Y-63016666D01*
X170059580Y-63016666D02*
X170107200Y-63064285D01*
X170107200Y-63064285D02*
X170154819Y-63159523D01*
X170154819Y-63159523D02*
X170154819Y-63540475D01*
X170154819Y-63540475D02*
X169154819Y-63540475D01*
X169154819Y-63540475D02*
X169154819Y-63207142D01*
X169154819Y-63207142D02*
X169202438Y-63111904D01*
X169202438Y-63111904D02*
X169250057Y-63064285D01*
X169250057Y-63064285D02*
X169345295Y-63016666D01*
X169345295Y-63016666D02*
X169440533Y-63016666D01*
X169440533Y-63016666D02*
X169535771Y-63064285D01*
X169535771Y-63064285D02*
X169583390Y-63111904D01*
X169583390Y-63111904D02*
X169631009Y-63207142D01*
X169631009Y-63207142D02*
X169631009Y-63540475D01*
X169869104Y-62588094D02*
X169869104Y-62111904D01*
X170154819Y-62683332D02*
X169154819Y-62349999D01*
X169154819Y-62349999D02*
X170154819Y-62016666D01*
X169154819Y-61826189D02*
X169154819Y-61254761D01*
X170154819Y-61540475D02*
X169154819Y-61540475D01*
X169773866Y-60921427D02*
X169773866Y-60159523D01*
X159033333Y-57954819D02*
X158700000Y-57478628D01*
X158461905Y-57954819D02*
X158461905Y-56954819D01*
X158461905Y-56954819D02*
X158842857Y-56954819D01*
X158842857Y-56954819D02*
X158938095Y-57002438D01*
X158938095Y-57002438D02*
X158985714Y-57050057D01*
X158985714Y-57050057D02*
X159033333Y-57145295D01*
X159033333Y-57145295D02*
X159033333Y-57288152D01*
X159033333Y-57288152D02*
X158985714Y-57383390D01*
X158985714Y-57383390D02*
X158938095Y-57431009D01*
X158938095Y-57431009D02*
X158842857Y-57478628D01*
X158842857Y-57478628D02*
X158461905Y-57478628D01*
X159890476Y-57288152D02*
X159890476Y-57954819D01*
X159652381Y-56907200D02*
X159414286Y-57621485D01*
X159414286Y-57621485D02*
X160033333Y-57621485D01*
X165733333Y-61654819D02*
X165400000Y-61178628D01*
X165161905Y-61654819D02*
X165161905Y-60654819D01*
X165161905Y-60654819D02*
X165542857Y-60654819D01*
X165542857Y-60654819D02*
X165638095Y-60702438D01*
X165638095Y-60702438D02*
X165685714Y-60750057D01*
X165685714Y-60750057D02*
X165733333Y-60845295D01*
X165733333Y-60845295D02*
X165733333Y-60988152D01*
X165733333Y-60988152D02*
X165685714Y-61083390D01*
X165685714Y-61083390D02*
X165638095Y-61131009D01*
X165638095Y-61131009D02*
X165542857Y-61178628D01*
X165542857Y-61178628D02*
X165161905Y-61178628D01*
X166114286Y-60750057D02*
X166161905Y-60702438D01*
X166161905Y-60702438D02*
X166257143Y-60654819D01*
X166257143Y-60654819D02*
X166495238Y-60654819D01*
X166495238Y-60654819D02*
X166590476Y-60702438D01*
X166590476Y-60702438D02*
X166638095Y-60750057D01*
X166638095Y-60750057D02*
X166685714Y-60845295D01*
X166685714Y-60845295D02*
X166685714Y-60940533D01*
X166685714Y-60940533D02*
X166638095Y-61083390D01*
X166638095Y-61083390D02*
X166066667Y-61654819D01*
X166066667Y-61654819D02*
X166685714Y-61654819D01*
X161683333Y-62754819D02*
X161350000Y-62278628D01*
X161111905Y-62754819D02*
X161111905Y-61754819D01*
X161111905Y-61754819D02*
X161492857Y-61754819D01*
X161492857Y-61754819D02*
X161588095Y-61802438D01*
X161588095Y-61802438D02*
X161635714Y-61850057D01*
X161635714Y-61850057D02*
X161683333Y-61945295D01*
X161683333Y-61945295D02*
X161683333Y-62088152D01*
X161683333Y-62088152D02*
X161635714Y-62183390D01*
X161635714Y-62183390D02*
X161588095Y-62231009D01*
X161588095Y-62231009D02*
X161492857Y-62278628D01*
X161492857Y-62278628D02*
X161111905Y-62278628D01*
X162016667Y-61754819D02*
X162635714Y-61754819D01*
X162635714Y-61754819D02*
X162302381Y-62135771D01*
X162302381Y-62135771D02*
X162445238Y-62135771D01*
X162445238Y-62135771D02*
X162540476Y-62183390D01*
X162540476Y-62183390D02*
X162588095Y-62231009D01*
X162588095Y-62231009D02*
X162635714Y-62326247D01*
X162635714Y-62326247D02*
X162635714Y-62564342D01*
X162635714Y-62564342D02*
X162588095Y-62659580D01*
X162588095Y-62659580D02*
X162540476Y-62707200D01*
X162540476Y-62707200D02*
X162445238Y-62754819D01*
X162445238Y-62754819D02*
X162159524Y-62754819D01*
X162159524Y-62754819D02*
X162064286Y-62707200D01*
X162064286Y-62707200D02*
X162016667Y-62659580D01*
X167188095Y-63104819D02*
X167188095Y-63914342D01*
X167188095Y-63914342D02*
X167235714Y-64009580D01*
X167235714Y-64009580D02*
X167283333Y-64057200D01*
X167283333Y-64057200D02*
X167378571Y-64104819D01*
X167378571Y-64104819D02*
X167569047Y-64104819D01*
X167569047Y-64104819D02*
X167664285Y-64057200D01*
X167664285Y-64057200D02*
X167711904Y-64009580D01*
X167711904Y-64009580D02*
X167759523Y-63914342D01*
X167759523Y-63914342D02*
X167759523Y-63104819D01*
X168759523Y-64104819D02*
X168188095Y-64104819D01*
X168473809Y-64104819D02*
X168473809Y-63104819D01*
X168473809Y-63104819D02*
X168378571Y-63247676D01*
X168378571Y-63247676D02*
X168283333Y-63342914D01*
X168283333Y-63342914D02*
X168188095Y-63390533D01*
D13*
X170876667Y-52894318D02*
X170876667Y-53801461D01*
X170876667Y-53801461D02*
X170816190Y-53982889D01*
X170816190Y-53982889D02*
X170695238Y-54103842D01*
X170695238Y-54103842D02*
X170513809Y-54164318D01*
X170513809Y-54164318D02*
X170392857Y-54164318D01*
X172146667Y-54164318D02*
X171420952Y-54164318D01*
X171783809Y-54164318D02*
X171783809Y-52894318D01*
X171783809Y-52894318D02*
X171662857Y-53075746D01*
X171662857Y-53075746D02*
X171541905Y-53196699D01*
X171541905Y-53196699D02*
X171420952Y-53257175D01*
D11*
X172388095Y-67204819D02*
X172388095Y-68014342D01*
X172388095Y-68014342D02*
X172435714Y-68109580D01*
X172435714Y-68109580D02*
X172483333Y-68157200D01*
X172483333Y-68157200D02*
X172578571Y-68204819D01*
X172578571Y-68204819D02*
X172769047Y-68204819D01*
X172769047Y-68204819D02*
X172864285Y-68157200D01*
X172864285Y-68157200D02*
X172911904Y-68109580D01*
X172911904Y-68109580D02*
X172959523Y-68014342D01*
X172959523Y-68014342D02*
X172959523Y-67204819D01*
X173388095Y-67300057D02*
X173435714Y-67252438D01*
X173435714Y-67252438D02*
X173530952Y-67204819D01*
X173530952Y-67204819D02*
X173769047Y-67204819D01*
X173769047Y-67204819D02*
X173864285Y-67252438D01*
X173864285Y-67252438D02*
X173911904Y-67300057D01*
X173911904Y-67300057D02*
X173959523Y-67395295D01*
X173959523Y-67395295D02*
X173959523Y-67490533D01*
X173959523Y-67490533D02*
X173911904Y-67633390D01*
X173911904Y-67633390D02*
X173340476Y-68204819D01*
X173340476Y-68204819D02*
X173959523Y-68204819D01*
D14*
X152696896Y-67377798D02*
X152255662Y-67377798D01*
X152476279Y-67377798D02*
X152476279Y-66605638D01*
X152476279Y-66605638D02*
X152402740Y-66715947D01*
X152402740Y-66715947D02*
X152329201Y-66789486D01*
X152329201Y-66789486D02*
X152255662Y-66826255D01*
X152335062Y-67949177D02*
X152371831Y-67912408D01*
X152371831Y-67912408D02*
X152445370Y-67875638D01*
X152445370Y-67875638D02*
X152629218Y-67875638D01*
X152629218Y-67875638D02*
X152702757Y-67912408D01*
X152702757Y-67912408D02*
X152739526Y-67949177D01*
X152739526Y-67949177D02*
X152776296Y-68022716D01*
X152776296Y-68022716D02*
X152776296Y-68096255D01*
X152776296Y-68096255D02*
X152739526Y-68206564D01*
X152739526Y-68206564D02*
X152298292Y-68647798D01*
X152298292Y-68647798D02*
X152776296Y-68647798D01*
D11*
X153254819Y-59166666D02*
X152778628Y-59499999D01*
X153254819Y-59738094D02*
X152254819Y-59738094D01*
X152254819Y-59738094D02*
X152254819Y-59357142D01*
X152254819Y-59357142D02*
X152302438Y-59261904D01*
X152302438Y-59261904D02*
X152350057Y-59214285D01*
X152350057Y-59214285D02*
X152445295Y-59166666D01*
X152445295Y-59166666D02*
X152588152Y-59166666D01*
X152588152Y-59166666D02*
X152683390Y-59214285D01*
X152683390Y-59214285D02*
X152731009Y-59261904D01*
X152731009Y-59261904D02*
X152778628Y-59357142D01*
X152778628Y-59357142D02*
X152778628Y-59738094D01*
X152254819Y-58261904D02*
X152254819Y-58738094D01*
X152254819Y-58738094D02*
X152731009Y-58785713D01*
X152731009Y-58785713D02*
X152683390Y-58738094D01*
X152683390Y-58738094D02*
X152635771Y-58642856D01*
X152635771Y-58642856D02*
X152635771Y-58404761D01*
X152635771Y-58404761D02*
X152683390Y-58309523D01*
X152683390Y-58309523D02*
X152731009Y-58261904D01*
X152731009Y-58261904D02*
X152826247Y-58214285D01*
X152826247Y-58214285D02*
X153064342Y-58214285D01*
X153064342Y-58214285D02*
X153159580Y-58261904D01*
X153159580Y-58261904D02*
X153207200Y-58309523D01*
X153207200Y-58309523D02*
X153254819Y-58404761D01*
X153254819Y-58404761D02*
X153254819Y-58642856D01*
X153254819Y-58642856D02*
X153207200Y-58738094D01*
X153207200Y-58738094D02*
X153159580Y-58785713D01*
X147609580Y-63766666D02*
X147657200Y-63814285D01*
X147657200Y-63814285D02*
X147704819Y-63957142D01*
X147704819Y-63957142D02*
X147704819Y-64052380D01*
X147704819Y-64052380D02*
X147657200Y-64195237D01*
X147657200Y-64195237D02*
X147561961Y-64290475D01*
X147561961Y-64290475D02*
X147466723Y-64338094D01*
X147466723Y-64338094D02*
X147276247Y-64385713D01*
X147276247Y-64385713D02*
X147133390Y-64385713D01*
X147133390Y-64385713D02*
X146942914Y-64338094D01*
X146942914Y-64338094D02*
X146847676Y-64290475D01*
X146847676Y-64290475D02*
X146752438Y-64195237D01*
X146752438Y-64195237D02*
X146704819Y-64052380D01*
X146704819Y-64052380D02*
X146704819Y-63957142D01*
X146704819Y-63957142D02*
X146752438Y-63814285D01*
X146752438Y-63814285D02*
X146800057Y-63766666D01*
X147704819Y-62814285D02*
X147704819Y-63385713D01*
X147704819Y-63099999D02*
X146704819Y-63099999D01*
X146704819Y-63099999D02*
X146847676Y-63195237D01*
X146847676Y-63195237D02*
X146942914Y-63290475D01*
X146942914Y-63290475D02*
X146990533Y-63385713D01*
X147961905Y-61374819D02*
X148580952Y-61374819D01*
X148580952Y-61374819D02*
X148247619Y-61755771D01*
X148247619Y-61755771D02*
X148390476Y-61755771D01*
X148390476Y-61755771D02*
X148485714Y-61803390D01*
X148485714Y-61803390D02*
X148533333Y-61851009D01*
X148533333Y-61851009D02*
X148580952Y-61946247D01*
X148580952Y-61946247D02*
X148580952Y-62184342D01*
X148580952Y-62184342D02*
X148533333Y-62279580D01*
X148533333Y-62279580D02*
X148485714Y-62327200D01*
X148485714Y-62327200D02*
X148390476Y-62374819D01*
X148390476Y-62374819D02*
X148104762Y-62374819D01*
X148104762Y-62374819D02*
X148009524Y-62327200D01*
X148009524Y-62327200D02*
X147961905Y-62279580D01*
X148914286Y-61374819D02*
X149533333Y-61374819D01*
X149533333Y-61374819D02*
X149200000Y-61755771D01*
X149200000Y-61755771D02*
X149342857Y-61755771D01*
X149342857Y-61755771D02*
X149438095Y-61803390D01*
X149438095Y-61803390D02*
X149485714Y-61851009D01*
X149485714Y-61851009D02*
X149533333Y-61946247D01*
X149533333Y-61946247D02*
X149533333Y-62184342D01*
X149533333Y-62184342D02*
X149485714Y-62279580D01*
X149485714Y-62279580D02*
X149438095Y-62327200D01*
X149438095Y-62327200D02*
X149342857Y-62374819D01*
X149342857Y-62374819D02*
X149057143Y-62374819D01*
X149057143Y-62374819D02*
X148961905Y-62327200D01*
X148961905Y-62327200D02*
X148914286Y-62279580D01*
X150152381Y-61374819D02*
X150247619Y-61374819D01*
X150247619Y-61374819D02*
X150342857Y-61422438D01*
X150342857Y-61422438D02*
X150390476Y-61470057D01*
X150390476Y-61470057D02*
X150438095Y-61565295D01*
X150438095Y-61565295D02*
X150485714Y-61755771D01*
X150485714Y-61755771D02*
X150485714Y-61993866D01*
X150485714Y-61993866D02*
X150438095Y-62184342D01*
X150438095Y-62184342D02*
X150390476Y-62279580D01*
X150390476Y-62279580D02*
X150342857Y-62327200D01*
X150342857Y-62327200D02*
X150247619Y-62374819D01*
X150247619Y-62374819D02*
X150152381Y-62374819D01*
X150152381Y-62374819D02*
X150057143Y-62327200D01*
X150057143Y-62327200D02*
X150009524Y-62279580D01*
X150009524Y-62279580D02*
X149961905Y-62184342D01*
X149961905Y-62184342D02*
X149914286Y-61993866D01*
X149914286Y-61993866D02*
X149914286Y-61755771D01*
X149914286Y-61755771D02*
X149961905Y-61565295D01*
X149961905Y-61565295D02*
X150009524Y-61470057D01*
X150009524Y-61470057D02*
X150057143Y-61422438D01*
X150057143Y-61422438D02*
X150152381Y-61374819D01*
X150914286Y-61708152D02*
X150914286Y-62374819D01*
X150914286Y-61803390D02*
X150961905Y-61755771D01*
X150961905Y-61755771D02*
X151057143Y-61708152D01*
X151057143Y-61708152D02*
X151200000Y-61708152D01*
X151200000Y-61708152D02*
X151295238Y-61755771D01*
X151295238Y-61755771D02*
X151342857Y-61851009D01*
X151342857Y-61851009D02*
X151342857Y-62374819D01*
X141904819Y-71066666D02*
X141428628Y-71399999D01*
X141904819Y-71638094D02*
X140904819Y-71638094D01*
X140904819Y-71638094D02*
X140904819Y-71257142D01*
X140904819Y-71257142D02*
X140952438Y-71161904D01*
X140952438Y-71161904D02*
X141000057Y-71114285D01*
X141000057Y-71114285D02*
X141095295Y-71066666D01*
X141095295Y-71066666D02*
X141238152Y-71066666D01*
X141238152Y-71066666D02*
X141333390Y-71114285D01*
X141333390Y-71114285D02*
X141381009Y-71161904D01*
X141381009Y-71161904D02*
X141428628Y-71257142D01*
X141428628Y-71257142D02*
X141428628Y-71638094D01*
X141904819Y-70114285D02*
X141904819Y-70685713D01*
X141904819Y-70399999D02*
X140904819Y-70399999D01*
X140904819Y-70399999D02*
X141047676Y-70495237D01*
X141047676Y-70495237D02*
X141142914Y-70590475D01*
X141142914Y-70590475D02*
X141190533Y-70685713D01*
X152788095Y-59954819D02*
X152788095Y-60764342D01*
X152788095Y-60764342D02*
X152835714Y-60859580D01*
X152835714Y-60859580D02*
X152883333Y-60907200D01*
X152883333Y-60907200D02*
X152978571Y-60954819D01*
X152978571Y-60954819D02*
X153169047Y-60954819D01*
X153169047Y-60954819D02*
X153264285Y-60907200D01*
X153264285Y-60907200D02*
X153311904Y-60859580D01*
X153311904Y-60859580D02*
X153359523Y-60764342D01*
X153359523Y-60764342D02*
X153359523Y-59954819D01*
X153740476Y-59954819D02*
X154359523Y-59954819D01*
X154359523Y-59954819D02*
X154026190Y-60335771D01*
X154026190Y-60335771D02*
X154169047Y-60335771D01*
X154169047Y-60335771D02*
X154264285Y-60383390D01*
X154264285Y-60383390D02*
X154311904Y-60431009D01*
X154311904Y-60431009D02*
X154359523Y-60526247D01*
X154359523Y-60526247D02*
X154359523Y-60764342D01*
X154359523Y-60764342D02*
X154311904Y-60859580D01*
X154311904Y-60859580D02*
X154264285Y-60907200D01*
X154264285Y-60907200D02*
X154169047Y-60954819D01*
X154169047Y-60954819D02*
X153883333Y-60954819D01*
X153883333Y-60954819D02*
X153788095Y-60907200D01*
X153788095Y-60907200D02*
X153740476Y-60859580D01*
X156904819Y-69564285D02*
X155904819Y-69564285D01*
X155904819Y-69564285D02*
X156619104Y-69230952D01*
X156619104Y-69230952D02*
X155904819Y-68897619D01*
X155904819Y-68897619D02*
X156904819Y-68897619D01*
X156809580Y-67850000D02*
X156857200Y-67897619D01*
X156857200Y-67897619D02*
X156904819Y-68040476D01*
X156904819Y-68040476D02*
X156904819Y-68135714D01*
X156904819Y-68135714D02*
X156857200Y-68278571D01*
X156857200Y-68278571D02*
X156761961Y-68373809D01*
X156761961Y-68373809D02*
X156666723Y-68421428D01*
X156666723Y-68421428D02*
X156476247Y-68469047D01*
X156476247Y-68469047D02*
X156333390Y-68469047D01*
X156333390Y-68469047D02*
X156142914Y-68421428D01*
X156142914Y-68421428D02*
X156047676Y-68373809D01*
X156047676Y-68373809D02*
X155952438Y-68278571D01*
X155952438Y-68278571D02*
X155904819Y-68135714D01*
X155904819Y-68135714D02*
X155904819Y-68040476D01*
X155904819Y-68040476D02*
X155952438Y-67897619D01*
X155952438Y-67897619D02*
X156000057Y-67850000D01*
X156904819Y-67421428D02*
X155904819Y-67421428D01*
X155904819Y-67421428D02*
X155904819Y-67040476D01*
X155904819Y-67040476D02*
X155952438Y-66945238D01*
X155952438Y-66945238D02*
X156000057Y-66897619D01*
X156000057Y-66897619D02*
X156095295Y-66850000D01*
X156095295Y-66850000D02*
X156238152Y-66850000D01*
X156238152Y-66850000D02*
X156333390Y-66897619D01*
X156333390Y-66897619D02*
X156381009Y-66945238D01*
X156381009Y-66945238D02*
X156428628Y-67040476D01*
X156428628Y-67040476D02*
X156428628Y-67421428D01*
X156904819Y-65897619D02*
X156904819Y-66469047D01*
X156904819Y-66183333D02*
X155904819Y-66183333D01*
X155904819Y-66183333D02*
X156047676Y-66278571D01*
X156047676Y-66278571D02*
X156142914Y-66373809D01*
X156142914Y-66373809D02*
X156190533Y-66469047D01*
X155904819Y-65564285D02*
X155904819Y-64945238D01*
X155904819Y-64945238D02*
X156285771Y-65278571D01*
X156285771Y-65278571D02*
X156285771Y-65135714D01*
X156285771Y-65135714D02*
X156333390Y-65040476D01*
X156333390Y-65040476D02*
X156381009Y-64992857D01*
X156381009Y-64992857D02*
X156476247Y-64945238D01*
X156476247Y-64945238D02*
X156714342Y-64945238D01*
X156714342Y-64945238D02*
X156809580Y-64992857D01*
X156809580Y-64992857D02*
X156857200Y-65040476D01*
X156857200Y-65040476D02*
X156904819Y-65135714D01*
X156904819Y-65135714D02*
X156904819Y-65421428D01*
X156904819Y-65421428D02*
X156857200Y-65516666D01*
X156857200Y-65516666D02*
X156809580Y-65564285D01*
X155904819Y-64326190D02*
X155904819Y-64230952D01*
X155904819Y-64230952D02*
X155952438Y-64135714D01*
X155952438Y-64135714D02*
X156000057Y-64088095D01*
X156000057Y-64088095D02*
X156095295Y-64040476D01*
X156095295Y-64040476D02*
X156285771Y-63992857D01*
X156285771Y-63992857D02*
X156523866Y-63992857D01*
X156523866Y-63992857D02*
X156714342Y-64040476D01*
X156714342Y-64040476D02*
X156809580Y-64088095D01*
X156809580Y-64088095D02*
X156857200Y-64135714D01*
X156857200Y-64135714D02*
X156904819Y-64230952D01*
X156904819Y-64230952D02*
X156904819Y-64326190D01*
X156904819Y-64326190D02*
X156857200Y-64421428D01*
X156857200Y-64421428D02*
X156809580Y-64469047D01*
X156809580Y-64469047D02*
X156714342Y-64516666D01*
X156714342Y-64516666D02*
X156523866Y-64564285D01*
X156523866Y-64564285D02*
X156285771Y-64564285D01*
X156285771Y-64564285D02*
X156095295Y-64516666D01*
X156095295Y-64516666D02*
X156000057Y-64469047D01*
X156000057Y-64469047D02*
X155952438Y-64421428D01*
X155952438Y-64421428D02*
X155904819Y-64326190D01*
X155904819Y-63707142D02*
X155904819Y-63135714D01*
X156904819Y-63421428D02*
X155904819Y-63421428D01*
X156523866Y-62802380D02*
X156523866Y-62040476D01*
X155904819Y-61659523D02*
X155904819Y-61040476D01*
X155904819Y-61040476D02*
X156285771Y-61373809D01*
X156285771Y-61373809D02*
X156285771Y-61230952D01*
X156285771Y-61230952D02*
X156333390Y-61135714D01*
X156333390Y-61135714D02*
X156381009Y-61088095D01*
X156381009Y-61088095D02*
X156476247Y-61040476D01*
X156476247Y-61040476D02*
X156714342Y-61040476D01*
X156714342Y-61040476D02*
X156809580Y-61088095D01*
X156809580Y-61088095D02*
X156857200Y-61135714D01*
X156857200Y-61135714D02*
X156904819Y-61230952D01*
X156904819Y-61230952D02*
X156904819Y-61516666D01*
X156904819Y-61516666D02*
X156857200Y-61611904D01*
X156857200Y-61611904D02*
X156809580Y-61659523D01*
X155904819Y-60421428D02*
X155904819Y-60326190D01*
X155904819Y-60326190D02*
X155952438Y-60230952D01*
X155952438Y-60230952D02*
X156000057Y-60183333D01*
X156000057Y-60183333D02*
X156095295Y-60135714D01*
X156095295Y-60135714D02*
X156285771Y-60088095D01*
X156285771Y-60088095D02*
X156523866Y-60088095D01*
X156523866Y-60088095D02*
X156714342Y-60135714D01*
X156714342Y-60135714D02*
X156809580Y-60183333D01*
X156809580Y-60183333D02*
X156857200Y-60230952D01*
X156857200Y-60230952D02*
X156904819Y-60326190D01*
X156904819Y-60326190D02*
X156904819Y-60421428D01*
X156904819Y-60421428D02*
X156857200Y-60516666D01*
X156857200Y-60516666D02*
X156809580Y-60564285D01*
X156809580Y-60564285D02*
X156714342Y-60611904D01*
X156714342Y-60611904D02*
X156523866Y-60659523D01*
X156523866Y-60659523D02*
X156285771Y-60659523D01*
X156285771Y-60659523D02*
X156095295Y-60611904D01*
X156095295Y-60611904D02*
X156000057Y-60564285D01*
X156000057Y-60564285D02*
X155952438Y-60516666D01*
X155952438Y-60516666D02*
X155904819Y-60421428D01*
X155904819Y-59469047D02*
X155904819Y-59373809D01*
X155904819Y-59373809D02*
X155952438Y-59278571D01*
X155952438Y-59278571D02*
X156000057Y-59230952D01*
X156000057Y-59230952D02*
X156095295Y-59183333D01*
X156095295Y-59183333D02*
X156285771Y-59135714D01*
X156285771Y-59135714D02*
X156523866Y-59135714D01*
X156523866Y-59135714D02*
X156714342Y-59183333D01*
X156714342Y-59183333D02*
X156809580Y-59230952D01*
X156809580Y-59230952D02*
X156857200Y-59278571D01*
X156857200Y-59278571D02*
X156904819Y-59373809D01*
X156904819Y-59373809D02*
X156904819Y-59469047D01*
X156904819Y-59469047D02*
X156857200Y-59564285D01*
X156857200Y-59564285D02*
X156809580Y-59611904D01*
X156809580Y-59611904D02*
X156714342Y-59659523D01*
X156714342Y-59659523D02*
X156523866Y-59707142D01*
X156523866Y-59707142D02*
X156285771Y-59707142D01*
X156285771Y-59707142D02*
X156095295Y-59659523D01*
X156095295Y-59659523D02*
X156000057Y-59611904D01*
X156000057Y-59611904D02*
X155952438Y-59564285D01*
X155952438Y-59564285D02*
X155904819Y-59469047D01*
X156904819Y-58707142D02*
X155904819Y-58707142D01*
X155857200Y-57516667D02*
X157142914Y-58373809D01*
X155904819Y-57326190D02*
X155904819Y-56754762D01*
X156904819Y-57040476D02*
X155904819Y-57040476D01*
X155904819Y-56564285D02*
X155904819Y-55992857D01*
X156904819Y-56278571D02*
X155904819Y-56278571D01*
D15*
%TO.C,R10*%
X154822936Y-56515000D02*
X155277064Y-56515000D01*
X154822936Y-57985000D02*
X155277064Y-57985000D01*
%TO.C,R9*%
X141585000Y-67977064D02*
X141585000Y-67522936D01*
X140115000Y-67977064D02*
X140115000Y-67522936D01*
%TO.C,R8*%
X154872936Y-53265000D02*
X155327064Y-53265000D01*
X154872936Y-54735000D02*
X155327064Y-54735000D01*
%TO.C,R7*%
X141172936Y-57785000D02*
X141627064Y-57785000D01*
X141172936Y-56315000D02*
X141627064Y-56315000D01*
%TO.C,R6*%
X139135000Y-56172936D02*
X139135000Y-56627064D01*
X137665000Y-56172936D02*
X137665000Y-56627064D01*
%TO.C,J2*%
X149140000Y-51370000D02*
X149140000Y-52700000D01*
X147810000Y-51370000D02*
X149140000Y-51370000D01*
X146540000Y-51370000D02*
X136320000Y-51370000D01*
X146540000Y-51370000D02*
X146540000Y-54030000D01*
X136320000Y-51370000D02*
X136320000Y-54030000D01*
X146540000Y-54030000D02*
X136320000Y-54030000D01*
%TO.C,R4*%
X158972936Y-58415000D02*
X159427064Y-58415000D01*
X158972936Y-59885000D02*
X159427064Y-59885000D01*
%TO.C,R2*%
X165672936Y-62115000D02*
X166127064Y-62115000D01*
X165672936Y-63585000D02*
X166127064Y-63585000D01*
%TO.C,R3*%
X161622936Y-63215000D02*
X162077064Y-63215000D01*
X161622936Y-64685000D02*
X162077064Y-64685000D01*
%TO.C,U1*%
X165640000Y-64490000D02*
X165640000Y-64705000D01*
X165640000Y-67310000D02*
X165640000Y-67095000D01*
X167950000Y-64490000D02*
X165640000Y-64490000D01*
X167950000Y-64490000D02*
X170260000Y-64490000D01*
X167950000Y-67310000D02*
X165640000Y-67310000D01*
X167950000Y-67310000D02*
X170260000Y-67310000D01*
X170260000Y-64490000D02*
X170260000Y-64705000D01*
X170260000Y-67310000D02*
X170260000Y-67095000D01*
X164850000Y-64705000D02*
X164610000Y-64375000D01*
X165090000Y-64375000D01*
X164850000Y-64705000D01*
G36*
X164850000Y-64705000D02*
G01*
X164610000Y-64375000D01*
X165090000Y-64375000D01*
X164850000Y-64705000D01*
G37*
D10*
%TO.C,J1*%
X173450000Y-51800000D02*
X173450000Y-58100000D01*
X162150000Y-58100000D02*
X162150000Y-51800000D01*
X162150000Y-51800000D02*
X173450000Y-51800000D01*
D16*
X174200000Y-53590000D02*
G75*
G03*
X174100000Y-53590000I-50000J0D01*
G01*
X174100000Y-53590000D02*
G75*
G03*
X174200000Y-53590000I50000J0D01*
G01*
D15*
%TO.C,U2*%
X169440000Y-68440000D02*
X169440000Y-68655000D01*
X169440000Y-71260000D02*
X169440000Y-71045000D01*
X171750000Y-68440000D02*
X169440000Y-68440000D01*
X171750000Y-68440000D02*
X174060000Y-68440000D01*
X171750000Y-71260000D02*
X169440000Y-71260000D01*
X171750000Y-71260000D02*
X174060000Y-71260000D01*
X174060000Y-68440000D02*
X174060000Y-68655000D01*
X174060000Y-71260000D02*
X174060000Y-71045000D01*
X168650000Y-68655000D02*
X168410000Y-68325000D01*
X168890000Y-68325000D01*
X168650000Y-68655000D01*
G36*
X168650000Y-68655000D02*
G01*
X168410000Y-68325000D01*
X168890000Y-68325000D01*
X168650000Y-68655000D01*
G37*
%TO.C,TP1*%
X163040800Y-68351400D02*
G75*
G03*
X159640800Y-68351400I-1700000J0D01*
G01*
X159640800Y-68351400D02*
G75*
G03*
X163040800Y-68351400I1700000J0D01*
G01*
D17*
%TO.C,X1*%
X155419000Y-71133000D02*
X155419000Y-65883000D01*
X155419000Y-65883000D02*
X152254000Y-65883000D01*
X154394000Y-70258000D02*
X154394000Y-66758000D01*
X154394000Y-66758000D02*
X152234000Y-66758000D01*
X152254000Y-70258000D02*
X154394000Y-70258000D01*
X152229000Y-71133000D02*
X155419000Y-71133000D01*
X145454000Y-66758000D02*
X143294000Y-66758000D01*
X145454000Y-65883000D02*
X142269000Y-65883000D01*
X143294000Y-70258000D02*
X145454000Y-70258000D01*
X143294000Y-66758000D02*
X143294000Y-70258000D01*
X142269000Y-71133000D02*
X145459000Y-71133000D01*
X142269000Y-65883000D02*
X142269000Y-71133000D01*
G36*
X152657200Y-65879100D02*
G01*
X152022200Y-65561600D01*
X152657200Y-65244100D01*
X152657200Y-65879100D01*
G37*
D15*
%TO.C,TP2*%
X159764200Y-70053200D02*
G75*
G03*
X156364200Y-70053200I-1700000J0D01*
G01*
X156364200Y-70053200D02*
G75*
G03*
X159764200Y-70053200I1700000J0D01*
G01*
%TO.C,R5*%
X150022936Y-59785000D02*
X150477064Y-59785000D01*
X150022936Y-58315000D02*
X150477064Y-58315000D01*
%TO.C,C1*%
X149961252Y-64335000D02*
X149438748Y-64335000D01*
X149961252Y-62865000D02*
X149438748Y-62865000D01*
%TO.C,R1*%
X138722936Y-70265000D02*
X139177064Y-70265000D01*
X138722936Y-71735000D02*
X139177064Y-71735000D01*
%TO.C,U3*%
X152387500Y-61390000D02*
X152147500Y-61060000D01*
X152627500Y-61060000D01*
X152387500Y-61390000D01*
G36*
X152387500Y-61390000D02*
G01*
X152147500Y-61060000D01*
X152627500Y-61060000D01*
X152387500Y-61390000D01*
G37*
X153550000Y-64460000D02*
X154200000Y-64460000D01*
X153550000Y-64460000D02*
X152900000Y-64460000D01*
X153550000Y-61340000D02*
X154200000Y-61340000D01*
X153550000Y-61340000D02*
X152900000Y-61340000D01*
%TD*%
M02*
