<?xml version="1.0" standalone="no"?>
 <!DOCTYPE svg PUBLIC "-//W3C//DTD SVG 1.1//EN" 
 "http://www.w3.org/Graphics/SVG/1.1/DTD/svg11.dtd"> 
<svg
  xmlns:svg="http://www.w3.org/2000/svg"
  xmlns="http://www.w3.org/2000/svg"
  xmlns:xlink="http://www.w3.org/1999/xlink"
  version="1.1"
  width="297.0022mm" height="210.0072mm" viewBox="0.0000 0.0000 297.0022 210.0072">
<title>SVG Image created as ParaMETEO-reset-adapter-PTH-drl_map.svg date 2025/11/28 20:59:15 </title>
  <desc>Image generated by PCBNEW </desc>
<g style="fill:#000000; fill-opacity:1.0000;stroke:#000000; stroke-opacity:1.0000;
stroke-linecap:round; stroke-linejoin:round;"
 transform="translate(0 0) scale(1 1)">
</g>
<g style="fill:#000000; fill-opacity:0.0; 
stroke:#000000; stroke-width:0.0000; stroke-opacity:1; 
stroke-linecap:round; stroke-linejoin:round;">
</g>
<g style="fill:#000000; fill-opacity:0.0; 
stroke:#000000; stroke-width:0.1500; stroke-opacity:1; 
stroke-linecap:round; stroke-linejoin:round;">
<path d="M87.9821 95.2372
L209.1401 95.2372
" />
<path d="M209.1401 95.2372
L209.1401 33.5152
" />
<path d="M87.8621 30.7672
L87.9821 95.2372
" />
<path d="M209.1401 33.5152
L209.1371 30.7672
" />
<path d="M209.1371 30.7672
L87.8621 30.7672
" />
</g>
<g style="fill:#000000; fill-opacity:0.0; 
stroke:#000000; stroke-width:0.6000; stroke-opacity:1; 
stroke-linecap:round; stroke-linejoin:round;">
</g>
<g style="fill:#000000; fill-opacity:0.0; 
stroke:#000000; stroke-width:0.3000; stroke-opacity:1; 
stroke-linecap:round; stroke-linejoin:round;">
<path d="M109.3406 63.6457
L110.4836 64.7887
" />
<path d="M110.4836 63.6457
L109.3406 64.7887
" />
<path d="M121.9406 52.9957
L123.0836 54.1387
" />
<path d="M123.0836 52.9957
L121.9406 54.1387
" />
<path d="M139.1906 57.4957
L140.3336 58.6387
" />
<path d="M140.3336 57.4957
L139.1906 58.6387
" />
<path d="M151.1906 67.9957
L152.3336 69.1387
" />
<path d="M152.3336 67.9957
L151.1906 69.1387
" />
<path d="M158.8406 35.1457
L159.9836 36.2887
" />
<path d="M159.9836 35.1457
L158.8406 36.2887
" />
<path d="M172.6406 55.5457
L173.7836 56.6887
" />
<path d="M173.7836 55.5457
L172.6406 56.6887
" />
<path d="M173.3428 84.8434
L174.4858 85.9864
" />
<path d="M174.4858 84.8434
L173.3428 85.9864
" />
<path d="M174.0281 80.3696
L175.1711 81.5126
" />
<path d="M175.1711 80.3696
L174.0281 81.5126
" />
<path d="M178.3406 58.0207
L179.4836 59.1637
" />
<path d="M179.4836 58.0207
L178.3406 59.1637
" />
<path d="M187.6406 77.8957
L188.7836 79.0387
" />
<path d="M188.7836 77.8957
L187.6406 79.0387
" />
<circle cx="108.2621" cy="90.7672" r="0.9525" /> 
<circle cx="111.8621" cy="82.5172" r="0.9525" /> 
<circle cx="119.2121" cy="57.6172" r="0.9525" /> 
<circle cx="122.2121" cy="67.0672" r="0.9525" /> 
<circle cx="127.9121" cy="47.8672" r="0.9525" /> 
<circle cx="153.8621" cy="47.8672" r="0.9525" /> 
<circle cx="161.0621" cy="43.9672" r="0.9525" /> 
<circle cx="194.3621" cy="86.5672" r="0.9525" /> 
<circle cx="199.0121" cy="88.6672" r="0.9525" /> 
<path d="M93.2621 34.6672
L93.2621 37.6672
" />
<path d="M91.7621 36.1672
L94.7621 36.1672
" />
<path d="M100.8821 34.6672
L100.8821 37.6672
" />
<path d="M99.3821 36.1672
L102.3821 36.1672
" />
<path d="M108.5021 34.6672
L108.5021 37.6672
" />
<path d="M107.0021 36.1672
L110.0021 36.1672
" />
<path d="M116.1221 34.6672
L116.1221 37.6672
" />
<path d="M114.6221 36.1672
L117.6221 36.1672
" />
<path d="M123.7421 34.6672
L123.7421 37.6672
" />
<path d="M122.2421 36.1672
L125.2421 36.1672
" />
</g>
<g style="fill:#000000; fill-opacity:0.0; 
stroke:#000000; stroke-width:0.3600; stroke-opacity:1; 
stroke-linecap:round; stroke-linejoin:round;">
<path style="fill:#000000; fill-opacity:0.0; 
stroke:#000000; stroke-width:0.3600; stroke-opacity:1; 
stroke-linecap:round; stroke-linejoin:round;fill:none"
d="M 174.4849,40.1100
174.4849,37.5644
171.9393,37.5644
171.9393,40.1100
Z" /> 
<path style="fill:#000000; fill-opacity:0.0; 
stroke:#000000; stroke-width:0.3600; stroke-opacity:1; 
stroke-linecap:round; stroke-linejoin:round;fill:none"
d="M 174.4849,51.5400
174.4849,48.9944
171.9393,48.9944
171.9393,51.5400
Z" /> 
<path style="fill:#000000; fill-opacity:0.0; 
stroke:#000000; stroke-width:0.3600; stroke-opacity:1; 
stroke-linecap:round; stroke-linejoin:round;fill:none"
d="M 184.9849,40.1100
184.9849,37.5644
182.4393,37.5644
182.4393,40.1100
Z" /> 
<path style="fill:#000000; fill-opacity:0.0; 
stroke:#000000; stroke-width:0.3600; stroke-opacity:1; 
stroke-linecap:round; stroke-linejoin:round;fill:none"
d="M 184.9849,51.5400
184.9849,48.9944
182.4393,48.9944
182.4393,51.5400
Z" /> 
<path style="fill:#000000; fill-opacity:0.0; 
stroke:#000000; stroke-width:0.3600; stroke-opacity:1; 
stroke-linecap:round; stroke-linejoin:round;fill:none"
d="M 195.4849,40.1100
195.4849,37.5644
192.9393,37.5644
192.9393,40.1100
Z" /> 
<path style="fill:#000000; fill-opacity:0.0; 
stroke:#000000; stroke-width:0.3600; stroke-opacity:1; 
stroke-linecap:round; stroke-linejoin:round;fill:none"
d="M 195.4849,51.5400
195.4849,48.9944
192.9393,48.9944
192.9393,51.5400
Z" /> 
</g>
<g style="fill:#000000; fill-opacity:0.0; 
stroke:#000000; stroke-width:0.6000; stroke-opacity:1; 
stroke-linecap:round; stroke-linejoin:round;">
<path style="fill:#000000; fill-opacity:0.0; 
stroke:#000000; stroke-width:0.6000; stroke-opacity:1; 
stroke-linecap:round; stroke-linejoin:round;fill:none"
d="M 154.5047,91.2268
157.5047,88.2268
154.5047,85.2268
151.5047,88.2268
Z" /> 
<path style="fill:#000000; fill-opacity:0.0; 
stroke:#000000; stroke-width:0.6000; stroke-opacity:1; 
stroke-linecap:round; stroke-linejoin:round;fill:none"
d="M 164.3345,86.1214
167.3345,83.1214
164.3345,80.1214
161.3345,83.1214
Z" /> 
</g>
<g style="fill:#000000; fill-opacity:0.0; 
stroke:#000000; stroke-width:0.6300; stroke-opacity:1; 
stroke-linecap:round; stroke-linejoin:round;">
<path d="M93.1121 60.6172
L99.4121 66.9172
" />
<path d="M99.4121 60.6172
L93.1121 66.9172
" />
<circle cx="96.2621" cy="63.7672" r="3.1500" /> 
<path d="M196.1621 60.4672
L202.4621 66.7672
" />
<path d="M202.4621 60.4672
L196.1621 66.7672
" />
<circle cx="199.3121" cy="63.6172" r="3.1500" /> 
</g>
<g style="fill:#000000; fill-opacity:0.0; 
stroke:#000000; stroke-width:0.6000; stroke-opacity:1; 
stroke-linecap:round; stroke-linejoin:round;">
</g>
<g style="fill:#000000; fill-opacity:0.0; 
stroke:#000000; stroke-width:0.2000; stroke-opacity:1; 
stroke-linecap:round; stroke-linejoin:round;">
<text x="89.7871" y="98.5122"
textLength="14.8667" font-size="2.6667" lengthAdjust="spacingAndGlyphs"
text-anchor="start" opacity="0">Drill Map:</text>
<g class="stroked-text"><desc>Drill Map:</desc>
<path d="M90.3949 98.4270
L90.3949 96.4270
" />
<path d="M90.3949 96.4270
L90.8711 96.4270
" />
<path d="M90.8711 96.4270
L91.1568 96.5222
" />
<path d="M91.1568 96.5222
L91.3472 96.7127
" />
<path d="M91.3472 96.7127
L91.4425 96.9032
" />
<path d="M91.4425 96.9032
L91.5377 97.2841
" />
<path d="M91.5377 97.2841
L91.5377 97.5699
" />
<path d="M91.5377 97.5699
L91.4425 97.9508
" />
<path d="M91.4425 97.9508
L91.3472 98.1413
" />
<path d="M91.3472 98.1413
L91.1568 98.3318
" />
<path d="M91.1568 98.3318
L90.8711 98.4270
" />
<path d="M90.8711 98.4270
L90.3949 98.4270
" />
<path d="M92.3949 98.4270
L92.3949 97.0937
" />
<path d="M92.3949 97.4746
L92.4901 97.2841
" />
<path d="M92.4901 97.2841
L92.5853 97.1889
" />
<path d="M92.5853 97.1889
L92.7758 97.0937
" />
<path d="M92.7758 97.0937
L92.9663 97.0937
" />
<path d="M93.6330 98.4270
L93.6330 97.0937
" />
<path d="M93.6330 96.4270
L93.5377 96.5222
" />
<path d="M93.5377 96.5222
L93.6330 96.6175
" />
<path d="M93.6330 96.6175
L93.7282 96.5222
" />
<path d="M93.7282 96.5222
L93.6330 96.4270
" />
<path d="M93.6330 96.4270
L93.6330 96.6175
" />
<path d="M94.8711 98.4270
L94.6806 98.3318
" />
<path d="M94.6806 98.3318
L94.5853 98.1413
" />
<path d="M94.5853 98.1413
L94.5853 96.4270
" />
<path d="M95.9187 98.4270
L95.7282 98.3318
" />
<path d="M95.7282 98.3318
L95.6330 98.1413
" />
<path d="M95.6330 98.1413
L95.6330 96.4270
" />
<path d="M98.2044 98.4270
L98.2044 96.4270
" />
<path d="M98.2044 96.4270
L98.8711 97.8556
" />
<path d="M98.8711 97.8556
L99.5377 96.4270
" />
<path d="M99.5377 96.4270
L99.5377 98.4270
" />
<path d="M101.3473 98.4270
L101.3473 97.3794
" />
<path d="M101.3473 97.3794
L101.2520 97.1889
" />
<path d="M101.2520 97.1889
L101.0615 97.0937
" />
<path d="M101.0615 97.0937
L100.6806 97.0937
" />
<path d="M100.6806 97.0937
L100.4901 97.1889
" />
<path d="M101.3473 98.3318
L101.1568 98.4270
" />
<path d="M101.1568 98.4270
L100.6806 98.4270
" />
<path d="M100.6806 98.4270
L100.4901 98.3318
" />
<path d="M100.4901 98.3318
L100.3949 98.1413
" />
<path d="M100.3949 98.1413
L100.3949 97.9508
" />
<path d="M100.3949 97.9508
L100.4901 97.7603
" />
<path d="M100.4901 97.7603
L100.6806 97.6651
" />
<path d="M100.6806 97.6651
L101.1568 97.6651
" />
<path d="M101.1568 97.6651
L101.3473 97.5699
" />
<path d="M102.2996 97.0937
L102.2996 99.0937
" />
<path d="M102.2996 97.1889
L102.4901 97.0937
" />
<path d="M102.4901 97.0937
L102.8711 97.0937
" />
<path d="M102.8711 97.0937
L103.0615 97.1889
" />
<path d="M103.0615 97.1889
L103.1568 97.2841
" />
<path d="M103.1568 97.2841
L103.2520 97.4746
" />
<path d="M103.2520 97.4746
L103.2520 98.0460
" />
<path d="M103.2520 98.0460
L103.1568 98.2365
" />
<path d="M103.1568 98.2365
L103.0615 98.3318
" />
<path d="M103.0615 98.3318
L102.8711 98.4270
" />
<path d="M102.8711 98.4270
L102.4901 98.4270
" />
<path d="M102.4901 98.4270
L102.2996 98.3318
" />
<path d="M104.1092 98.2365
L104.2044 98.3318
" />
<path d="M104.2044 98.3318
L104.1092 98.4270
" />
<path d="M104.1092 98.4270
L104.0139 98.3318
" />
<path d="M104.0139 98.3318
L104.1092 98.2365
" />
<path d="M104.1092 98.2365
L104.1092 98.4270
" />
<path d="M104.1092 97.1889
L104.2044 97.2841
" />
<path d="M104.2044 97.2841
L104.1092 97.3794
" />
<path d="M104.1092 97.3794
L104.0139 97.2841
" />
<path d="M104.0139 97.2841
L104.1092 97.1889
" />
<path d="M104.1092 97.1889
L104.1092 97.3794
" />
</g></g>
<g style="fill:#000000; fill-opacity:0.0; 
stroke:#000000; stroke-width:0.3000; stroke-opacity:1; 
stroke-linecap:round; stroke-linejoin:round;">
<path d="M86.6441 101.1407
L87.7871 102.2837
" />
<path d="M87.7871 101.1407
L86.6441 102.2837
" />
</g>
<g style="fill:#000000; fill-opacity:0.0; 
stroke:#000000; stroke-width:0.6000; stroke-opacity:1; 
stroke-linecap:round; stroke-linejoin:round;">
</g>
<g style="fill:#000000; fill-opacity:0.0; 
stroke:#000000; stroke-width:0.2000; stroke-opacity:1; 
stroke-linecap:round; stroke-linejoin:round;">
<text x="89.7871" y="102.7122"
textLength="48.7715" font-size="2.6667" lengthAdjust="spacingAndGlyphs"
text-anchor="start" opacity="0">0.381mm / 0.0150" (10 holes)</text>
<g class="stroked-text"><desc>0.381mm / 0.0150" (10 holes)</desc>
<path d="M90.7758 100.6270
L90.9663 100.6270
" />
<path d="M90.9663 100.6270
L91.1568 100.7222
" />
<path d="M91.1568 100.7222
L91.2520 100.8175
" />
<path d="M91.2520 100.8175
L91.3472 101.0080
" />
<path d="M91.3472 101.0080
L91.4425 101.3889
" />
<path d="M91.4425 101.3889
L91.4425 101.8651
" />
<path d="M91.4425 101.8651
L91.3472 102.2460
" />
<path d="M91.3472 102.2460
L91.2520 102.4365
" />
<path d="M91.2520 102.4365
L91.1568 102.5318
" />
<path d="M91.1568 102.5318
L90.9663 102.6270
" />
<path d="M90.9663 102.6270
L90.7758 102.6270
" />
<path d="M90.7758 102.6270
L90.5853 102.5318
" />
<path d="M90.5853 102.5318
L90.4901 102.4365
" />
<path d="M90.4901 102.4365
L90.3949 102.2460
" />
<path d="M90.3949 102.2460
L90.2996 101.8651
" />
<path d="M90.2996 101.8651
L90.2996 101.3889
" />
<path d="M90.2996 101.3889
L90.3949 101.0080
" />
<path d="M90.3949 101.0080
L90.4901 100.8175
" />
<path d="M90.4901 100.8175
L90.5853 100.7222
" />
<path d="M90.5853 100.7222
L90.7758 100.6270
" />
<path d="M92.2996 102.4365
L92.3949 102.5318
" />
<path d="M92.3949 102.5318
L92.2996 102.6270
" />
<path d="M92.2996 102.6270
L92.2044 102.5318
" />
<path d="M92.2044 102.5318
L92.2996 102.4365
" />
<path d="M92.2996 102.4365
L92.2996 102.6270
" />
<path d="M93.0615 100.6270
L94.2996 100.6270
" />
<path d="M94.2996 100.6270
L93.6330 101.3889
" />
<path d="M93.6330 101.3889
L93.9187 101.3889
" />
<path d="M93.9187 101.3889
L94.1092 101.4841
" />
<path d="M94.1092 101.4841
L94.2044 101.5794
" />
<path d="M94.2044 101.5794
L94.2996 101.7699
" />
<path d="M94.2996 101.7699
L94.2996 102.2460
" />
<path d="M94.2996 102.2460
L94.2044 102.4365
" />
<path d="M94.2044 102.4365
L94.1092 102.5318
" />
<path d="M94.1092 102.5318
L93.9187 102.6270
" />
<path d="M93.9187 102.6270
L93.3473 102.6270
" />
<path d="M93.3473 102.6270
L93.1568 102.5318
" />
<path d="M93.1568 102.5318
L93.0615 102.4365
" />
<path d="M95.4425 101.4841
L95.2520 101.3889
" />
<path d="M95.2520 101.3889
L95.1568 101.2937
" />
<path d="M95.1568 101.2937
L95.0615 101.1032
" />
<path d="M95.0615 101.1032
L95.0615 101.0080
" />
<path d="M95.0615 101.0080
L95.1568 100.8175
" />
<path d="M95.1568 100.8175
L95.2520 100.7222
" />
<path d="M95.2520 100.7222
L95.4425 100.6270
" />
<path d="M95.4425 100.6270
L95.8234 100.6270
" />
<path d="M95.8234 100.6270
L96.0139 100.7222
" />
<path d="M96.0139 100.7222
L96.1092 100.8175
" />
<path d="M96.1092 100.8175
L96.2044 101.0080
" />
<path d="M96.2044 101.0080
L96.2044 101.1032
" />
<path d="M96.2044 101.1032
L96.1092 101.2937
" />
<path d="M96.1092 101.2937
L96.0139 101.3889
" />
<path d="M96.0139 101.3889
L95.8234 101.4841
" />
<path d="M95.8234 101.4841
L95.4425 101.4841
" />
<path d="M95.4425 101.4841
L95.2520 101.5794
" />
<path d="M95.2520 101.5794
L95.1568 101.6746
" />
<path d="M95.1568 101.6746
L95.0615 101.8651
" />
<path d="M95.0615 101.8651
L95.0615 102.2460
" />
<path d="M95.0615 102.2460
L95.1568 102.4365
" />
<path d="M95.1568 102.4365
L95.2520 102.5318
" />
<path d="M95.2520 102.5318
L95.4425 102.6270
" />
<path d="M95.4425 102.6270
L95.8234 102.6270
" />
<path d="M95.8234 102.6270
L96.0139 102.5318
" />
<path d="M96.0139 102.5318
L96.1092 102.4365
" />
<path d="M96.1092 102.4365
L96.2044 102.2460
" />
<path d="M96.2044 102.2460
L96.2044 101.8651
" />
<path d="M96.2044 101.8651
L96.1092 101.6746
" />
<path d="M96.1092 101.6746
L96.0139 101.5794
" />
<path d="M96.0139 101.5794
L95.8234 101.4841
" />
<path d="M98.1092 102.6270
L96.9663 102.6270
" />
<path d="M97.5377 102.6270
L97.5377 100.6270
" />
<path d="M97.5377 100.6270
L97.3473 100.9127
" />
<path d="M97.3473 100.9127
L97.1568 101.1032
" />
<path d="M97.1568 101.1032
L96.9663 101.1984
" />
<path d="M98.9663 102.6270
L98.9663 101.2937
" />
<path d="M98.9663 101.4841
L99.0615 101.3889
" />
<path d="M99.0615 101.3889
L99.2520 101.2937
" />
<path d="M99.2520 101.2937
L99.5377 101.2937
" />
<path d="M99.5377 101.2937
L99.7282 101.3889
" />
<path d="M99.7282 101.3889
L99.8234 101.5794
" />
<path d="M99.8234 101.5794
L99.8234 102.6270
" />
<path d="M99.8234 101.5794
L99.9187 101.3889
" />
<path d="M99.9187 101.3889
L100.1092 101.2937
" />
<path d="M100.1092 101.2937
L100.3949 101.2937
" />
<path d="M100.3949 101.2937
L100.5853 101.3889
" />
<path d="M100.5853 101.3889
L100.6806 101.5794
" />
<path d="M100.6806 101.5794
L100.6806 102.6270
" />
<path d="M101.6330 102.6270
L101.6330 101.2937
" />
<path d="M101.6330 101.4841
L101.7282 101.3889
" />
<path d="M101.7282 101.3889
L101.9187 101.2937
" />
<path d="M101.9187 101.2937
L102.2044 101.2937
" />
<path d="M102.2044 101.2937
L102.3949 101.3889
" />
<path d="M102.3949 101.3889
L102.4901 101.5794
" />
<path d="M102.4901 101.5794
L102.4901 102.6270
" />
<path d="M102.4901 101.5794
L102.5853 101.3889
" />
<path d="M102.5853 101.3889
L102.7758 101.2937
" />
<path d="M102.7758 101.2937
L103.0615 101.2937
" />
<path d="M103.0615 101.2937
L103.2520 101.3889
" />
<path d="M103.2520 101.3889
L103.3473 101.5794
" />
<path d="M103.3473 101.5794
L103.3473 102.6270
" />
<path d="M107.2520 100.5318
L105.5377 103.1032
" />
<path d="M109.8234 100.6270
L110.0139 100.6270
" />
<path d="M110.0139 100.6270
L110.2044 100.7222
" />
<path d="M110.2044 100.7222
L110.2996 100.8175
" />
<path d="M110.2996 100.8175
L110.3949 101.0080
" />
<path d="M110.3949 101.0080
L110.4901 101.3889
" />
<path d="M110.4901 101.3889
L110.4901 101.8651
" />
<path d="M110.4901 101.8651
L110.3949 102.2460
" />
<path d="M110.3949 102.2460
L110.2996 102.4365
" />
<path d="M110.2996 102.4365
L110.2044 102.5318
" />
<path d="M110.2044 102.5318
L110.0139 102.6270
" />
<path d="M110.0139 102.6270
L109.8234 102.6270
" />
<path d="M109.8234 102.6270
L109.6330 102.5318
" />
<path d="M109.6330 102.5318
L109.5377 102.4365
" />
<path d="M109.5377 102.4365
L109.4425 102.2460
" />
<path d="M109.4425 102.2460
L109.3473 101.8651
" />
<path d="M109.3473 101.8651
L109.3473 101.3889
" />
<path d="M109.3473 101.3889
L109.4425 101.0080
" />
<path d="M109.4425 101.0080
L109.5377 100.8175
" />
<path d="M109.5377 100.8175
L109.6330 100.7222
" />
<path d="M109.6330 100.7222
L109.8234 100.6270
" />
<path d="M111.3473 102.4365
L111.4425 102.5318
" />
<path d="M111.4425 102.5318
L111.3473 102.6270
" />
<path d="M111.3473 102.6270
L111.2520 102.5318
" />
<path d="M111.2520 102.5318
L111.3473 102.4365
" />
<path d="M111.3473 102.4365
L111.3473 102.6270
" />
<path d="M112.6806 100.6270
L112.8711 100.6270
" />
<path d="M112.8711 100.6270
L113.0615 100.7222
" />
<path d="M113.0615 100.7222
L113.1568 100.8175
" />
<path d="M113.1568 100.8175
L113.2520 101.0080
" />
<path d="M113.2520 101.0080
L113.3473 101.3889
" />
<path d="M113.3473 101.3889
L113.3473 101.8651
" />
<path d="M113.3473 101.8651
L113.2520 102.2460
" />
<path d="M113.2520 102.2460
L113.1568 102.4365
" />
<path d="M113.1568 102.4365
L113.0615 102.5318
" />
<path d="M113.0615 102.5318
L112.8711 102.6270
" />
<path d="M112.8711 102.6270
L112.6806 102.6270
" />
<path d="M112.6806 102.6270
L112.4901 102.5318
" />
<path d="M112.4901 102.5318
L112.3949 102.4365
" />
<path d="M112.3949 102.4365
L112.2996 102.2460
" />
<path d="M112.2996 102.2460
L112.2044 101.8651
" />
<path d="M112.2044 101.8651
L112.2044 101.3889
" />
<path d="M112.2044 101.3889
L112.2996 101.0080
" />
<path d="M112.2996 101.0080
L112.3949 100.8175
" />
<path d="M112.3949 100.8175
L112.4901 100.7222
" />
<path d="M112.4901 100.7222
L112.6806 100.6270
" />
<path d="M115.2520 102.6270
L114.1092 102.6270
" />
<path d="M114.6806 102.6270
L114.6806 100.6270
" />
<path d="M114.6806 100.6270
L114.4901 100.9127
" />
<path d="M114.4901 100.9127
L114.2996 101.1032
" />
<path d="M114.2996 101.1032
L114.1092 101.1984
" />
<path d="M117.0615 100.6270
L116.1092 100.6270
" />
<path d="M116.1092 100.6270
L116.0139 101.5794
" />
<path d="M116.0139 101.5794
L116.1092 101.4841
" />
<path d="M116.1092 101.4841
L116.2996 101.3889
" />
<path d="M116.2996 101.3889
L116.7758 101.3889
" />
<path d="M116.7758 101.3889
L116.9663 101.4841
" />
<path d="M116.9663 101.4841
L117.0615 101.5794
" />
<path d="M117.0615 101.5794
L117.1568 101.7699
" />
<path d="M117.1568 101.7699
L117.1568 102.2460
" />
<path d="M117.1568 102.2460
L117.0615 102.4365
" />
<path d="M117.0615 102.4365
L116.9663 102.5318
" />
<path d="M116.9663 102.5318
L116.7758 102.6270
" />
<path d="M116.7758 102.6270
L116.2996 102.6270
" />
<path d="M116.2996 102.6270
L116.1092 102.5318
" />
<path d="M116.1092 102.5318
L116.0139 102.4365
" />
<path d="M118.3949 100.6270
L118.5854 100.6270
" />
<path d="M118.5854 100.6270
L118.7758 100.7222
" />
<path d="M118.7758 100.7222
L118.8711 100.8175
" />
<path d="M118.8711 100.8175
L118.9663 101.0080
" />
<path d="M118.9663 101.0080
L119.0615 101.3889
" />
<path d="M119.0615 101.3889
L119.0615 101.8651
" />
<path d="M119.0615 101.8651
L118.9663 102.2460
" />
<path d="M118.9663 102.2460
L118.8711 102.4365
" />
<path d="M118.8711 102.4365
L118.7758 102.5318
" />
<path d="M118.7758 102.5318
L118.5854 102.6270
" />
<path d="M118.5854 102.6270
L118.3949 102.6270
" />
<path d="M118.3949 102.6270
L118.2044 102.5318
" />
<path d="M118.2044 102.5318
L118.1092 102.4365
" />
<path d="M118.1092 102.4365
L118.0139 102.2460
" />
<path d="M118.0139 102.2460
L117.9187 101.8651
" />
<path d="M117.9187 101.8651
L117.9187 101.3889
" />
<path d="M117.9187 101.3889
L118.0139 101.0080
" />
<path d="M118.0139 101.0080
L118.1092 100.8175
" />
<path d="M118.1092 100.8175
L118.2044 100.7222
" />
<path d="M118.2044 100.7222
L118.3949 100.6270
" />
<path d="M119.8235 100.6270
L119.8235 101.0080
" />
<path d="M120.5854 100.6270
L120.5854 101.0080
" />
<path d="M123.5377 103.3889
L123.4425 103.2937
" />
<path d="M123.4425 103.2937
L123.2520 103.0080
" />
<path d="M123.2520 103.0080
L123.1568 102.8175
" />
<path d="M123.1568 102.8175
L123.0616 102.5318
" />
<path d="M123.0616 102.5318
L122.9663 102.0556
" />
<path d="M122.9663 102.0556
L122.9663 101.6746
" />
<path d="M122.9663 101.6746
L123.0616 101.1984
" />
<path d="M123.0616 101.1984
L123.1568 100.9127
" />
<path d="M123.1568 100.9127
L123.2520 100.7222
" />
<path d="M123.2520 100.7222
L123.4425 100.4365
" />
<path d="M123.4425 100.4365
L123.5377 100.3413
" />
<path d="M125.3473 102.6270
L124.2044 102.6270
" />
<path d="M124.7758 102.6270
L124.7758 100.6270
" />
<path d="M124.7758 100.6270
L124.5854 100.9127
" />
<path d="M124.5854 100.9127
L124.3949 101.1032
" />
<path d="M124.3949 101.1032
L124.2044 101.1984
" />
<path d="M126.5854 100.6270
L126.7758 100.6270
" />
<path d="M126.7758 100.6270
L126.9663 100.7222
" />
<path d="M126.9663 100.7222
L127.0616 100.8175
" />
<path d="M127.0616 100.8175
L127.1568 101.0080
" />
<path d="M127.1568 101.0080
L127.2520 101.3889
" />
<path d="M127.2520 101.3889
L127.2520 101.8651
" />
<path d="M127.2520 101.8651
L127.1568 102.2460
" />
<path d="M127.1568 102.2460
L127.0616 102.4365
" />
<path d="M127.0616 102.4365
L126.9663 102.5318
" />
<path d="M126.9663 102.5318
L126.7758 102.6270
" />
<path d="M126.7758 102.6270
L126.5854 102.6270
" />
<path d="M126.5854 102.6270
L126.3949 102.5318
" />
<path d="M126.3949 102.5318
L126.2996 102.4365
" />
<path d="M126.2996 102.4365
L126.2044 102.2460
" />
<path d="M126.2044 102.2460
L126.1092 101.8651
" />
<path d="M126.1092 101.8651
L126.1092 101.3889
" />
<path d="M126.1092 101.3889
L126.2044 101.0080
" />
<path d="M126.2044 101.0080
L126.2996 100.8175
" />
<path d="M126.2996 100.8175
L126.3949 100.7222
" />
<path d="M126.3949 100.7222
L126.5854 100.6270
" />
<path d="M129.6330 102.6270
L129.6330 100.6270
" />
<path d="M130.4901 102.6270
L130.4901 101.5794
" />
<path d="M130.4901 101.5794
L130.3949 101.3889
" />
<path d="M130.3949 101.3889
L130.2044 101.2937
" />
<path d="M130.2044 101.2937
L129.9187 101.2937
" />
<path d="M129.9187 101.2937
L129.7282 101.3889
" />
<path d="M129.7282 101.3889
L129.6330 101.4841
" />
<path d="M131.7282 102.6270
L131.5377 102.5318
" />
<path d="M131.5377 102.5318
L131.4425 102.4365
" />
<path d="M131.4425 102.4365
L131.3473 102.2460
" />
<path d="M131.3473 102.2460
L131.3473 101.6746
" />
<path d="M131.3473 101.6746
L131.4425 101.4841
" />
<path d="M131.4425 101.4841
L131.5377 101.3889
" />
<path d="M131.5377 101.3889
L131.7282 101.2937
" />
<path d="M131.7282 101.2937
L132.0139 101.2937
" />
<path d="M132.0139 101.2937
L132.2044 101.3889
" />
<path d="M132.2044 101.3889
L132.2997 101.4841
" />
<path d="M132.2997 101.4841
L132.3949 101.6746
" />
<path d="M132.3949 101.6746
L132.3949 102.2460
" />
<path d="M132.3949 102.2460
L132.2997 102.4365
" />
<path d="M132.2997 102.4365
L132.2044 102.5318
" />
<path d="M132.2044 102.5318
L132.0139 102.6270
" />
<path d="M132.0139 102.6270
L131.7282 102.6270
" />
<path d="M133.5377 102.6270
L133.3473 102.5318
" />
<path d="M133.3473 102.5318
L133.2520 102.3413
" />
<path d="M133.2520 102.3413
L133.2520 100.6270
" />
<path d="M135.0616 102.5318
L134.8711 102.6270
" />
<path d="M134.8711 102.6270
L134.4901 102.6270
" />
<path d="M134.4901 102.6270
L134.2997 102.5318
" />
<path d="M134.2997 102.5318
L134.2044 102.3413
" />
<path d="M134.2044 102.3413
L134.2044 101.5794
" />
<path d="M134.2044 101.5794
L134.2997 101.3889
" />
<path d="M134.2997 101.3889
L134.4901 101.2937
" />
<path d="M134.4901 101.2937
L134.8711 101.2937
" />
<path d="M134.8711 101.2937
L135.0616 101.3889
" />
<path d="M135.0616 101.3889
L135.1568 101.5794
" />
<path d="M135.1568 101.5794
L135.1568 101.7699
" />
<path d="M135.1568 101.7699
L134.2044 101.9603
" />
<path d="M135.9187 102.5318
L136.1092 102.6270
" />
<path d="M136.1092 102.6270
L136.4901 102.6270
" />
<path d="M136.4901 102.6270
L136.6806 102.5318
" />
<path d="M136.6806 102.5318
L136.7758 102.3413
" />
<path d="M136.7758 102.3413
L136.7758 102.2460
" />
<path d="M136.7758 102.2460
L136.6806 102.0556
" />
<path d="M136.6806 102.0556
L136.4901 101.9603
" />
<path d="M136.4901 101.9603
L136.2044 101.9603
" />
<path d="M136.2044 101.9603
L136.0139 101.8651
" />
<path d="M136.0139 101.8651
L135.9187 101.6746
" />
<path d="M135.9187 101.6746
L135.9187 101.5794
" />
<path d="M135.9187 101.5794
L136.0139 101.3889
" />
<path d="M136.0139 101.3889
L136.2044 101.2937
" />
<path d="M136.2044 101.2937
L136.4901 101.2937
" />
<path d="M136.4901 101.2937
L136.6806 101.3889
" />
<path d="M137.4425 103.3889
L137.5378 103.2937
" />
<path d="M137.5378 103.2937
L137.7282 103.0080
" />
<path d="M137.7282 103.0080
L137.8235 102.8175
" />
<path d="M137.8235 102.8175
L137.9187 102.5318
" />
<path d="M137.9187 102.5318
L138.0139 102.0556
" />
<path d="M138.0139 102.0556
L138.0139 101.6746
" />
<path d="M138.0139 101.6746
L137.9187 101.1984
" />
<path d="M137.9187 101.1984
L137.8235 100.9127
" />
<path d="M137.8235 100.9127
L137.7282 100.7222
" />
<path d="M137.7282 100.7222
L137.5378 100.4365
" />
<path d="M137.5378 100.4365
L137.4425 100.3413
" />
</g></g>
<g style="fill:#000000; fill-opacity:0.0; 
stroke:#000000; stroke-width:0.3000; stroke-opacity:1; 
stroke-linecap:round; stroke-linejoin:round;">
<circle cx="86.8346" cy="104.3522" r="0.9525" /> 
</g>
<g style="fill:#000000; fill-opacity:0.0; 
stroke:#000000; stroke-width:0.6000; stroke-opacity:1; 
stroke-linecap:round; stroke-linejoin:round;">
</g>
<g style="fill:#000000; fill-opacity:0.0; 
stroke:#000000; stroke-width:0.2000; stroke-opacity:1; 
stroke-linecap:round; stroke-linejoin:round;">
<text x="89.7871" y="105.3522"
textLength="46.8667" font-size="2.6667" lengthAdjust="spacingAndGlyphs"
text-anchor="start" opacity="0">0.635mm / 0.0250" (9 holes)</text>
<g class="stroked-text"><desc>0.635mm / 0.0250" (9 holes)</desc>
<path d="M90.7758 103.2670
L90.9663 103.2670
" />
<path d="M90.9663 103.2670
L91.1568 103.3622
" />
<path d="M91.1568 103.3622
L91.2520 103.4575
" />
<path d="M91.2520 103.4575
L91.3472 103.6480
" />
<path d="M91.3472 103.6480
L91.4425 104.0289
" />
<path d="M91.4425 104.0289
L91.4425 104.5051
" />
<path d="M91.4425 104.5051
L91.3472 104.8860
" />
<path d="M91.3472 104.8860
L91.2520 105.0765
" />
<path d="M91.2520 105.0765
L91.1568 105.1718
" />
<path d="M91.1568 105.1718
L90.9663 105.2670
" />
<path d="M90.9663 105.2670
L90.7758 105.2670
" />
<path d="M90.7758 105.2670
L90.5853 105.1718
" />
<path d="M90.5853 105.1718
L90.4901 105.0765
" />
<path d="M90.4901 105.0765
L90.3949 104.8860
" />
<path d="M90.3949 104.8860
L90.2996 104.5051
" />
<path d="M90.2996 104.5051
L90.2996 104.0289
" />
<path d="M90.2996 104.0289
L90.3949 103.6480
" />
<path d="M90.3949 103.6480
L90.4901 103.4575
" />
<path d="M90.4901 103.4575
L90.5853 103.3622
" />
<path d="M90.5853 103.3622
L90.7758 103.2670
" />
<path d="M92.2996 105.0765
L92.3949 105.1718
" />
<path d="M92.3949 105.1718
L92.2996 105.2670
" />
<path d="M92.2996 105.2670
L92.2044 105.1718
" />
<path d="M92.2044 105.1718
L92.2996 105.0765
" />
<path d="M92.2996 105.0765
L92.2996 105.2670
" />
<path d="M94.1092 103.2670
L93.7282 103.2670
" />
<path d="M93.7282 103.2670
L93.5377 103.3622
" />
<path d="M93.5377 103.3622
L93.4425 103.4575
" />
<path d="M93.4425 103.4575
L93.2520 103.7432
" />
<path d="M93.2520 103.7432
L93.1568 104.1241
" />
<path d="M93.1568 104.1241
L93.1568 104.8860
" />
<path d="M93.1568 104.8860
L93.2520 105.0765
" />
<path d="M93.2520 105.0765
L93.3473 105.1718
" />
<path d="M93.3473 105.1718
L93.5377 105.2670
" />
<path d="M93.5377 105.2670
L93.9187 105.2670
" />
<path d="M93.9187 105.2670
L94.1092 105.1718
" />
<path d="M94.1092 105.1718
L94.2044 105.0765
" />
<path d="M94.2044 105.0765
L94.2996 104.8860
" />
<path d="M94.2996 104.8860
L94.2996 104.4099
" />
<path d="M94.2996 104.4099
L94.2044 104.2194
" />
<path d="M94.2044 104.2194
L94.1092 104.1241
" />
<path d="M94.1092 104.1241
L93.9187 104.0289
" />
<path d="M93.9187 104.0289
L93.5377 104.0289
" />
<path d="M93.5377 104.0289
L93.3473 104.1241
" />
<path d="M93.3473 104.1241
L93.2520 104.2194
" />
<path d="M93.2520 104.2194
L93.1568 104.4099
" />
<path d="M94.9663 103.2670
L96.2044 103.2670
" />
<path d="M96.2044 103.2670
L95.5377 104.0289
" />
<path d="M95.5377 104.0289
L95.8234 104.0289
" />
<path d="M95.8234 104.0289
L96.0139 104.1241
" />
<path d="M96.0139 104.1241
L96.1092 104.2194
" />
<path d="M96.1092 104.2194
L96.2044 104.4099
" />
<path d="M96.2044 104.4099
L96.2044 104.8860
" />
<path d="M96.2044 104.8860
L96.1092 105.0765
" />
<path d="M96.1092 105.0765
L96.0139 105.1718
" />
<path d="M96.0139 105.1718
L95.8234 105.2670
" />
<path d="M95.8234 105.2670
L95.2520 105.2670
" />
<path d="M95.2520 105.2670
L95.0615 105.1718
" />
<path d="M95.0615 105.1718
L94.9663 105.0765
" />
<path d="M98.0139 103.2670
L97.0615 103.2670
" />
<path d="M97.0615 103.2670
L96.9663 104.2194
" />
<path d="M96.9663 104.2194
L97.0615 104.1241
" />
<path d="M97.0615 104.1241
L97.2520 104.0289
" />
<path d="M97.2520 104.0289
L97.7282 104.0289
" />
<path d="M97.7282 104.0289
L97.9187 104.1241
" />
<path d="M97.9187 104.1241
L98.0139 104.2194
" />
<path d="M98.0139 104.2194
L98.1092 104.4099
" />
<path d="M98.1092 104.4099
L98.1092 104.8860
" />
<path d="M98.1092 104.8860
L98.0139 105.0765
" />
<path d="M98.0139 105.0765
L97.9187 105.1718
" />
<path d="M97.9187 105.1718
L97.7282 105.2670
" />
<path d="M97.7282 105.2670
L97.2520 105.2670
" />
<path d="M97.2520 105.2670
L97.0615 105.1718
" />
<path d="M97.0615 105.1718
L96.9663 105.0765
" />
<path d="M98.9663 105.2670
L98.9663 103.9337
" />
<path d="M98.9663 104.1241
L99.0615 104.0289
" />
<path d="M99.0615 104.0289
L99.2520 103.9337
" />
<path d="M99.2520 103.9337
L99.5377 103.9337
" />
<path d="M99.5377 103.9337
L99.7282 104.0289
" />
<path d="M99.7282 104.0289
L99.8234 104.2194
" />
<path d="M99.8234 104.2194
L99.8234 105.2670
" />
<path d="M99.8234 104.2194
L99.9187 104.0289
" />
<path d="M99.9187 104.0289
L100.1092 103.9337
" />
<path d="M100.1092 103.9337
L100.3949 103.9337
" />
<path d="M100.3949 103.9337
L100.5853 104.0289
" />
<path d="M100.5853 104.0289
L100.6806 104.2194
" />
<path d="M100.6806 104.2194
L100.6806 105.2670
" />
<path d="M101.6330 105.2670
L101.6330 103.9337
" />
<path d="M101.6330 104.1241
L101.7282 104.0289
" />
<path d="M101.7282 104.0289
L101.9187 103.9337
" />
<path d="M101.9187 103.9337
L102.2044 103.9337
" />
<path d="M102.2044 103.9337
L102.3949 104.0289
" />
<path d="M102.3949 104.0289
L102.4901 104.2194
" />
<path d="M102.4901 104.2194
L102.4901 105.2670
" />
<path d="M102.4901 104.2194
L102.5853 104.0289
" />
<path d="M102.5853 104.0289
L102.7758 103.9337
" />
<path d="M102.7758 103.9337
L103.0615 103.9337
" />
<path d="M103.0615 103.9337
L103.2520 104.0289
" />
<path d="M103.2520 104.0289
L103.3473 104.2194
" />
<path d="M103.3473 104.2194
L103.3473 105.2670
" />
<path d="M107.2520 103.1718
L105.5377 105.7432
" />
<path d="M109.8234 103.2670
L110.0139 103.2670
" />
<path d="M110.0139 103.2670
L110.2044 103.3622
" />
<path d="M110.2044 103.3622
L110.2996 103.4575
" />
<path d="M110.2996 103.4575
L110.3949 103.6480
" />
<path d="M110.3949 103.6480
L110.4901 104.0289
" />
<path d="M110.4901 104.0289
L110.4901 104.5051
" />
<path d="M110.4901 104.5051
L110.3949 104.8860
" />
<path d="M110.3949 104.8860
L110.2996 105.0765
" />
<path d="M110.2996 105.0765
L110.2044 105.1718
" />
<path d="M110.2044 105.1718
L110.0139 105.2670
" />
<path d="M110.0139 105.2670
L109.8234 105.2670
" />
<path d="M109.8234 105.2670
L109.6330 105.1718
" />
<path d="M109.6330 105.1718
L109.5377 105.0765
" />
<path d="M109.5377 105.0765
L109.4425 104.8860
" />
<path d="M109.4425 104.8860
L109.3473 104.5051
" />
<path d="M109.3473 104.5051
L109.3473 104.0289
" />
<path d="M109.3473 104.0289
L109.4425 103.6480
" />
<path d="M109.4425 103.6480
L109.5377 103.4575
" />
<path d="M109.5377 103.4575
L109.6330 103.3622
" />
<path d="M109.6330 103.3622
L109.8234 103.2670
" />
<path d="M111.3473 105.0765
L111.4425 105.1718
" />
<path d="M111.4425 105.1718
L111.3473 105.2670
" />
<path d="M111.3473 105.2670
L111.2520 105.1718
" />
<path d="M111.2520 105.1718
L111.3473 105.0765
" />
<path d="M111.3473 105.0765
L111.3473 105.2670
" />
<path d="M112.6806 103.2670
L112.8711 103.2670
" />
<path d="M112.8711 103.2670
L113.0615 103.3622
" />
<path d="M113.0615 103.3622
L113.1568 103.4575
" />
<path d="M113.1568 103.4575
L113.2520 103.6480
" />
<path d="M113.2520 103.6480
L113.3473 104.0289
" />
<path d="M113.3473 104.0289
L113.3473 104.5051
" />
<path d="M113.3473 104.5051
L113.2520 104.8860
" />
<path d="M113.2520 104.8860
L113.1568 105.0765
" />
<path d="M113.1568 105.0765
L113.0615 105.1718
" />
<path d="M113.0615 105.1718
L112.8711 105.2670
" />
<path d="M112.8711 105.2670
L112.6806 105.2670
" />
<path d="M112.6806 105.2670
L112.4901 105.1718
" />
<path d="M112.4901 105.1718
L112.3949 105.0765
" />
<path d="M112.3949 105.0765
L112.2996 104.8860
" />
<path d="M112.2996 104.8860
L112.2044 104.5051
" />
<path d="M112.2044 104.5051
L112.2044 104.0289
" />
<path d="M112.2044 104.0289
L112.2996 103.6480
" />
<path d="M112.2996 103.6480
L112.3949 103.4575
" />
<path d="M112.3949 103.4575
L112.4901 103.3622
" />
<path d="M112.4901 103.3622
L112.6806 103.2670
" />
<path d="M114.1092 103.4575
L114.2044 103.3622
" />
<path d="M114.2044 103.3622
L114.3949 103.2670
" />
<path d="M114.3949 103.2670
L114.8711 103.2670
" />
<path d="M114.8711 103.2670
L115.0615 103.3622
" />
<path d="M115.0615 103.3622
L115.1568 103.4575
" />
<path d="M115.1568 103.4575
L115.2520 103.6480
" />
<path d="M115.2520 103.6480
L115.2520 103.8384
" />
<path d="M115.2520 103.8384
L115.1568 104.1241
" />
<path d="M115.1568 104.1241
L114.0139 105.2670
" />
<path d="M114.0139 105.2670
L115.2520 105.2670
" />
<path d="M117.0615 103.2670
L116.1092 103.2670
" />
<path d="M116.1092 103.2670
L116.0139 104.2194
" />
<path d="M116.0139 104.2194
L116.1092 104.1241
" />
<path d="M116.1092 104.1241
L116.2996 104.0289
" />
<path d="M116.2996 104.0289
L116.7758 104.0289
" />
<path d="M116.7758 104.0289
L116.9663 104.1241
" />
<path d="M116.9663 104.1241
L117.0615 104.2194
" />
<path d="M117.0615 104.2194
L117.1568 104.4099
" />
<path d="M117.1568 104.4099
L117.1568 104.8860
" />
<path d="M117.1568 104.8860
L117.0615 105.0765
" />
<path d="M117.0615 105.0765
L116.9663 105.1718
" />
<path d="M116.9663 105.1718
L116.7758 105.2670
" />
<path d="M116.7758 105.2670
L116.2996 105.2670
" />
<path d="M116.2996 105.2670
L116.1092 105.1718
" />
<path d="M116.1092 105.1718
L116.0139 105.0765
" />
<path d="M118.3949 103.2670
L118.5854 103.2670
" />
<path d="M118.5854 103.2670
L118.7758 103.3622
" />
<path d="M118.7758 103.3622
L118.8711 103.4575
" />
<path d="M118.8711 103.4575
L118.9663 103.6480
" />
<path d="M118.9663 103.6480
L119.0615 104.0289
" />
<path d="M119.0615 104.0289
L119.0615 104.5051
" />
<path d="M119.0615 104.5051
L118.9663 104.8860
" />
<path d="M118.9663 104.8860
L118.8711 105.0765
" />
<path d="M118.8711 105.0765
L118.7758 105.1718
" />
<path d="M118.7758 105.1718
L118.5854 105.2670
" />
<path d="M118.5854 105.2670
L118.3949 105.2670
" />
<path d="M118.3949 105.2670
L118.2044 105.1718
" />
<path d="M118.2044 105.1718
L118.1092 105.0765
" />
<path d="M118.1092 105.0765
L118.0139 104.8860
" />
<path d="M118.0139 104.8860
L117.9187 104.5051
" />
<path d="M117.9187 104.5051
L117.9187 104.0289
" />
<path d="M117.9187 104.0289
L118.0139 103.6480
" />
<path d="M118.0139 103.6480
L118.1092 103.4575
" />
<path d="M118.1092 103.4575
L118.2044 103.3622
" />
<path d="M118.2044 103.3622
L118.3949 103.2670
" />
<path d="M119.8235 103.2670
L119.8235 103.6480
" />
<path d="M120.5854 103.2670
L120.5854 103.6480
" />
<path d="M123.5377 106.0289
L123.4425 105.9337
" />
<path d="M123.4425 105.9337
L123.2520 105.6480
" />
<path d="M123.2520 105.6480
L123.1568 105.4575
" />
<path d="M123.1568 105.4575
L123.0616 105.1718
" />
<path d="M123.0616 105.1718
L122.9663 104.6956
" />
<path d="M122.9663 104.6956
L122.9663 104.3146
" />
<path d="M122.9663 104.3146
L123.0616 103.8384
" />
<path d="M123.0616 103.8384
L123.1568 103.5527
" />
<path d="M123.1568 103.5527
L123.2520 103.3622
" />
<path d="M123.2520 103.3622
L123.4425 103.0765
" />
<path d="M123.4425 103.0765
L123.5377 102.9813
" />
<path d="M124.3949 105.2670
L124.7758 105.2670
" />
<path d="M124.7758 105.2670
L124.9663 105.1718
" />
<path d="M124.9663 105.1718
L125.0616 105.0765
" />
<path d="M125.0616 105.0765
L125.2520 104.7908
" />
<path d="M125.2520 104.7908
L125.3473 104.4099
" />
<path d="M125.3473 104.4099
L125.3473 103.6480
" />
<path d="M125.3473 103.6480
L125.2520 103.4575
" />
<path d="M125.2520 103.4575
L125.1568 103.3622
" />
<path d="M125.1568 103.3622
L124.9663 103.2670
" />
<path d="M124.9663 103.2670
L124.5854 103.2670
" />
<path d="M124.5854 103.2670
L124.3949 103.3622
" />
<path d="M124.3949 103.3622
L124.2996 103.4575
" />
<path d="M124.2996 103.4575
L124.2044 103.6480
" />
<path d="M124.2044 103.6480
L124.2044 104.1241
" />
<path d="M124.2044 104.1241
L124.2996 104.3146
" />
<path d="M124.2996 104.3146
L124.3949 104.4099
" />
<path d="M124.3949 104.4099
L124.5854 104.5051
" />
<path d="M124.5854 104.5051
L124.9663 104.5051
" />
<path d="M124.9663 104.5051
L125.1568 104.4099
" />
<path d="M125.1568 104.4099
L125.2520 104.3146
" />
<path d="M125.2520 104.3146
L125.3473 104.1241
" />
<path d="M127.7282 105.2670
L127.7282 103.2670
" />
<path d="M128.5854 105.2670
L128.5854 104.2194
" />
<path d="M128.5854 104.2194
L128.4901 104.0289
" />
<path d="M128.4901 104.0289
L128.2996 103.9337
" />
<path d="M128.2996 103.9337
L128.0139 103.9337
" />
<path d="M128.0139 103.9337
L127.8235 104.0289
" />
<path d="M127.8235 104.0289
L127.7282 104.1241
" />
<path d="M129.8235 105.2670
L129.6330 105.1718
" />
<path d="M129.6330 105.1718
L129.5377 105.0765
" />
<path d="M129.5377 105.0765
L129.4425 104.8860
" />
<path d="M129.4425 104.8860
L129.4425 104.3146
" />
<path d="M129.4425 104.3146
L129.5377 104.1241
" />
<path d="M129.5377 104.1241
L129.6330 104.0289
" />
<path d="M129.6330 104.0289
L129.8235 103.9337
" />
<path d="M129.8235 103.9337
L130.1092 103.9337
" />
<path d="M130.1092 103.9337
L130.2997 104.0289
" />
<path d="M130.2997 104.0289
L130.3949 104.1241
" />
<path d="M130.3949 104.1241
L130.4901 104.3146
" />
<path d="M130.4901 104.3146
L130.4901 104.8860
" />
<path d="M130.4901 104.8860
L130.3949 105.0765
" />
<path d="M130.3949 105.0765
L130.2997 105.1718
" />
<path d="M130.2997 105.1718
L130.1092 105.2670
" />
<path d="M130.1092 105.2670
L129.8235 105.2670
" />
<path d="M131.6330 105.2670
L131.4425 105.1718
" />
<path d="M131.4425 105.1718
L131.3473 104.9813
" />
<path d="M131.3473 104.9813
L131.3473 103.2670
" />
<path d="M133.1568 105.1718
L132.9663 105.2670
" />
<path d="M132.9663 105.2670
L132.5854 105.2670
" />
<path d="M132.5854 105.2670
L132.3949 105.1718
" />
<path d="M132.3949 105.1718
L132.2997 104.9813
" />
<path d="M132.2997 104.9813
L132.2997 104.2194
" />
<path d="M132.2997 104.2194
L132.3949 104.0289
" />
<path d="M132.3949 104.0289
L132.5854 103.9337
" />
<path d="M132.5854 103.9337
L132.9663 103.9337
" />
<path d="M132.9663 103.9337
L133.1568 104.0289
" />
<path d="M133.1568 104.0289
L133.2520 104.2194
" />
<path d="M133.2520 104.2194
L133.2520 104.4099
" />
<path d="M133.2520 104.4099
L132.2997 104.6003
" />
<path d="M134.0139 105.1718
L134.2044 105.2670
" />
<path d="M134.2044 105.2670
L134.5854 105.2670
" />
<path d="M134.5854 105.2670
L134.7758 105.1718
" />
<path d="M134.7758 105.1718
L134.8711 104.9813
" />
<path d="M134.8711 104.9813
L134.8711 104.8860
" />
<path d="M134.8711 104.8860
L134.7758 104.6956
" />
<path d="M134.7758 104.6956
L134.5854 104.6003
" />
<path d="M134.5854 104.6003
L134.2997 104.6003
" />
<path d="M134.2997 104.6003
L134.1092 104.5051
" />
<path d="M134.1092 104.5051
L134.0139 104.3146
" />
<path d="M134.0139 104.3146
L134.0139 104.2194
" />
<path d="M134.0139 104.2194
L134.1092 104.0289
" />
<path d="M134.1092 104.0289
L134.2997 103.9337
" />
<path d="M134.2997 103.9337
L134.5854 103.9337
" />
<path d="M134.5854 103.9337
L134.7758 104.0289
" />
<path d="M135.5378 106.0289
L135.6330 105.9337
" />
<path d="M135.6330 105.9337
L135.8235 105.6480
" />
<path d="M135.8235 105.6480
L135.9187 105.4575
" />
<path d="M135.9187 105.4575
L136.0139 105.1718
" />
<path d="M136.0139 105.1718
L136.1092 104.6956
" />
<path d="M136.1092 104.6956
L136.1092 104.3146
" />
<path d="M136.1092 104.3146
L136.0139 103.8384
" />
<path d="M136.0139 103.8384
L135.9187 103.5527
" />
<path d="M135.9187 103.5527
L135.8235 103.3622
" />
<path d="M135.8235 103.3622
L135.6330 103.0765
" />
<path d="M135.6330 103.0765
L135.5378 102.9813
" />
</g></g>
<g style="fill:#000000; fill-opacity:0.0; 
stroke:#000000; stroke-width:0.3000; stroke-opacity:1; 
stroke-linecap:round; stroke-linejoin:round;">
<path d="M86.7871 106.4572
L86.7871 108.4572
" />
<path d="M85.7871 107.4572
L87.7871 107.4572
" />
</g>
<g style="fill:#000000; fill-opacity:0.0; 
stroke:#000000; stroke-width:0.6000; stroke-opacity:1; 
stroke-linecap:round; stroke-linejoin:round;">
</g>
<g style="fill:#000000; fill-opacity:0.0; 
stroke:#000000; stroke-width:0.2000; stroke-opacity:1; 
stroke-linecap:round; stroke-linejoin:round;">
<text x="89.7871" y="108.4572"
textLength="46.8667" font-size="2.6667" lengthAdjust="spacingAndGlyphs"
text-anchor="start" opacity="0">1.000mm / 0.0394" (5 holes)</text>
<g class="stroked-text"><desc>1.000mm / 0.0394" (5 holes)</desc>
<path d="M91.4425 108.3720
L90.2996 108.3720
" />
<path d="M90.8711 108.3720
L90.8711 106.3720
" />
<path d="M90.8711 106.3720
L90.6806 106.6577
" />
<path d="M90.6806 106.6577
L90.4901 106.8482
" />
<path d="M90.4901 106.8482
L90.2996 106.9434
" />
<path d="M92.2996 108.1815
L92.3949 108.2768
" />
<path d="M92.3949 108.2768
L92.2996 108.3720
" />
<path d="M92.2996 108.3720
L92.2044 108.2768
" />
<path d="M92.2044 108.2768
L92.2996 108.1815
" />
<path d="M92.2996 108.1815
L92.2996 108.3720
" />
<path d="M93.6330 106.3720
L93.8234 106.3720
" />
<path d="M93.8234 106.3720
L94.0139 106.4672
" />
<path d="M94.0139 106.4672
L94.1092 106.5625
" />
<path d="M94.1092 106.5625
L94.2044 106.7530
" />
<path d="M94.2044 106.7530
L94.2996 107.1339
" />
<path d="M94.2996 107.1339
L94.2996 107.6101
" />
<path d="M94.2996 107.6101
L94.2044 107.9910
" />
<path d="M94.2044 107.9910
L94.1092 108.1815
" />
<path d="M94.1092 108.1815
L94.0139 108.2768
" />
<path d="M94.0139 108.2768
L93.8234 108.3720
" />
<path d="M93.8234 108.3720
L93.6330 108.3720
" />
<path d="M93.6330 108.3720
L93.4425 108.2768
" />
<path d="M93.4425 108.2768
L93.3473 108.1815
" />
<path d="M93.3473 108.1815
L93.2520 107.9910
" />
<path d="M93.2520 107.9910
L93.1568 107.6101
" />
<path d="M93.1568 107.6101
L93.1568 107.1339
" />
<path d="M93.1568 107.1339
L93.2520 106.7530
" />
<path d="M93.2520 106.7530
L93.3473 106.5625
" />
<path d="M93.3473 106.5625
L93.4425 106.4672
" />
<path d="M93.4425 106.4672
L93.6330 106.3720
" />
<path d="M95.5377 106.3720
L95.7282 106.3720
" />
<path d="M95.7282 106.3720
L95.9187 106.4672
" />
<path d="M95.9187 106.4672
L96.0139 106.5625
" />
<path d="M96.0139 106.5625
L96.1092 106.7530
" />
<path d="M96.1092 106.7530
L96.2044 107.1339
" />
<path d="M96.2044 107.1339
L96.2044 107.6101
" />
<path d="M96.2044 107.6101
L96.1092 107.9910
" />
<path d="M96.1092 107.9910
L96.0139 108.1815
" />
<path d="M96.0139 108.1815
L95.9187 108.2768
" />
<path d="M95.9187 108.2768
L95.7282 108.3720
" />
<path d="M95.7282 108.3720
L95.5377 108.3720
" />
<path d="M95.5377 108.3720
L95.3473 108.2768
" />
<path d="M95.3473 108.2768
L95.2520 108.1815
" />
<path d="M95.2520 108.1815
L95.1568 107.9910
" />
<path d="M95.1568 107.9910
L95.0615 107.6101
" />
<path d="M95.0615 107.6101
L95.0615 107.1339
" />
<path d="M95.0615 107.1339
L95.1568 106.7530
" />
<path d="M95.1568 106.7530
L95.2520 106.5625
" />
<path d="M95.2520 106.5625
L95.3473 106.4672
" />
<path d="M95.3473 106.4672
L95.5377 106.3720
" />
<path d="M97.4425 106.3720
L97.6330 106.3720
" />
<path d="M97.6330 106.3720
L97.8234 106.4672
" />
<path d="M97.8234 106.4672
L97.9187 106.5625
" />
<path d="M97.9187 106.5625
L98.0139 106.7530
" />
<path d="M98.0139 106.7530
L98.1092 107.1339
" />
<path d="M98.1092 107.1339
L98.1092 107.6101
" />
<path d="M98.1092 107.6101
L98.0139 107.9910
" />
<path d="M98.0139 107.9910
L97.9187 108.1815
" />
<path d="M97.9187 108.1815
L97.8234 108.2768
" />
<path d="M97.8234 108.2768
L97.6330 108.3720
" />
<path d="M97.6330 108.3720
L97.4425 108.3720
" />
<path d="M97.4425 108.3720
L97.2520 108.2768
" />
<path d="M97.2520 108.2768
L97.1568 108.1815
" />
<path d="M97.1568 108.1815
L97.0615 107.9910
" />
<path d="M97.0615 107.9910
L96.9663 107.6101
" />
<path d="M96.9663 107.6101
L96.9663 107.1339
" />
<path d="M96.9663 107.1339
L97.0615 106.7530
" />
<path d="M97.0615 106.7530
L97.1568 106.5625
" />
<path d="M97.1568 106.5625
L97.2520 106.4672
" />
<path d="M97.2520 106.4672
L97.4425 106.3720
" />
<path d="M98.9663 108.3720
L98.9663 107.0387
" />
<path d="M98.9663 107.2291
L99.0615 107.1339
" />
<path d="M99.0615 107.1339
L99.2520 107.0387
" />
<path d="M99.2520 107.0387
L99.5377 107.0387
" />
<path d="M99.5377 107.0387
L99.7282 107.1339
" />
<path d="M99.7282 107.1339
L99.8234 107.3244
" />
<path d="M99.8234 107.3244
L99.8234 108.3720
" />
<path d="M99.8234 107.3244
L99.9187 107.1339
" />
<path d="M99.9187 107.1339
L100.1092 107.0387
" />
<path d="M100.1092 107.0387
L100.3949 107.0387
" />
<path d="M100.3949 107.0387
L100.5853 107.1339
" />
<path d="M100.5853 107.1339
L100.6806 107.3244
" />
<path d="M100.6806 107.3244
L100.6806 108.3720
" />
<path d="M101.6330 108.3720
L101.6330 107.0387
" />
<path d="M101.6330 107.2291
L101.7282 107.1339
" />
<path d="M101.7282 107.1339
L101.9187 107.0387
" />
<path d="M101.9187 107.0387
L102.2044 107.0387
" />
<path d="M102.2044 107.0387
L102.3949 107.1339
" />
<path d="M102.3949 107.1339
L102.4901 107.3244
" />
<path d="M102.4901 107.3244
L102.4901 108.3720
" />
<path d="M102.4901 107.3244
L102.5853 107.1339
" />
<path d="M102.5853 107.1339
L102.7758 107.0387
" />
<path d="M102.7758 107.0387
L103.0615 107.0387
" />
<path d="M103.0615 107.0387
L103.2520 107.1339
" />
<path d="M103.2520 107.1339
L103.3473 107.3244
" />
<path d="M103.3473 107.3244
L103.3473 108.3720
" />
<path d="M107.2520 106.2768
L105.5377 108.8482
" />
<path d="M109.8234 106.3720
L110.0139 106.3720
" />
<path d="M110.0139 106.3720
L110.2044 106.4672
" />
<path d="M110.2044 106.4672
L110.2996 106.5625
" />
<path d="M110.2996 106.5625
L110.3949 106.7530
" />
<path d="M110.3949 106.7530
L110.4901 107.1339
" />
<path d="M110.4901 107.1339
L110.4901 107.6101
" />
<path d="M110.4901 107.6101
L110.3949 107.9910
" />
<path d="M110.3949 107.9910
L110.2996 108.1815
" />
<path d="M110.2996 108.1815
L110.2044 108.2768
" />
<path d="M110.2044 108.2768
L110.0139 108.3720
" />
<path d="M110.0139 108.3720
L109.8234 108.3720
" />
<path d="M109.8234 108.3720
L109.6330 108.2768
" />
<path d="M109.6330 108.2768
L109.5377 108.1815
" />
<path d="M109.5377 108.1815
L109.4425 107.9910
" />
<path d="M109.4425 107.9910
L109.3473 107.6101
" />
<path d="M109.3473 107.6101
L109.3473 107.1339
" />
<path d="M109.3473 107.1339
L109.4425 106.7530
" />
<path d="M109.4425 106.7530
L109.5377 106.5625
" />
<path d="M109.5377 106.5625
L109.6330 106.4672
" />
<path d="M109.6330 106.4672
L109.8234 106.3720
" />
<path d="M111.3473 108.1815
L111.4425 108.2768
" />
<path d="M111.4425 108.2768
L111.3473 108.3720
" />
<path d="M111.3473 108.3720
L111.2520 108.2768
" />
<path d="M111.2520 108.2768
L111.3473 108.1815
" />
<path d="M111.3473 108.1815
L111.3473 108.3720
" />
<path d="M112.6806 106.3720
L112.8711 106.3720
" />
<path d="M112.8711 106.3720
L113.0615 106.4672
" />
<path d="M113.0615 106.4672
L113.1568 106.5625
" />
<path d="M113.1568 106.5625
L113.2520 106.7530
" />
<path d="M113.2520 106.7530
L113.3473 107.1339
" />
<path d="M113.3473 107.1339
L113.3473 107.6101
" />
<path d="M113.3473 107.6101
L113.2520 107.9910
" />
<path d="M113.2520 107.9910
L113.1568 108.1815
" />
<path d="M113.1568 108.1815
L113.0615 108.2768
" />
<path d="M113.0615 108.2768
L112.8711 108.3720
" />
<path d="M112.8711 108.3720
L112.6806 108.3720
" />
<path d="M112.6806 108.3720
L112.4901 108.2768
" />
<path d="M112.4901 108.2768
L112.3949 108.1815
" />
<path d="M112.3949 108.1815
L112.2996 107.9910
" />
<path d="M112.2996 107.9910
L112.2044 107.6101
" />
<path d="M112.2044 107.6101
L112.2044 107.1339
" />
<path d="M112.2044 107.1339
L112.2996 106.7530
" />
<path d="M112.2996 106.7530
L112.3949 106.5625
" />
<path d="M112.3949 106.5625
L112.4901 106.4672
" />
<path d="M112.4901 106.4672
L112.6806 106.3720
" />
<path d="M114.0139 106.3720
L115.2520 106.3720
" />
<path d="M115.2520 106.3720
L114.5854 107.1339
" />
<path d="M114.5854 107.1339
L114.8711 107.1339
" />
<path d="M114.8711 107.1339
L115.0615 107.2291
" />
<path d="M115.0615 107.2291
L115.1568 107.3244
" />
<path d="M115.1568 107.3244
L115.2520 107.5149
" />
<path d="M115.2520 107.5149
L115.2520 107.9910
" />
<path d="M115.2520 107.9910
L115.1568 108.1815
" />
<path d="M115.1568 108.1815
L115.0615 108.2768
" />
<path d="M115.0615 108.2768
L114.8711 108.3720
" />
<path d="M114.8711 108.3720
L114.2996 108.3720
" />
<path d="M114.2996 108.3720
L114.1092 108.2768
" />
<path d="M114.1092 108.2768
L114.0139 108.1815
" />
<path d="M116.2044 108.3720
L116.5854 108.3720
" />
<path d="M116.5854 108.3720
L116.7758 108.2768
" />
<path d="M116.7758 108.2768
L116.8711 108.1815
" />
<path d="M116.8711 108.1815
L117.0615 107.8958
" />
<path d="M117.0615 107.8958
L117.1568 107.5149
" />
<path d="M117.1568 107.5149
L117.1568 106.7530
" />
<path d="M117.1568 106.7530
L117.0615 106.5625
" />
<path d="M117.0615 106.5625
L116.9663 106.4672
" />
<path d="M116.9663 106.4672
L116.7758 106.3720
" />
<path d="M116.7758 106.3720
L116.3949 106.3720
" />
<path d="M116.3949 106.3720
L116.2044 106.4672
" />
<path d="M116.2044 106.4672
L116.1092 106.5625
" />
<path d="M116.1092 106.5625
L116.0139 106.7530
" />
<path d="M116.0139 106.7530
L116.0139 107.2291
" />
<path d="M116.0139 107.2291
L116.1092 107.4196
" />
<path d="M116.1092 107.4196
L116.2044 107.5149
" />
<path d="M116.2044 107.5149
L116.3949 107.6101
" />
<path d="M116.3949 107.6101
L116.7758 107.6101
" />
<path d="M116.7758 107.6101
L116.9663 107.5149
" />
<path d="M116.9663 107.5149
L117.0615 107.4196
" />
<path d="M117.0615 107.4196
L117.1568 107.2291
" />
<path d="M118.8711 107.0387
L118.8711 108.3720
" />
<path d="M118.3949 106.2768
L117.9187 107.7053
" />
<path d="M117.9187 107.7053
L119.1568 107.7053
" />
<path d="M119.8235 106.3720
L119.8235 106.7530
" />
<path d="M120.5854 106.3720
L120.5854 106.7530
" />
<path d="M123.5377 109.1339
L123.4425 109.0387
" />
<path d="M123.4425 109.0387
L123.2520 108.7530
" />
<path d="M123.2520 108.7530
L123.1568 108.5625
" />
<path d="M123.1568 108.5625
L123.0616 108.2768
" />
<path d="M123.0616 108.2768
L122.9663 107.8006
" />
<path d="M122.9663 107.8006
L122.9663 107.4196
" />
<path d="M122.9663 107.4196
L123.0616 106.9434
" />
<path d="M123.0616 106.9434
L123.1568 106.6577
" />
<path d="M123.1568 106.6577
L123.2520 106.4672
" />
<path d="M123.2520 106.4672
L123.4425 106.1815
" />
<path d="M123.4425 106.1815
L123.5377 106.0863
" />
<path d="M125.2520 106.3720
L124.2996 106.3720
" />
<path d="M124.2996 106.3720
L124.2044 107.3244
" />
<path d="M124.2044 107.3244
L124.2996 107.2291
" />
<path d="M124.2996 107.2291
L124.4901 107.1339
" />
<path d="M124.4901 107.1339
L124.9663 107.1339
" />
<path d="M124.9663 107.1339
L125.1568 107.2291
" />
<path d="M125.1568 107.2291
L125.2520 107.3244
" />
<path d="M125.2520 107.3244
L125.3473 107.5149
" />
<path d="M125.3473 107.5149
L125.3473 107.9910
" />
<path d="M125.3473 107.9910
L125.2520 108.1815
" />
<path d="M125.2520 108.1815
L125.1568 108.2768
" />
<path d="M125.1568 108.2768
L124.9663 108.3720
" />
<path d="M124.9663 108.3720
L124.4901 108.3720
" />
<path d="M124.4901 108.3720
L124.2996 108.2768
" />
<path d="M124.2996 108.2768
L124.2044 108.1815
" />
<path d="M127.7282 108.3720
L127.7282 106.3720
" />
<path d="M128.5854 108.3720
L128.5854 107.3244
" />
<path d="M128.5854 107.3244
L128.4901 107.1339
" />
<path d="M128.4901 107.1339
L128.2996 107.0387
" />
<path d="M128.2996 107.0387
L128.0139 107.0387
" />
<path d="M128.0139 107.0387
L127.8235 107.1339
" />
<path d="M127.8235 107.1339
L127.7282 107.2291
" />
<path d="M129.8235 108.3720
L129.6330 108.2768
" />
<path d="M129.6330 108.2768
L129.5377 108.1815
" />
<path d="M129.5377 108.1815
L129.4425 107.9910
" />
<path d="M129.4425 107.9910
L129.4425 107.4196
" />
<path d="M129.4425 107.4196
L129.5377 107.2291
" />
<path d="M129.5377 107.2291
L129.6330 107.1339
" />
<path d="M129.6330 107.1339
L129.8235 107.0387
" />
<path d="M129.8235 107.0387
L130.1092 107.0387
" />
<path d="M130.1092 107.0387
L130.2997 107.1339
" />
<path d="M130.2997 107.1339
L130.3949 107.2291
" />
<path d="M130.3949 107.2291
L130.4901 107.4196
" />
<path d="M130.4901 107.4196
L130.4901 107.9910
" />
<path d="M130.4901 107.9910
L130.3949 108.1815
" />
<path d="M130.3949 108.1815
L130.2997 108.2768
" />
<path d="M130.2997 108.2768
L130.1092 108.3720
" />
<path d="M130.1092 108.3720
L129.8235 108.3720
" />
<path d="M131.6330 108.3720
L131.4425 108.2768
" />
<path d="M131.4425 108.2768
L131.3473 108.0863
" />
<path d="M131.3473 108.0863
L131.3473 106.3720
" />
<path d="M133.1568 108.2768
L132.9663 108.3720
" />
<path d="M132.9663 108.3720
L132.5854 108.3720
" />
<path d="M132.5854 108.3720
L132.3949 108.2768
" />
<path d="M132.3949 108.2768
L132.2997 108.0863
" />
<path d="M132.2997 108.0863
L132.2997 107.3244
" />
<path d="M132.2997 107.3244
L132.3949 107.1339
" />
<path d="M132.3949 107.1339
L132.5854 107.0387
" />
<path d="M132.5854 107.0387
L132.9663 107.0387
" />
<path d="M132.9663 107.0387
L133.1568 107.1339
" />
<path d="M133.1568 107.1339
L133.2520 107.3244
" />
<path d="M133.2520 107.3244
L133.2520 107.5149
" />
<path d="M133.2520 107.5149
L132.2997 107.7053
" />
<path d="M134.0139 108.2768
L134.2044 108.3720
" />
<path d="M134.2044 108.3720
L134.5854 108.3720
" />
<path d="M134.5854 108.3720
L134.7758 108.2768
" />
<path d="M134.7758 108.2768
L134.8711 108.0863
" />
<path d="M134.8711 108.0863
L134.8711 107.9910
" />
<path d="M134.8711 107.9910
L134.7758 107.8006
" />
<path d="M134.7758 107.8006
L134.5854 107.7053
" />
<path d="M134.5854 107.7053
L134.2997 107.7053
" />
<path d="M134.2997 107.7053
L134.1092 107.6101
" />
<path d="M134.1092 107.6101
L134.0139 107.4196
" />
<path d="M134.0139 107.4196
L134.0139 107.3244
" />
<path d="M134.0139 107.3244
L134.1092 107.1339
" />
<path d="M134.1092 107.1339
L134.2997 107.0387
" />
<path d="M134.2997 107.0387
L134.5854 107.0387
" />
<path d="M134.5854 107.0387
L134.7758 107.1339
" />
<path d="M135.5378 109.1339
L135.6330 109.0387
" />
<path d="M135.6330 109.0387
L135.8235 108.7530
" />
<path d="M135.8235 108.7530
L135.9187 108.5625
" />
<path d="M135.9187 108.5625
L136.0139 108.2768
" />
<path d="M136.0139 108.2768
L136.1092 107.8006
" />
<path d="M136.1092 107.8006
L136.1092 107.4196
" />
<path d="M136.1092 107.4196
L136.0139 106.9434
" />
<path d="M136.0139 106.9434
L135.9187 106.6577
" />
<path d="M135.9187 106.6577
L135.8235 106.4672
" />
<path d="M135.8235 106.4672
L135.6330 106.1815
" />
<path d="M135.6330 106.1815
L135.5378 106.0863
" />
</g></g>
<g style="fill:#000000; fill-opacity:0.0; 
stroke:#000000; stroke-width:0.3000; stroke-opacity:1; 
stroke-linecap:round; stroke-linejoin:round;">
<path style="fill:#000000; fill-opacity:0.0; 
stroke:#000000; stroke-width:0.3000; stroke-opacity:1; 
stroke-linecap:round; stroke-linejoin:round;fill:none"
d="M 87.4942,111.3643
87.4942,109.9501
86.0800,109.9501
86.0800,111.3643
Z" /> 
</g>
<g style="fill:#000000; fill-opacity:0.0; 
stroke:#000000; stroke-width:0.6000; stroke-opacity:1; 
stroke-linecap:round; stroke-linejoin:round;">
</g>
<g style="fill:#000000; fill-opacity:0.0; 
stroke:#000000; stroke-width:0.2000; stroke-opacity:1; 
stroke-linecap:round; stroke-linejoin:round;">
<text x="89.7871" y="111.6572"
textLength="46.8667" font-size="2.6667" lengthAdjust="spacingAndGlyphs"
text-anchor="start" opacity="0">1.200mm / 0.0472" (6 holes)</text>
<g class="stroked-text"><desc>1.200mm / 0.0472" (6 holes)</desc>
<path d="M91.4425 111.5720
L90.2996 111.5720
" />
<path d="M90.8711 111.5720
L90.8711 109.5720
" />
<path d="M90.8711 109.5720
L90.6806 109.8577
" />
<path d="M90.6806 109.8577
L90.4901 110.0482
" />
<path d="M90.4901 110.0482
L90.2996 110.1434
" />
<path d="M92.2996 111.3815
L92.3949 111.4768
" />
<path d="M92.3949 111.4768
L92.2996 111.5720
" />
<path d="M92.2996 111.5720
L92.2044 111.4768
" />
<path d="M92.2044 111.4768
L92.2996 111.3815
" />
<path d="M92.2996 111.3815
L92.2996 111.5720
" />
<path d="M93.1568 109.7625
L93.2520 109.6672
" />
<path d="M93.2520 109.6672
L93.4425 109.5720
" />
<path d="M93.4425 109.5720
L93.9187 109.5720
" />
<path d="M93.9187 109.5720
L94.1092 109.6672
" />
<path d="M94.1092 109.6672
L94.2044 109.7625
" />
<path d="M94.2044 109.7625
L94.2996 109.9530
" />
<path d="M94.2996 109.9530
L94.2996 110.1434
" />
<path d="M94.2996 110.1434
L94.2044 110.4291
" />
<path d="M94.2044 110.4291
L93.0615 111.5720
" />
<path d="M93.0615 111.5720
L94.2996 111.5720
" />
<path d="M95.5377 109.5720
L95.7282 109.5720
" />
<path d="M95.7282 109.5720
L95.9187 109.6672
" />
<path d="M95.9187 109.6672
L96.0139 109.7625
" />
<path d="M96.0139 109.7625
L96.1092 109.9530
" />
<path d="M96.1092 109.9530
L96.2044 110.3339
" />
<path d="M96.2044 110.3339
L96.2044 110.8101
" />
<path d="M96.2044 110.8101
L96.1092 111.1910
" />
<path d="M96.1092 111.1910
L96.0139 111.3815
" />
<path d="M96.0139 111.3815
L95.9187 111.4768
" />
<path d="M95.9187 111.4768
L95.7282 111.5720
" />
<path d="M95.7282 111.5720
L95.5377 111.5720
" />
<path d="M95.5377 111.5720
L95.3473 111.4768
" />
<path d="M95.3473 111.4768
L95.2520 111.3815
" />
<path d="M95.2520 111.3815
L95.1568 111.1910
" />
<path d="M95.1568 111.1910
L95.0615 110.8101
" />
<path d="M95.0615 110.8101
L95.0615 110.3339
" />
<path d="M95.0615 110.3339
L95.1568 109.9530
" />
<path d="M95.1568 109.9530
L95.2520 109.7625
" />
<path d="M95.2520 109.7625
L95.3473 109.6672
" />
<path d="M95.3473 109.6672
L95.5377 109.5720
" />
<path d="M97.4425 109.5720
L97.6330 109.5720
" />
<path d="M97.6330 109.5720
L97.8234 109.6672
" />
<path d="M97.8234 109.6672
L97.9187 109.7625
" />
<path d="M97.9187 109.7625
L98.0139 109.9530
" />
<path d="M98.0139 109.9530
L98.1092 110.3339
" />
<path d="M98.1092 110.3339
L98.1092 110.8101
" />
<path d="M98.1092 110.8101
L98.0139 111.1910
" />
<path d="M98.0139 111.1910
L97.9187 111.3815
" />
<path d="M97.9187 111.3815
L97.8234 111.4768
" />
<path d="M97.8234 111.4768
L97.6330 111.5720
" />
<path d="M97.6330 111.5720
L97.4425 111.5720
" />
<path d="M97.4425 111.5720
L97.2520 111.4768
" />
<path d="M97.2520 111.4768
L97.1568 111.3815
" />
<path d="M97.1568 111.3815
L97.0615 111.1910
" />
<path d="M97.0615 111.1910
L96.9663 110.8101
" />
<path d="M96.9663 110.8101
L96.9663 110.3339
" />
<path d="M96.9663 110.3339
L97.0615 109.9530
" />
<path d="M97.0615 109.9530
L97.1568 109.7625
" />
<path d="M97.1568 109.7625
L97.2520 109.6672
" />
<path d="M97.2520 109.6672
L97.4425 109.5720
" />
<path d="M98.9663 111.5720
L98.9663 110.2387
" />
<path d="M98.9663 110.4291
L99.0615 110.3339
" />
<path d="M99.0615 110.3339
L99.2520 110.2387
" />
<path d="M99.2520 110.2387
L99.5377 110.2387
" />
<path d="M99.5377 110.2387
L99.7282 110.3339
" />
<path d="M99.7282 110.3339
L99.8234 110.5244
" />
<path d="M99.8234 110.5244
L99.8234 111.5720
" />
<path d="M99.8234 110.5244
L99.9187 110.3339
" />
<path d="M99.9187 110.3339
L100.1092 110.2387
" />
<path d="M100.1092 110.2387
L100.3949 110.2387
" />
<path d="M100.3949 110.2387
L100.5853 110.3339
" />
<path d="M100.5853 110.3339
L100.6806 110.5244
" />
<path d="M100.6806 110.5244
L100.6806 111.5720
" />
<path d="M101.6330 111.5720
L101.6330 110.2387
" />
<path d="M101.6330 110.4291
L101.7282 110.3339
" />
<path d="M101.7282 110.3339
L101.9187 110.2387
" />
<path d="M101.9187 110.2387
L102.2044 110.2387
" />
<path d="M102.2044 110.2387
L102.3949 110.3339
" />
<path d="M102.3949 110.3339
L102.4901 110.5244
" />
<path d="M102.4901 110.5244
L102.4901 111.5720
" />
<path d="M102.4901 110.5244
L102.5853 110.3339
" />
<path d="M102.5853 110.3339
L102.7758 110.2387
" />
<path d="M102.7758 110.2387
L103.0615 110.2387
" />
<path d="M103.0615 110.2387
L103.2520 110.3339
" />
<path d="M103.2520 110.3339
L103.3473 110.5244
" />
<path d="M103.3473 110.5244
L103.3473 111.5720
" />
<path d="M107.2520 109.4768
L105.5377 112.0482
" />
<path d="M109.8234 109.5720
L110.0139 109.5720
" />
<path d="M110.0139 109.5720
L110.2044 109.6672
" />
<path d="M110.2044 109.6672
L110.2996 109.7625
" />
<path d="M110.2996 109.7625
L110.3949 109.9530
" />
<path d="M110.3949 109.9530
L110.4901 110.3339
" />
<path d="M110.4901 110.3339
L110.4901 110.8101
" />
<path d="M110.4901 110.8101
L110.3949 111.1910
" />
<path d="M110.3949 111.1910
L110.2996 111.3815
" />
<path d="M110.2996 111.3815
L110.2044 111.4768
" />
<path d="M110.2044 111.4768
L110.0139 111.5720
" />
<path d="M110.0139 111.5720
L109.8234 111.5720
" />
<path d="M109.8234 111.5720
L109.6330 111.4768
" />
<path d="M109.6330 111.4768
L109.5377 111.3815
" />
<path d="M109.5377 111.3815
L109.4425 111.1910
" />
<path d="M109.4425 111.1910
L109.3473 110.8101
" />
<path d="M109.3473 110.8101
L109.3473 110.3339
" />
<path d="M109.3473 110.3339
L109.4425 109.9530
" />
<path d="M109.4425 109.9530
L109.5377 109.7625
" />
<path d="M109.5377 109.7625
L109.6330 109.6672
" />
<path d="M109.6330 109.6672
L109.8234 109.5720
" />
<path d="M111.3473 111.3815
L111.4425 111.4768
" />
<path d="M111.4425 111.4768
L111.3473 111.5720
" />
<path d="M111.3473 111.5720
L111.2520 111.4768
" />
<path d="M111.2520 111.4768
L111.3473 111.3815
" />
<path d="M111.3473 111.3815
L111.3473 111.5720
" />
<path d="M112.6806 109.5720
L112.8711 109.5720
" />
<path d="M112.8711 109.5720
L113.0615 109.6672
" />
<path d="M113.0615 109.6672
L113.1568 109.7625
" />
<path d="M113.1568 109.7625
L113.2520 109.9530
" />
<path d="M113.2520 109.9530
L113.3473 110.3339
" />
<path d="M113.3473 110.3339
L113.3473 110.8101
" />
<path d="M113.3473 110.8101
L113.2520 111.1910
" />
<path d="M113.2520 111.1910
L113.1568 111.3815
" />
<path d="M113.1568 111.3815
L113.0615 111.4768
" />
<path d="M113.0615 111.4768
L112.8711 111.5720
" />
<path d="M112.8711 111.5720
L112.6806 111.5720
" />
<path d="M112.6806 111.5720
L112.4901 111.4768
" />
<path d="M112.4901 111.4768
L112.3949 111.3815
" />
<path d="M112.3949 111.3815
L112.2996 111.1910
" />
<path d="M112.2996 111.1910
L112.2044 110.8101
" />
<path d="M112.2044 110.8101
L112.2044 110.3339
" />
<path d="M112.2044 110.3339
L112.2996 109.9530
" />
<path d="M112.2996 109.9530
L112.3949 109.7625
" />
<path d="M112.3949 109.7625
L112.4901 109.6672
" />
<path d="M112.4901 109.6672
L112.6806 109.5720
" />
<path d="M115.0615 110.2387
L115.0615 111.5720
" />
<path d="M114.5854 109.4768
L114.1092 110.9053
" />
<path d="M114.1092 110.9053
L115.3473 110.9053
" />
<path d="M115.9187 109.5720
L117.2520 109.5720
" />
<path d="M117.2520 109.5720
L116.3949 111.5720
" />
<path d="M117.9187 109.7625
L118.0139 109.6672
" />
<path d="M118.0139 109.6672
L118.2044 109.5720
" />
<path d="M118.2044 109.5720
L118.6806 109.5720
" />
<path d="M118.6806 109.5720
L118.8711 109.6672
" />
<path d="M118.8711 109.6672
L118.9663 109.7625
" />
<path d="M118.9663 109.7625
L119.0615 109.9530
" />
<path d="M119.0615 109.9530
L119.0615 110.1434
" />
<path d="M119.0615 110.1434
L118.9663 110.4291
" />
<path d="M118.9663 110.4291
L117.8235 111.5720
" />
<path d="M117.8235 111.5720
L119.0615 111.5720
" />
<path d="M119.8235 109.5720
L119.8235 109.9530
" />
<path d="M120.5854 109.5720
L120.5854 109.9530
" />
<path d="M123.5377 112.3339
L123.4425 112.2387
" />
<path d="M123.4425 112.2387
L123.2520 111.9530
" />
<path d="M123.2520 111.9530
L123.1568 111.7625
" />
<path d="M123.1568 111.7625
L123.0616 111.4768
" />
<path d="M123.0616 111.4768
L122.9663 111.0006
" />
<path d="M122.9663 111.0006
L122.9663 110.6196
" />
<path d="M122.9663 110.6196
L123.0616 110.1434
" />
<path d="M123.0616 110.1434
L123.1568 109.8577
" />
<path d="M123.1568 109.8577
L123.2520 109.6672
" />
<path d="M123.2520 109.6672
L123.4425 109.3815
" />
<path d="M123.4425 109.3815
L123.5377 109.2863
" />
<path d="M125.1568 109.5720
L124.7758 109.5720
" />
<path d="M124.7758 109.5720
L124.5854 109.6672
" />
<path d="M124.5854 109.6672
L124.4901 109.7625
" />
<path d="M124.4901 109.7625
L124.2996 110.0482
" />
<path d="M124.2996 110.0482
L124.2044 110.4291
" />
<path d="M124.2044 110.4291
L124.2044 111.1910
" />
<path d="M124.2044 111.1910
L124.2996 111.3815
" />
<path d="M124.2996 111.3815
L124.3949 111.4768
" />
<path d="M124.3949 111.4768
L124.5854 111.5720
" />
<path d="M124.5854 111.5720
L124.9663 111.5720
" />
<path d="M124.9663 111.5720
L125.1568 111.4768
" />
<path d="M125.1568 111.4768
L125.2520 111.3815
" />
<path d="M125.2520 111.3815
L125.3473 111.1910
" />
<path d="M125.3473 111.1910
L125.3473 110.7149
" />
<path d="M125.3473 110.7149
L125.2520 110.5244
" />
<path d="M125.2520 110.5244
L125.1568 110.4291
" />
<path d="M125.1568 110.4291
L124.9663 110.3339
" />
<path d="M124.9663 110.3339
L124.5854 110.3339
" />
<path d="M124.5854 110.3339
L124.3949 110.4291
" />
<path d="M124.3949 110.4291
L124.2996 110.5244
" />
<path d="M124.2996 110.5244
L124.2044 110.7149
" />
<path d="M127.7282 111.5720
L127.7282 109.5720
" />
<path d="M128.5854 111.5720
L128.5854 110.5244
" />
<path d="M128.5854 110.5244
L128.4901 110.3339
" />
<path d="M128.4901 110.3339
L128.2996 110.2387
" />
<path d="M128.2996 110.2387
L128.0139 110.2387
" />
<path d="M128.0139 110.2387
L127.8235 110.3339
" />
<path d="M127.8235 110.3339
L127.7282 110.4291
" />
<path d="M129.8235 111.5720
L129.6330 111.4768
" />
<path d="M129.6330 111.4768
L129.5377 111.3815
" />
<path d="M129.5377 111.3815
L129.4425 111.1910
" />
<path d="M129.4425 111.1910
L129.4425 110.6196
" />
<path d="M129.4425 110.6196
L129.5377 110.4291
" />
<path d="M129.5377 110.4291
L129.6330 110.3339
" />
<path d="M129.6330 110.3339
L129.8235 110.2387
" />
<path d="M129.8235 110.2387
L130.1092 110.2387
" />
<path d="M130.1092 110.2387
L130.2997 110.3339
" />
<path d="M130.2997 110.3339
L130.3949 110.4291
" />
<path d="M130.3949 110.4291
L130.4901 110.6196
" />
<path d="M130.4901 110.6196
L130.4901 111.1910
" />
<path d="M130.4901 111.1910
L130.3949 111.3815
" />
<path d="M130.3949 111.3815
L130.2997 111.4768
" />
<path d="M130.2997 111.4768
L130.1092 111.5720
" />
<path d="M130.1092 111.5720
L129.8235 111.5720
" />
<path d="M131.6330 111.5720
L131.4425 111.4768
" />
<path d="M131.4425 111.4768
L131.3473 111.2863
" />
<path d="M131.3473 111.2863
L131.3473 109.5720
" />
<path d="M133.1568 111.4768
L132.9663 111.5720
" />
<path d="M132.9663 111.5720
L132.5854 111.5720
" />
<path d="M132.5854 111.5720
L132.3949 111.4768
" />
<path d="M132.3949 111.4768
L132.2997 111.2863
" />
<path d="M132.2997 111.2863
L132.2997 110.5244
" />
<path d="M132.2997 110.5244
L132.3949 110.3339
" />
<path d="M132.3949 110.3339
L132.5854 110.2387
" />
<path d="M132.5854 110.2387
L132.9663 110.2387
" />
<path d="M132.9663 110.2387
L133.1568 110.3339
" />
<path d="M133.1568 110.3339
L133.2520 110.5244
" />
<path d="M133.2520 110.5244
L133.2520 110.7149
" />
<path d="M133.2520 110.7149
L132.2997 110.9053
" />
<path d="M134.0139 111.4768
L134.2044 111.5720
" />
<path d="M134.2044 111.5720
L134.5854 111.5720
" />
<path d="M134.5854 111.5720
L134.7758 111.4768
" />
<path d="M134.7758 111.4768
L134.8711 111.2863
" />
<path d="M134.8711 111.2863
L134.8711 111.1910
" />
<path d="M134.8711 111.1910
L134.7758 111.0006
" />
<path d="M134.7758 111.0006
L134.5854 110.9053
" />
<path d="M134.5854 110.9053
L134.2997 110.9053
" />
<path d="M134.2997 110.9053
L134.1092 110.8101
" />
<path d="M134.1092 110.8101
L134.0139 110.6196
" />
<path d="M134.0139 110.6196
L134.0139 110.5244
" />
<path d="M134.0139 110.5244
L134.1092 110.3339
" />
<path d="M134.1092 110.3339
L134.2997 110.2387
" />
<path d="M134.2997 110.2387
L134.5854 110.2387
" />
<path d="M134.5854 110.2387
L134.7758 110.3339
" />
<path d="M135.5378 112.3339
L135.6330 112.2387
" />
<path d="M135.6330 112.2387
L135.8235 111.9530
" />
<path d="M135.8235 111.9530
L135.9187 111.7625
" />
<path d="M135.9187 111.7625
L136.0139 111.4768
" />
<path d="M136.0139 111.4768
L136.1092 111.0006
" />
<path d="M136.1092 111.0006
L136.1092 110.6196
" />
<path d="M136.1092 110.6196
L136.0139 110.1434
" />
<path d="M136.0139 110.1434
L135.9187 109.8577
" />
<path d="M135.9187 109.8577
L135.8235 109.6672
" />
<path d="M135.8235 109.6672
L135.6330 109.3815
" />
<path d="M135.6330 109.3815
L135.5378 109.2863
" />
</g></g>
<g style="fill:#000000; fill-opacity:0.0; 
stroke:#000000; stroke-width:0.3000; stroke-opacity:1; 
stroke-linecap:round; stroke-linejoin:round;">
<path style="fill:#000000; fill-opacity:0.0; 
stroke:#000000; stroke-width:0.3000; stroke-opacity:1; 
stroke-linecap:round; stroke-linejoin:round;fill:none"
d="M 86.7871,114.8572
87.7871,113.8572
86.7871,112.8572
85.7871,113.8572
Z" /> 
</g>
<g style="fill:#000000; fill-opacity:0.0; 
stroke:#000000; stroke-width:0.6000; stroke-opacity:1; 
stroke-linecap:round; stroke-linejoin:round;">
</g>
<g style="fill:#000000; fill-opacity:0.0; 
stroke:#000000; stroke-width:0.2000; stroke-opacity:1; 
stroke-linecap:round; stroke-linejoin:round;">
<text x="89.7871" y="114.8572"
textLength="46.8667" font-size="2.6667" lengthAdjust="spacingAndGlyphs"
text-anchor="start" opacity="0">2.000mm / 0.0787" (2 holes)</text>
<g class="stroked-text"><desc>2.000mm / 0.0787" (2 holes)</desc>
<path d="M90.2996 112.9625
L90.3949 112.8672
" />
<path d="M90.3949 112.8672
L90.5853 112.7720
" />
<path d="M90.5853 112.7720
L91.0615 112.7720
" />
<path d="M91.0615 112.7720
L91.2520 112.8672
" />
<path d="M91.2520 112.8672
L91.3472 112.9625
" />
<path d="M91.3472 112.9625
L91.4425 113.1530
" />
<path d="M91.4425 113.1530
L91.4425 113.3434
" />
<path d="M91.4425 113.3434
L91.3472 113.6291
" />
<path d="M91.3472 113.6291
L90.2044 114.7720
" />
<path d="M90.2044 114.7720
L91.4425 114.7720
" />
<path d="M92.2996 114.5815
L92.3949 114.6768
" />
<path d="M92.3949 114.6768
L92.2996 114.7720
" />
<path d="M92.2996 114.7720
L92.2044 114.6768
" />
<path d="M92.2044 114.6768
L92.2996 114.5815
" />
<path d="M92.2996 114.5815
L92.2996 114.7720
" />
<path d="M93.6330 112.7720
L93.8234 112.7720
" />
<path d="M93.8234 112.7720
L94.0139 112.8672
" />
<path d="M94.0139 112.8672
L94.1092 112.9625
" />
<path d="M94.1092 112.9625
L94.2044 113.1530
" />
<path d="M94.2044 113.1530
L94.2996 113.5339
" />
<path d="M94.2996 113.5339
L94.2996 114.0101
" />
<path d="M94.2996 114.0101
L94.2044 114.3910
" />
<path d="M94.2044 114.3910
L94.1092 114.5815
" />
<path d="M94.1092 114.5815
L94.0139 114.6768
" />
<path d="M94.0139 114.6768
L93.8234 114.7720
" />
<path d="M93.8234 114.7720
L93.6330 114.7720
" />
<path d="M93.6330 114.7720
L93.4425 114.6768
" />
<path d="M93.4425 114.6768
L93.3473 114.5815
" />
<path d="M93.3473 114.5815
L93.2520 114.3910
" />
<path d="M93.2520 114.3910
L93.1568 114.0101
" />
<path d="M93.1568 114.0101
L93.1568 113.5339
" />
<path d="M93.1568 113.5339
L93.2520 113.1530
" />
<path d="M93.2520 113.1530
L93.3473 112.9625
" />
<path d="M93.3473 112.9625
L93.4425 112.8672
" />
<path d="M93.4425 112.8672
L93.6330 112.7720
" />
<path d="M95.5377 112.7720
L95.7282 112.7720
" />
<path d="M95.7282 112.7720
L95.9187 112.8672
" />
<path d="M95.9187 112.8672
L96.0139 112.9625
" />
<path d="M96.0139 112.9625
L96.1092 113.1530
" />
<path d="M96.1092 113.1530
L96.2044 113.5339
" />
<path d="M96.2044 113.5339
L96.2044 114.0101
" />
<path d="M96.2044 114.0101
L96.1092 114.3910
" />
<path d="M96.1092 114.3910
L96.0139 114.5815
" />
<path d="M96.0139 114.5815
L95.9187 114.6768
" />
<path d="M95.9187 114.6768
L95.7282 114.7720
" />
<path d="M95.7282 114.7720
L95.5377 114.7720
" />
<path d="M95.5377 114.7720
L95.3473 114.6768
" />
<path d="M95.3473 114.6768
L95.2520 114.5815
" />
<path d="M95.2520 114.5815
L95.1568 114.3910
" />
<path d="M95.1568 114.3910
L95.0615 114.0101
" />
<path d="M95.0615 114.0101
L95.0615 113.5339
" />
<path d="M95.0615 113.5339
L95.1568 113.1530
" />
<path d="M95.1568 113.1530
L95.2520 112.9625
" />
<path d="M95.2520 112.9625
L95.3473 112.8672
" />
<path d="M95.3473 112.8672
L95.5377 112.7720
" />
<path d="M97.4425 112.7720
L97.6330 112.7720
" />
<path d="M97.6330 112.7720
L97.8234 112.8672
" />
<path d="M97.8234 112.8672
L97.9187 112.9625
" />
<path d="M97.9187 112.9625
L98.0139 113.1530
" />
<path d="M98.0139 113.1530
L98.1092 113.5339
" />
<path d="M98.1092 113.5339
L98.1092 114.0101
" />
<path d="M98.1092 114.0101
L98.0139 114.3910
" />
<path d="M98.0139 114.3910
L97.9187 114.5815
" />
<path d="M97.9187 114.5815
L97.8234 114.6768
" />
<path d="M97.8234 114.6768
L97.6330 114.7720
" />
<path d="M97.6330 114.7720
L97.4425 114.7720
" />
<path d="M97.4425 114.7720
L97.2520 114.6768
" />
<path d="M97.2520 114.6768
L97.1568 114.5815
" />
<path d="M97.1568 114.5815
L97.0615 114.3910
" />
<path d="M97.0615 114.3910
L96.9663 114.0101
" />
<path d="M96.9663 114.0101
L96.9663 113.5339
" />
<path d="M96.9663 113.5339
L97.0615 113.1530
" />
<path d="M97.0615 113.1530
L97.1568 112.9625
" />
<path d="M97.1568 112.9625
L97.2520 112.8672
" />
<path d="M97.2520 112.8672
L97.4425 112.7720
" />
<path d="M98.9663 114.7720
L98.9663 113.4387
" />
<path d="M98.9663 113.6291
L99.0615 113.5339
" />
<path d="M99.0615 113.5339
L99.2520 113.4387
" />
<path d="M99.2520 113.4387
L99.5377 113.4387
" />
<path d="M99.5377 113.4387
L99.7282 113.5339
" />
<path d="M99.7282 113.5339
L99.8234 113.7244
" />
<path d="M99.8234 113.7244
L99.8234 114.7720
" />
<path d="M99.8234 113.7244
L99.9187 113.5339
" />
<path d="M99.9187 113.5339
L100.1092 113.4387
" />
<path d="M100.1092 113.4387
L100.3949 113.4387
" />
<path d="M100.3949 113.4387
L100.5853 113.5339
" />
<path d="M100.5853 113.5339
L100.6806 113.7244
" />
<path d="M100.6806 113.7244
L100.6806 114.7720
" />
<path d="M101.6330 114.7720
L101.6330 113.4387
" />
<path d="M101.6330 113.6291
L101.7282 113.5339
" />
<path d="M101.7282 113.5339
L101.9187 113.4387
" />
<path d="M101.9187 113.4387
L102.2044 113.4387
" />
<path d="M102.2044 113.4387
L102.3949 113.5339
" />
<path d="M102.3949 113.5339
L102.4901 113.7244
" />
<path d="M102.4901 113.7244
L102.4901 114.7720
" />
<path d="M102.4901 113.7244
L102.5853 113.5339
" />
<path d="M102.5853 113.5339
L102.7758 113.4387
" />
<path d="M102.7758 113.4387
L103.0615 113.4387
" />
<path d="M103.0615 113.4387
L103.2520 113.5339
" />
<path d="M103.2520 113.5339
L103.3473 113.7244
" />
<path d="M103.3473 113.7244
L103.3473 114.7720
" />
<path d="M107.2520 112.6768
L105.5377 115.2482
" />
<path d="M109.8234 112.7720
L110.0139 112.7720
" />
<path d="M110.0139 112.7720
L110.2044 112.8672
" />
<path d="M110.2044 112.8672
L110.2996 112.9625
" />
<path d="M110.2996 112.9625
L110.3949 113.1530
" />
<path d="M110.3949 113.1530
L110.4901 113.5339
" />
<path d="M110.4901 113.5339
L110.4901 114.0101
" />
<path d="M110.4901 114.0101
L110.3949 114.3910
" />
<path d="M110.3949 114.3910
L110.2996 114.5815
" />
<path d="M110.2996 114.5815
L110.2044 114.6768
" />
<path d="M110.2044 114.6768
L110.0139 114.7720
" />
<path d="M110.0139 114.7720
L109.8234 114.7720
" />
<path d="M109.8234 114.7720
L109.6330 114.6768
" />
<path d="M109.6330 114.6768
L109.5377 114.5815
" />
<path d="M109.5377 114.5815
L109.4425 114.3910
" />
<path d="M109.4425 114.3910
L109.3473 114.0101
" />
<path d="M109.3473 114.0101
L109.3473 113.5339
" />
<path d="M109.3473 113.5339
L109.4425 113.1530
" />
<path d="M109.4425 113.1530
L109.5377 112.9625
" />
<path d="M109.5377 112.9625
L109.6330 112.8672
" />
<path d="M109.6330 112.8672
L109.8234 112.7720
" />
<path d="M111.3473 114.5815
L111.4425 114.6768
" />
<path d="M111.4425 114.6768
L111.3473 114.7720
" />
<path d="M111.3473 114.7720
L111.2520 114.6768
" />
<path d="M111.2520 114.6768
L111.3473 114.5815
" />
<path d="M111.3473 114.5815
L111.3473 114.7720
" />
<path d="M112.6806 112.7720
L112.8711 112.7720
" />
<path d="M112.8711 112.7720
L113.0615 112.8672
" />
<path d="M113.0615 112.8672
L113.1568 112.9625
" />
<path d="M113.1568 112.9625
L113.2520 113.1530
" />
<path d="M113.2520 113.1530
L113.3473 113.5339
" />
<path d="M113.3473 113.5339
L113.3473 114.0101
" />
<path d="M113.3473 114.0101
L113.2520 114.3910
" />
<path d="M113.2520 114.3910
L113.1568 114.5815
" />
<path d="M113.1568 114.5815
L113.0615 114.6768
" />
<path d="M113.0615 114.6768
L112.8711 114.7720
" />
<path d="M112.8711 114.7720
L112.6806 114.7720
" />
<path d="M112.6806 114.7720
L112.4901 114.6768
" />
<path d="M112.4901 114.6768
L112.3949 114.5815
" />
<path d="M112.3949 114.5815
L112.2996 114.3910
" />
<path d="M112.2996 114.3910
L112.2044 114.0101
" />
<path d="M112.2044 114.0101
L112.2044 113.5339
" />
<path d="M112.2044 113.5339
L112.2996 113.1530
" />
<path d="M112.2996 113.1530
L112.3949 112.9625
" />
<path d="M112.3949 112.9625
L112.4901 112.8672
" />
<path d="M112.4901 112.8672
L112.6806 112.7720
" />
<path d="M114.0139 112.7720
L115.3473 112.7720
" />
<path d="M115.3473 112.7720
L114.4901 114.7720
" />
<path d="M116.3949 113.6291
L116.2044 113.5339
" />
<path d="M116.2044 113.5339
L116.1092 113.4387
" />
<path d="M116.1092 113.4387
L116.0139 113.2482
" />
<path d="M116.0139 113.2482
L116.0139 113.1530
" />
<path d="M116.0139 113.1530
L116.1092 112.9625
" />
<path d="M116.1092 112.9625
L116.2044 112.8672
" />
<path d="M116.2044 112.8672
L116.3949 112.7720
" />
<path d="M116.3949 112.7720
L116.7758 112.7720
" />
<path d="M116.7758 112.7720
L116.9663 112.8672
" />
<path d="M116.9663 112.8672
L117.0615 112.9625
" />
<path d="M117.0615 112.9625
L117.1568 113.1530
" />
<path d="M117.1568 113.1530
L117.1568 113.2482
" />
<path d="M117.1568 113.2482
L117.0615 113.4387
" />
<path d="M117.0615 113.4387
L116.9663 113.5339
" />
<path d="M116.9663 113.5339
L116.7758 113.6291
" />
<path d="M116.7758 113.6291
L116.3949 113.6291
" />
<path d="M116.3949 113.6291
L116.2044 113.7244
" />
<path d="M116.2044 113.7244
L116.1092 113.8196
" />
<path d="M116.1092 113.8196
L116.0139 114.0101
" />
<path d="M116.0139 114.0101
L116.0139 114.3910
" />
<path d="M116.0139 114.3910
L116.1092 114.5815
" />
<path d="M116.1092 114.5815
L116.2044 114.6768
" />
<path d="M116.2044 114.6768
L116.3949 114.7720
" />
<path d="M116.3949 114.7720
L116.7758 114.7720
" />
<path d="M116.7758 114.7720
L116.9663 114.6768
" />
<path d="M116.9663 114.6768
L117.0615 114.5815
" />
<path d="M117.0615 114.5815
L117.1568 114.3910
" />
<path d="M117.1568 114.3910
L117.1568 114.0101
" />
<path d="M117.1568 114.0101
L117.0615 113.8196
" />
<path d="M117.0615 113.8196
L116.9663 113.7244
" />
<path d="M116.9663 113.7244
L116.7758 113.6291
" />
<path d="M117.8235 112.7720
L119.1568 112.7720
" />
<path d="M119.1568 112.7720
L118.2996 114.7720
" />
<path d="M119.8235 112.7720
L119.8235 113.1530
" />
<path d="M120.5854 112.7720
L120.5854 113.1530
" />
<path d="M123.5377 115.5339
L123.4425 115.4387
" />
<path d="M123.4425 115.4387
L123.2520 115.1530
" />
<path d="M123.2520 115.1530
L123.1568 114.9625
" />
<path d="M123.1568 114.9625
L123.0616 114.6768
" />
<path d="M123.0616 114.6768
L122.9663 114.2006
" />
<path d="M122.9663 114.2006
L122.9663 113.8196
" />
<path d="M122.9663 113.8196
L123.0616 113.3434
" />
<path d="M123.0616 113.3434
L123.1568 113.0577
" />
<path d="M123.1568 113.0577
L123.2520 112.8672
" />
<path d="M123.2520 112.8672
L123.4425 112.5815
" />
<path d="M123.4425 112.5815
L123.5377 112.4863
" />
<path d="M124.2044 112.9625
L124.2996 112.8672
" />
<path d="M124.2996 112.8672
L124.4901 112.7720
" />
<path d="M124.4901 112.7720
L124.9663 112.7720
" />
<path d="M124.9663 112.7720
L125.1568 112.8672
" />
<path d="M125.1568 112.8672
L125.2520 112.9625
" />
<path d="M125.2520 112.9625
L125.3473 113.1530
" />
<path d="M125.3473 113.1530
L125.3473 113.3434
" />
<path d="M125.3473 113.3434
L125.2520 113.6291
" />
<path d="M125.2520 113.6291
L124.1092 114.7720
" />
<path d="M124.1092 114.7720
L125.3473 114.7720
" />
<path d="M127.7282 114.7720
L127.7282 112.7720
" />
<path d="M128.5854 114.7720
L128.5854 113.7244
" />
<path d="M128.5854 113.7244
L128.4901 113.5339
" />
<path d="M128.4901 113.5339
L128.2996 113.4387
" />
<path d="M128.2996 113.4387
L128.0139 113.4387
" />
<path d="M128.0139 113.4387
L127.8235 113.5339
" />
<path d="M127.8235 113.5339
L127.7282 113.6291
" />
<path d="M129.8235 114.7720
L129.6330 114.6768
" />
<path d="M129.6330 114.6768
L129.5377 114.5815
" />
<path d="M129.5377 114.5815
L129.4425 114.3910
" />
<path d="M129.4425 114.3910
L129.4425 113.8196
" />
<path d="M129.4425 113.8196
L129.5377 113.6291
" />
<path d="M129.5377 113.6291
L129.6330 113.5339
" />
<path d="M129.6330 113.5339
L129.8235 113.4387
" />
<path d="M129.8235 113.4387
L130.1092 113.4387
" />
<path d="M130.1092 113.4387
L130.2997 113.5339
" />
<path d="M130.2997 113.5339
L130.3949 113.6291
" />
<path d="M130.3949 113.6291
L130.4901 113.8196
" />
<path d="M130.4901 113.8196
L130.4901 114.3910
" />
<path d="M130.4901 114.3910
L130.3949 114.5815
" />
<path d="M130.3949 114.5815
L130.2997 114.6768
" />
<path d="M130.2997 114.6768
L130.1092 114.7720
" />
<path d="M130.1092 114.7720
L129.8235 114.7720
" />
<path d="M131.6330 114.7720
L131.4425 114.6768
" />
<path d="M131.4425 114.6768
L131.3473 114.4863
" />
<path d="M131.3473 114.4863
L131.3473 112.7720
" />
<path d="M133.1568 114.6768
L132.9663 114.7720
" />
<path d="M132.9663 114.7720
L132.5854 114.7720
" />
<path d="M132.5854 114.7720
L132.3949 114.6768
" />
<path d="M132.3949 114.6768
L132.2997 114.4863
" />
<path d="M132.2997 114.4863
L132.2997 113.7244
" />
<path d="M132.2997 113.7244
L132.3949 113.5339
" />
<path d="M132.3949 113.5339
L132.5854 113.4387
" />
<path d="M132.5854 113.4387
L132.9663 113.4387
" />
<path d="M132.9663 113.4387
L133.1568 113.5339
" />
<path d="M133.1568 113.5339
L133.2520 113.7244
" />
<path d="M133.2520 113.7244
L133.2520 113.9149
" />
<path d="M133.2520 113.9149
L132.2997 114.1053
" />
<path d="M134.0139 114.6768
L134.2044 114.7720
" />
<path d="M134.2044 114.7720
L134.5854 114.7720
" />
<path d="M134.5854 114.7720
L134.7758 114.6768
" />
<path d="M134.7758 114.6768
L134.8711 114.4863
" />
<path d="M134.8711 114.4863
L134.8711 114.3910
" />
<path d="M134.8711 114.3910
L134.7758 114.2006
" />
<path d="M134.7758 114.2006
L134.5854 114.1053
" />
<path d="M134.5854 114.1053
L134.2997 114.1053
" />
<path d="M134.2997 114.1053
L134.1092 114.0101
" />
<path d="M134.1092 114.0101
L134.0139 113.8196
" />
<path d="M134.0139 113.8196
L134.0139 113.7244
" />
<path d="M134.0139 113.7244
L134.1092 113.5339
" />
<path d="M134.1092 113.5339
L134.2997 113.4387
" />
<path d="M134.2997 113.4387
L134.5854 113.4387
" />
<path d="M134.5854 113.4387
L134.7758 113.5339
" />
<path d="M135.5378 115.5339
L135.6330 115.4387
" />
<path d="M135.6330 115.4387
L135.8235 115.1530
" />
<path d="M135.8235 115.1530
L135.9187 114.9625
" />
<path d="M135.9187 114.9625
L136.0139 114.6768
" />
<path d="M136.0139 114.6768
L136.1092 114.2006
" />
<path d="M136.1092 114.2006
L136.1092 113.8196
" />
<path d="M136.1092 113.8196
L136.0139 113.3434
" />
<path d="M136.0139 113.3434
L135.9187 113.0577
" />
<path d="M135.9187 113.0577
L135.8235 112.8672
" />
<path d="M135.8235 112.8672
L135.6330 112.5815
" />
<path d="M135.6330 112.5815
L135.5378 112.4863
" />
</g></g>
<g style="fill:#000000; fill-opacity:0.0; 
stroke:#000000; stroke-width:0.3000; stroke-opacity:1; 
stroke-linecap:round; stroke-linejoin:round;">
<path d="M85.7871 116.0572
L87.7871 118.0572
" />
<path d="M87.7871 116.0572
L85.7871 118.0572
" />
<circle cx="86.7871" cy="117.0572" r="1.0000" /> 
</g>
<g style="fill:#000000; fill-opacity:0.0; 
stroke:#000000; stroke-width:0.6000; stroke-opacity:1; 
stroke-linecap:round; stroke-linejoin:round;">
</g>
<g style="fill:#000000; fill-opacity:0.0; 
stroke:#000000; stroke-width:0.2000; stroke-opacity:1; 
stroke-linecap:round; stroke-linejoin:round;">
<text x="89.7871" y="118.0572"
textLength="46.8667" font-size="2.6667" lengthAdjust="spacingAndGlyphs"
text-anchor="start" opacity="0">2.100mm / 0.0827" (2 holes)</text>
<g class="stroked-text"><desc>2.100mm / 0.0827" (2 holes)</desc>
<path d="M90.2996 116.1625
L90.3949 116.0672
" />
<path d="M90.3949 116.0672
L90.5853 115.9720
" />
<path d="M90.5853 115.9720
L91.0615 115.9720
" />
<path d="M91.0615 115.9720
L91.2520 116.0672
" />
<path d="M91.2520 116.0672
L91.3472 116.1625
" />
<path d="M91.3472 116.1625
L91.4425 116.3530
" />
<path d="M91.4425 116.3530
L91.4425 116.5434
" />
<path d="M91.4425 116.5434
L91.3472 116.8291
" />
<path d="M91.3472 116.8291
L90.2044 117.9720
" />
<path d="M90.2044 117.9720
L91.4425 117.9720
" />
<path d="M92.2996 117.7815
L92.3949 117.8768
" />
<path d="M92.3949 117.8768
L92.2996 117.9720
" />
<path d="M92.2996 117.9720
L92.2044 117.8768
" />
<path d="M92.2044 117.8768
L92.2996 117.7815
" />
<path d="M92.2996 117.7815
L92.2996 117.9720
" />
<path d="M94.2996 117.9720
L93.1568 117.9720
" />
<path d="M93.7282 117.9720
L93.7282 115.9720
" />
<path d="M93.7282 115.9720
L93.5377 116.2577
" />
<path d="M93.5377 116.2577
L93.3473 116.4482
" />
<path d="M93.3473 116.4482
L93.1568 116.5434
" />
<path d="M95.5377 115.9720
L95.7282 115.9720
" />
<path d="M95.7282 115.9720
L95.9187 116.0672
" />
<path d="M95.9187 116.0672
L96.0139 116.1625
" />
<path d="M96.0139 116.1625
L96.1092 116.3530
" />
<path d="M96.1092 116.3530
L96.2044 116.7339
" />
<path d="M96.2044 116.7339
L96.2044 117.2101
" />
<path d="M96.2044 117.2101
L96.1092 117.5911
" />
<path d="M96.1092 117.5911
L96.0139 117.7815
" />
<path d="M96.0139 117.7815
L95.9187 117.8768
" />
<path d="M95.9187 117.8768
L95.7282 117.9720
" />
<path d="M95.7282 117.9720
L95.5377 117.9720
" />
<path d="M95.5377 117.9720
L95.3473 117.8768
" />
<path d="M95.3473 117.8768
L95.2520 117.7815
" />
<path d="M95.2520 117.7815
L95.1568 117.5911
" />
<path d="M95.1568 117.5911
L95.0615 117.2101
" />
<path d="M95.0615 117.2101
L95.0615 116.7339
" />
<path d="M95.0615 116.7339
L95.1568 116.3530
" />
<path d="M95.1568 116.3530
L95.2520 116.1625
" />
<path d="M95.2520 116.1625
L95.3473 116.0672
" />
<path d="M95.3473 116.0672
L95.5377 115.9720
" />
<path d="M97.4425 115.9720
L97.6330 115.9720
" />
<path d="M97.6330 115.9720
L97.8234 116.0672
" />
<path d="M97.8234 116.0672
L97.9187 116.1625
" />
<path d="M97.9187 116.1625
L98.0139 116.3530
" />
<path d="M98.0139 116.3530
L98.1092 116.7339
" />
<path d="M98.1092 116.7339
L98.1092 117.2101
" />
<path d="M98.1092 117.2101
L98.0139 117.5911
" />
<path d="M98.0139 117.5911
L97.9187 117.7815
" />
<path d="M97.9187 117.7815
L97.8234 117.8768
" />
<path d="M97.8234 117.8768
L97.6330 117.9720
" />
<path d="M97.6330 117.9720
L97.4425 117.9720
" />
<path d="M97.4425 117.9720
L97.2520 117.8768
" />
<path d="M97.2520 117.8768
L97.1568 117.7815
" />
<path d="M97.1568 117.7815
L97.0615 117.5911
" />
<path d="M97.0615 117.5911
L96.9663 117.2101
" />
<path d="M96.9663 117.2101
L96.9663 116.7339
" />
<path d="M96.9663 116.7339
L97.0615 116.3530
" />
<path d="M97.0615 116.3530
L97.1568 116.1625
" />
<path d="M97.1568 116.1625
L97.2520 116.0672
" />
<path d="M97.2520 116.0672
L97.4425 115.9720
" />
<path d="M98.9663 117.9720
L98.9663 116.6387
" />
<path d="M98.9663 116.8291
L99.0615 116.7339
" />
<path d="M99.0615 116.7339
L99.2520 116.6387
" />
<path d="M99.2520 116.6387
L99.5377 116.6387
" />
<path d="M99.5377 116.6387
L99.7282 116.7339
" />
<path d="M99.7282 116.7339
L99.8234 116.9244
" />
<path d="M99.8234 116.9244
L99.8234 117.9720
" />
<path d="M99.8234 116.9244
L99.9187 116.7339
" />
<path d="M99.9187 116.7339
L100.1092 116.6387
" />
<path d="M100.1092 116.6387
L100.3949 116.6387
" />
<path d="M100.3949 116.6387
L100.5853 116.7339
" />
<path d="M100.5853 116.7339
L100.6806 116.9244
" />
<path d="M100.6806 116.9244
L100.6806 117.9720
" />
<path d="M101.6330 117.9720
L101.6330 116.6387
" />
<path d="M101.6330 116.8291
L101.7282 116.7339
" />
<path d="M101.7282 116.7339
L101.9187 116.6387
" />
<path d="M101.9187 116.6387
L102.2044 116.6387
" />
<path d="M102.2044 116.6387
L102.3949 116.7339
" />
<path d="M102.3949 116.7339
L102.4901 116.9244
" />
<path d="M102.4901 116.9244
L102.4901 117.9720
" />
<path d="M102.4901 116.9244
L102.5853 116.7339
" />
<path d="M102.5853 116.7339
L102.7758 116.6387
" />
<path d="M102.7758 116.6387
L103.0615 116.6387
" />
<path d="M103.0615 116.6387
L103.2520 116.7339
" />
<path d="M103.2520 116.7339
L103.3473 116.9244
" />
<path d="M103.3473 116.9244
L103.3473 117.9720
" />
<path d="M107.2520 115.8768
L105.5377 118.4482
" />
<path d="M109.8234 115.9720
L110.0139 115.9720
" />
<path d="M110.0139 115.9720
L110.2044 116.0672
" />
<path d="M110.2044 116.0672
L110.2996 116.1625
" />
<path d="M110.2996 116.1625
L110.3949 116.3530
" />
<path d="M110.3949 116.3530
L110.4901 116.7339
" />
<path d="M110.4901 116.7339
L110.4901 117.2101
" />
<path d="M110.4901 117.2101
L110.3949 117.5911
" />
<path d="M110.3949 117.5911
L110.2996 117.7815
" />
<path d="M110.2996 117.7815
L110.2044 117.8768
" />
<path d="M110.2044 117.8768
L110.0139 117.9720
" />
<path d="M110.0139 117.9720
L109.8234 117.9720
" />
<path d="M109.8234 117.9720
L109.6330 117.8768
" />
<path d="M109.6330 117.8768
L109.5377 117.7815
" />
<path d="M109.5377 117.7815
L109.4425 117.5911
" />
<path d="M109.4425 117.5911
L109.3473 117.2101
" />
<path d="M109.3473 117.2101
L109.3473 116.7339
" />
<path d="M109.3473 116.7339
L109.4425 116.3530
" />
<path d="M109.4425 116.3530
L109.5377 116.1625
" />
<path d="M109.5377 116.1625
L109.6330 116.0672
" />
<path d="M109.6330 116.0672
L109.8234 115.9720
" />
<path d="M111.3473 117.7815
L111.4425 117.8768
" />
<path d="M111.4425 117.8768
L111.3473 117.9720
" />
<path d="M111.3473 117.9720
L111.2520 117.8768
" />
<path d="M111.2520 117.8768
L111.3473 117.7815
" />
<path d="M111.3473 117.7815
L111.3473 117.9720
" />
<path d="M112.6806 115.9720
L112.8711 115.9720
" />
<path d="M112.8711 115.9720
L113.0615 116.0672
" />
<path d="M113.0615 116.0672
L113.1568 116.1625
" />
<path d="M113.1568 116.1625
L113.2520 116.3530
" />
<path d="M113.2520 116.3530
L113.3473 116.7339
" />
<path d="M113.3473 116.7339
L113.3473 117.2101
" />
<path d="M113.3473 117.2101
L113.2520 117.5911
" />
<path d="M113.2520 117.5911
L113.1568 117.7815
" />
<path d="M113.1568 117.7815
L113.0615 117.8768
" />
<path d="M113.0615 117.8768
L112.8711 117.9720
" />
<path d="M112.8711 117.9720
L112.6806 117.9720
" />
<path d="M112.6806 117.9720
L112.4901 117.8768
" />
<path d="M112.4901 117.8768
L112.3949 117.7815
" />
<path d="M112.3949 117.7815
L112.2996 117.5911
" />
<path d="M112.2996 117.5911
L112.2044 117.2101
" />
<path d="M112.2044 117.2101
L112.2044 116.7339
" />
<path d="M112.2044 116.7339
L112.2996 116.3530
" />
<path d="M112.2996 116.3530
L112.3949 116.1625
" />
<path d="M112.3949 116.1625
L112.4901 116.0672
" />
<path d="M112.4901 116.0672
L112.6806 115.9720
" />
<path d="M114.4901 116.8291
L114.2996 116.7339
" />
<path d="M114.2996 116.7339
L114.2044 116.6387
" />
<path d="M114.2044 116.6387
L114.1092 116.4482
" />
<path d="M114.1092 116.4482
L114.1092 116.3530
" />
<path d="M114.1092 116.3530
L114.2044 116.1625
" />
<path d="M114.2044 116.1625
L114.2996 116.0672
" />
<path d="M114.2996 116.0672
L114.4901 115.9720
" />
<path d="M114.4901 115.9720
L114.8711 115.9720
" />
<path d="M114.8711 115.9720
L115.0615 116.0672
" />
<path d="M115.0615 116.0672
L115.1568 116.1625
" />
<path d="M115.1568 116.1625
L115.2520 116.3530
" />
<path d="M115.2520 116.3530
L115.2520 116.4482
" />
<path d="M115.2520 116.4482
L115.1568 116.6387
" />
<path d="M115.1568 116.6387
L115.0615 116.7339
" />
<path d="M115.0615 116.7339
L114.8711 116.8291
" />
<path d="M114.8711 116.8291
L114.4901 116.8291
" />
<path d="M114.4901 116.8291
L114.2996 116.9244
" />
<path d="M114.2996 116.9244
L114.2044 117.0196
" />
<path d="M114.2044 117.0196
L114.1092 117.2101
" />
<path d="M114.1092 117.2101
L114.1092 117.5911
" />
<path d="M114.1092 117.5911
L114.2044 117.7815
" />
<path d="M114.2044 117.7815
L114.2996 117.8768
" />
<path d="M114.2996 117.8768
L114.4901 117.9720
" />
<path d="M114.4901 117.9720
L114.8711 117.9720
" />
<path d="M114.8711 117.9720
L115.0615 117.8768
" />
<path d="M115.0615 117.8768
L115.1568 117.7815
" />
<path d="M115.1568 117.7815
L115.2520 117.5911
" />
<path d="M115.2520 117.5911
L115.2520 117.2101
" />
<path d="M115.2520 117.2101
L115.1568 117.0196
" />
<path d="M115.1568 117.0196
L115.0615 116.9244
" />
<path d="M115.0615 116.9244
L114.8711 116.8291
" />
<path d="M116.0139 116.1625
L116.1092 116.0672
" />
<path d="M116.1092 116.0672
L116.2996 115.9720
" />
<path d="M116.2996 115.9720
L116.7758 115.9720
" />
<path d="M116.7758 115.9720
L116.9663 116.0672
" />
<path d="M116.9663 116.0672
L117.0615 116.1625
" />
<path d="M117.0615 116.1625
L117.1568 116.3530
" />
<path d="M117.1568 116.3530
L117.1568 116.5434
" />
<path d="M117.1568 116.5434
L117.0615 116.8291
" />
<path d="M117.0615 116.8291
L115.9187 117.9720
" />
<path d="M115.9187 117.9720
L117.1568 117.9720
" />
<path d="M117.8235 115.9720
L119.1568 115.9720
" />
<path d="M119.1568 115.9720
L118.2996 117.9720
" />
<path d="M119.8235 115.9720
L119.8235 116.3530
" />
<path d="M120.5854 115.9720
L120.5854 116.3530
" />
<path d="M123.5377 118.7339
L123.4425 118.6387
" />
<path d="M123.4425 118.6387
L123.2520 118.3530
" />
<path d="M123.2520 118.3530
L123.1568 118.1625
" />
<path d="M123.1568 118.1625
L123.0616 117.8768
" />
<path d="M123.0616 117.8768
L122.9663 117.4006
" />
<path d="M122.9663 117.4006
L122.9663 117.0196
" />
<path d="M122.9663 117.0196
L123.0616 116.5434
" />
<path d="M123.0616 116.5434
L123.1568 116.2577
" />
<path d="M123.1568 116.2577
L123.2520 116.0672
" />
<path d="M123.2520 116.0672
L123.4425 115.7815
" />
<path d="M123.4425 115.7815
L123.5377 115.6863
" />
<path d="M124.2044 116.1625
L124.2996 116.0672
" />
<path d="M124.2996 116.0672
L124.4901 115.9720
" />
<path d="M124.4901 115.9720
L124.9663 115.9720
" />
<path d="M124.9663 115.9720
L125.1568 116.0672
" />
<path d="M125.1568 116.0672
L125.2520 116.1625
" />
<path d="M125.2520 116.1625
L125.3473 116.3530
" />
<path d="M125.3473 116.3530
L125.3473 116.5434
" />
<path d="M125.3473 116.5434
L125.2520 116.8291
" />
<path d="M125.2520 116.8291
L124.1092 117.9720
" />
<path d="M124.1092 117.9720
L125.3473 117.9720
" />
<path d="M127.7282 117.9720
L127.7282 115.9720
" />
<path d="M128.5854 117.9720
L128.5854 116.9244
" />
<path d="M128.5854 116.9244
L128.4901 116.7339
" />
<path d="M128.4901 116.7339
L128.2996 116.6387
" />
<path d="M128.2996 116.6387
L128.0139 116.6387
" />
<path d="M128.0139 116.6387
L127.8235 116.7339
" />
<path d="M127.8235 116.7339
L127.7282 116.8291
" />
<path d="M129.8235 117.9720
L129.6330 117.8768
" />
<path d="M129.6330 117.8768
L129.5377 117.7815
" />
<path d="M129.5377 117.7815
L129.4425 117.5911
" />
<path d="M129.4425 117.5911
L129.4425 117.0196
" />
<path d="M129.4425 117.0196
L129.5377 116.8291
" />
<path d="M129.5377 116.8291
L129.6330 116.7339
" />
<path d="M129.6330 116.7339
L129.8235 116.6387
" />
<path d="M129.8235 116.6387
L130.1092 116.6387
" />
<path d="M130.1092 116.6387
L130.2997 116.7339
" />
<path d="M130.2997 116.7339
L130.3949 116.8291
" />
<path d="M130.3949 116.8291
L130.4901 117.0196
" />
<path d="M130.4901 117.0196
L130.4901 117.5911
" />
<path d="M130.4901 117.5911
L130.3949 117.7815
" />
<path d="M130.3949 117.7815
L130.2997 117.8768
" />
<path d="M130.2997 117.8768
L130.1092 117.9720
" />
<path d="M130.1092 117.9720
L129.8235 117.9720
" />
<path d="M131.6330 117.9720
L131.4425 117.8768
" />
<path d="M131.4425 117.8768
L131.3473 117.6863
" />
<path d="M131.3473 117.6863
L131.3473 115.9720
" />
<path d="M133.1568 117.8768
L132.9663 117.9720
" />
<path d="M132.9663 117.9720
L132.5854 117.9720
" />
<path d="M132.5854 117.9720
L132.3949 117.8768
" />
<path d="M132.3949 117.8768
L132.2997 117.6863
" />
<path d="M132.2997 117.6863
L132.2997 116.9244
" />
<path d="M132.2997 116.9244
L132.3949 116.7339
" />
<path d="M132.3949 116.7339
L132.5854 116.6387
" />
<path d="M132.5854 116.6387
L132.9663 116.6387
" />
<path d="M132.9663 116.6387
L133.1568 116.7339
" />
<path d="M133.1568 116.7339
L133.2520 116.9244
" />
<path d="M133.2520 116.9244
L133.2520 117.1149
" />
<path d="M133.2520 117.1149
L132.2997 117.3053
" />
<path d="M134.0139 117.8768
L134.2044 117.9720
" />
<path d="M134.2044 117.9720
L134.5854 117.9720
" />
<path d="M134.5854 117.9720
L134.7758 117.8768
" />
<path d="M134.7758 117.8768
L134.8711 117.6863
" />
<path d="M134.8711 117.6863
L134.8711 117.5911
" />
<path d="M134.8711 117.5911
L134.7758 117.4006
" />
<path d="M134.7758 117.4006
L134.5854 117.3053
" />
<path d="M134.5854 117.3053
L134.2997 117.3053
" />
<path d="M134.2997 117.3053
L134.1092 117.2101
" />
<path d="M134.1092 117.2101
L134.0139 117.0196
" />
<path d="M134.0139 117.0196
L134.0139 116.9244
" />
<path d="M134.0139 116.9244
L134.1092 116.7339
" />
<path d="M134.1092 116.7339
L134.2997 116.6387
" />
<path d="M134.2997 116.6387
L134.5854 116.6387
" />
<path d="M134.5854 116.6387
L134.7758 116.7339
" />
<path d="M135.5378 118.7339
L135.6330 118.6387
" />
<path d="M135.6330 118.6387
L135.8235 118.3530
" />
<path d="M135.8235 118.3530
L135.9187 118.1625
" />
<path d="M135.9187 118.1625
L136.0139 117.8768
" />
<path d="M136.0139 117.8768
L136.1092 117.4006
" />
<path d="M136.1092 117.4006
L136.1092 117.0196
" />
<path d="M136.1092 117.0196
L136.0139 116.5434
" />
<path d="M136.0139 116.5434
L135.9187 116.2577
" />
<path d="M135.9187 116.2577
L135.8235 116.0672
" />
<path d="M135.8235 116.0672
L135.6330 115.7815
" />
<path d="M135.6330 115.7815
L135.5378 115.6863
" />
</g></g> 
</svg>
