%TF.GenerationSoftware,KiCad,Pcbnew,7.0.11+dfsg-1build4*%
%TF.CreationDate,2025-11-28T20:59:08+01:00*%
%TF.ProjectId,ParaMETEO-reset-adapter,50617261-4d45-4544-954f-2d7265736574,rev?*%
%TF.SameCoordinates,Original*%
%TF.FileFunction,Copper,L2,Bot*%
%TF.FilePolarity,Positive*%
%FSLAX46Y46*%
G04 Gerber Fmt 4.6, Leading zero omitted, Abs format (unit mm)*
G04 Created by KiCad (PCBNEW 7.0.11+dfsg-1build4) date 2025-11-28 20:59:08*
%MOMM*%
%LPD*%
G01*
G04 APERTURE LIST*
G04 Aperture macros list*
%AMRoundRect*
0 Rectangle with rounded corners*
0 $1 Rounding radius*
0 $2 $3 $4 $5 $6 $7 $8 $9 X,Y pos of 4 corners*
0 Add a 4 corners polygon primitive as box body*
4,1,4,$2,$3,$4,$5,$6,$7,$8,$9,$2,$3,0*
0 Add four circle primitives for the rounded corners*
1,1,$1+$1,$2,$3*
1,1,$1+$1,$4,$5*
1,1,$1+$1,$6,$7*
1,1,$1+$1,$8,$9*
0 Add four rect primitives between the rounded corners*
20,1,$1+$1,$2,$3,$4,$5,0*
20,1,$1+$1,$4,$5,$6,$7,0*
20,1,$1+$1,$6,$7,$8,$9,0*
20,1,$1+$1,$8,$9,$2,$3,0*%
G04 Aperture macros list end*
%TA.AperFunction,ComponentPad*%
%ADD10RoundRect,0.250002X-1.699998X-1.699998X1.699998X-1.699998X1.699998X1.699998X-1.699998X1.699998X0*%
%TD*%
%TA.AperFunction,ComponentPad*%
%ADD11R,1.700000X1.700000*%
%TD*%
%TA.AperFunction,ComponentPad*%
%ADD12O,1.700000X1.700000*%
%TD*%
%TA.AperFunction,ComponentPad*%
%ADD13R,2.000000X2.000000*%
%TD*%
%TA.AperFunction,ComponentPad*%
%ADD14C,2.000000*%
%TD*%
%TA.AperFunction,ComponentPad*%
%ADD15C,3.000000*%
%TD*%
%TA.AperFunction,ViaPad*%
%ADD16C,0.762000*%
%TD*%
%TA.AperFunction,ViaPad*%
%ADD17C,1.270000*%
%TD*%
%TA.AperFunction,Conductor*%
%ADD18C,0.508000*%
%TD*%
%TA.AperFunction,Conductor*%
%ADD19C,1.270000*%
%TD*%
%TA.AperFunction,Conductor*%
%ADD20C,2.032000*%
%TD*%
G04 APERTURE END LIST*
D10*
%TO.P,J4,1,Pin_1*%
%TO.N,/B+*%
X138650000Y-61900000D03*
%TD*%
%TO.P,J3,1,Pin_1*%
%TO.N,GND*%
X173000000Y-61850000D03*
%TD*%
D11*
%TO.P,J2,1,Pin_1*%
%TO.N,FOR_BOOT_OUT*%
X147810000Y-52700000D03*
D12*
%TO.P,J2,2,Pin_2*%
%TO.N,TO_BOOT_IN*%
X145270000Y-52700000D03*
%TO.P,J2,3,Pin_3*%
%TO.N,FOR_RESET_OUT*%
X142730000Y-52700000D03*
%TO.P,J2,4,Pin_4*%
%TO.N,TO_RESET_IN*%
X140190000Y-52700000D03*
%TO.P,J2,5,Pin_5*%
%TO.N,Net-(J2-Pin_5)*%
X137650000Y-52700000D03*
%TD*%
D13*
%TO.P,J1,1,Pin_1*%
%TO.N,unconnected-(J1-Pin_1-Pad1)*%
X171300000Y-53590000D03*
D14*
%TO.P,J1,2,Pin_2*%
%TO.N,unconnected-(J1-Pin_2-Pad2)*%
X171300000Y-57400000D03*
%TO.P,J1,3,Pin_3*%
%TO.N,unconnected-(J1-Pin_3-Pad3)*%
X167800000Y-53590000D03*
%TO.P,J1,4,Pin_4*%
%TO.N,unconnected-(J1-Pin_4-Pad4)*%
X167800000Y-57400000D03*
%TO.P,J1,5,Pin_5*%
%TO.N,GNDD*%
X164300000Y-53590000D03*
%TO.P,J1,6,Pin_6*%
X164300000Y-57400000D03*
%TD*%
D15*
%TO.P,TP1,1,1*%
%TO.N,Net-(R1-Pad2)*%
X161340800Y-68351400D03*
%TD*%
%TO.P,TP2,1,1*%
%TO.N,Net-(R9-Pad1)*%
X158064200Y-70053200D03*
%TD*%
D16*
%TO.N,BAT_BOOT*%
X169300000Y-66800000D03*
X164534079Y-69115921D03*
%TO.N,TO_RESET_IN*%
X164300000Y-59350000D03*
%TO.N,RESET*%
X166200000Y-60175000D03*
D17*
%TO.N,Net-(R9-Pad1)*%
X171350000Y-69500000D03*
%TO.N,TO_BOOT_IN*%
X160250000Y-55300000D03*
D16*
%TO.N,FOR_BOOT_OUT*%
X159700000Y-52550000D03*
%TO.N,RESET*%
X153150000Y-60000000D03*
%TO.N,TO_RESET_IN*%
X147400000Y-58500000D03*
%TO.N,GND*%
X164762500Y-67624658D03*
X143200000Y-62050000D03*
%TO.N,GNDD*%
X157150000Y-63500000D03*
D17*
X172900000Y-70200000D03*
%TO.N,/B+*%
X157850000Y-56600000D03*
X149200000Y-56600000D03*
%TO.N,GNDD*%
X146300000Y-59850000D03*
X147300000Y-63000000D03*
%TO.N,Net-(R1-Pad2)*%
X142650000Y-70900000D03*
%TO.N,Net-(R9-Pad1)*%
X143850000Y-68150000D03*
%TD*%
D18*
%TO.N,GNDD*%
X174950000Y-57600000D02*
X175425000Y-58075000D01*
X175425000Y-58075000D02*
X175425000Y-64225000D01*
X175425000Y-64225000D02*
X174475000Y-65175000D01*
D19*
X172915000Y-55565000D02*
X174950000Y-57600000D01*
D18*
%TO.N,RESET*%
X162200000Y-59999000D02*
X162581000Y-60380000D01*
X162581000Y-60380000D02*
X165995000Y-60380000D01*
X165995000Y-60380000D02*
X166200000Y-60175000D01*
D20*
%TO.N,GNDD*%
X166950000Y-61850000D02*
X168550000Y-60250000D01*
D19*
X164300000Y-57400000D02*
X165144684Y-57400000D01*
D20*
X168550000Y-60250000D02*
X169375000Y-59425000D01*
D19*
X165144684Y-57400000D02*
X167994684Y-60250000D01*
X167994684Y-60250000D02*
X168550000Y-60250000D01*
X166275000Y-55565000D02*
X172915000Y-55565000D01*
X164300000Y-53590000D02*
X166275000Y-55565000D01*
X172900000Y-70200000D02*
X172900000Y-66750000D01*
X172900000Y-66750000D02*
X174475000Y-65175000D01*
D20*
X146300000Y-61225000D02*
X146925000Y-61850000D01*
X146925000Y-61850000D02*
X166950000Y-61850000D01*
D19*
X146300000Y-59850000D02*
X146300000Y-61225000D01*
X146300000Y-61225000D02*
X146300000Y-62000000D01*
X146300000Y-62000000D02*
X147300000Y-63000000D01*
D18*
X157150000Y-63500000D02*
X156550000Y-62900000D01*
D20*
%TO.N,GND*%
X173000000Y-61850000D02*
X171911000Y-61850000D01*
X171911000Y-61850000D02*
X169193000Y-64568000D01*
X164875000Y-64568000D02*
X169193000Y-64568000D01*
D19*
X164762500Y-67624658D02*
X164762500Y-64680500D01*
D20*
X164875000Y-64568000D02*
X158459000Y-64568000D01*
D19*
X164762500Y-64680500D02*
X164875000Y-64568000D01*
X155925000Y-64568000D02*
X156073000Y-64716000D01*
X156073000Y-64716000D02*
X158459000Y-64716000D01*
X155925000Y-64568000D02*
X156306000Y-64949000D01*
D20*
X153564675Y-65400000D02*
X154396675Y-64568000D01*
X154396675Y-64568000D02*
X155925000Y-64568000D01*
X173000000Y-61850000D02*
X173516000Y-61334000D01*
%TO.N,GNDD*%
X164300000Y-53590000D02*
X164300000Y-57400000D01*
D19*
%TO.N,BAT_BOOT*%
X166984079Y-69115921D02*
X169300000Y-66800000D01*
X164534079Y-69115921D02*
X166984079Y-69115921D01*
D18*
%TO.N,TO_RESET_IN*%
X163500000Y-59350000D02*
X164300000Y-59350000D01*
X162650000Y-58500000D02*
X163500000Y-59350000D01*
X160900000Y-58500000D02*
X162650000Y-58500000D01*
D19*
X147400000Y-58500000D02*
X160900000Y-58500000D01*
%TO.N,Net-(R9-Pad1)*%
X169750000Y-71100000D02*
X171350000Y-69500000D01*
X162200000Y-71100000D02*
X169750000Y-71100000D01*
X158064200Y-70053200D02*
X159111000Y-71100000D01*
X159111000Y-71100000D02*
X162200000Y-71100000D01*
%TO.N,TO_BOOT_IN*%
X159699000Y-54749000D02*
X160250000Y-55300000D01*
X156050000Y-54749000D02*
X159699000Y-54749000D01*
%TO.N,FOR_BOOT_OUT*%
X158971000Y-53279000D02*
X159700000Y-52550000D01*
X151000000Y-53279000D02*
X158971000Y-53279000D01*
X147810000Y-53039000D02*
X148050000Y-53279000D01*
X147810000Y-52700000D02*
X147810000Y-53039000D01*
X148050000Y-53279000D02*
X151000000Y-53279000D01*
%TO.N,TO_BOOT_IN*%
X145270000Y-52700000D02*
X145270000Y-53902081D01*
X145270000Y-53902081D02*
X146116919Y-54749000D01*
X146116919Y-54749000D02*
X156050000Y-54749000D01*
%TO.N,RESET*%
X153150000Y-60000000D02*
X153151000Y-59999000D01*
X153151000Y-59999000D02*
X162200000Y-59999000D01*
D20*
%TO.N,GND*%
X147300000Y-65400000D02*
X153564675Y-65400000D01*
D19*
X144851000Y-63701000D02*
X145601000Y-63701000D01*
X143200000Y-62050000D02*
X144851000Y-63701000D01*
X145601000Y-63701000D02*
X147300000Y-65400000D01*
D20*
%TO.N,/B+*%
X149200000Y-56600000D02*
X143950000Y-56600000D01*
X143950000Y-56600000D02*
X138650000Y-61900000D01*
X149200000Y-56600000D02*
X157850000Y-56600000D01*
%TO.N,Net-(R1-Pad2)*%
X141900000Y-66050000D02*
X140750000Y-67200000D01*
X140750000Y-67200000D02*
X140750000Y-69000000D01*
D19*
X142650000Y-70900000D02*
X140750000Y-69000000D01*
%TO.N,Net-(R9-Pad1)*%
X143850000Y-68150000D02*
X143850000Y-68650000D01*
X143850000Y-68650000D02*
X145253200Y-70053200D01*
D20*
%TO.N,Net-(R1-Pad2)*%
X144750000Y-66050000D02*
X141900000Y-66050000D01*
X161340800Y-68351400D02*
X159789400Y-66800000D01*
X155321200Y-66800000D02*
X154300000Y-67821200D01*
X159789400Y-66800000D02*
X155321200Y-66800000D01*
X154300000Y-67821200D02*
X146521200Y-67821200D01*
X146521200Y-67821200D02*
X144750000Y-66050000D01*
%TO.N,Net-(R9-Pad1)*%
X158064200Y-70053200D02*
X145253200Y-70053200D01*
%TD*%
M02*
